G04 #@! TF.FileFunction,Soldermask,Bot*
%FSLAX46Y46*%
G04 Gerber Fmt 4.6, Leading zero omitted, Abs format (unit mm)*
G04 Created by KiCad (PCBNEW 4.0.6) date 07/07/17 15:20:00*
%MOMM*%
%LPD*%
G01*
G04 APERTURE LIST*
%ADD10C,0.100000*%
%ADD11R,1.000000X0.250000*%
%ADD12R,0.250000X1.000000*%
%ADD13R,1.000000X1.000000*%
%ADD14O,1.000000X1.000000*%
%ADD15R,0.500000X0.900000*%
%ADD16R,2.500000X0.900000*%
%ADD17O,2.000000X1.500000*%
%ADD18R,1.700000X1.700000*%
%ADD19O,1.700000X1.700000*%
%ADD20C,1.000000*%
%ADD21R,3.200000X1.000000*%
%ADD22R,0.900000X0.500000*%
%ADD23R,1.060000X0.650000*%
%ADD24O,2.000000X2.500000*%
%ADD25O,3.000000X2.000000*%
%ADD26O,2.200000X1.300000*%
%ADD27R,0.800000X0.750000*%
%ADD28R,1.678940X0.800100*%
%ADD29R,2.000000X1.501140*%
%ADD30R,1.400000X1.200000*%
%ADD31R,2.000000X1.500000*%
G04 APERTURE END LIST*
D10*
D11*
X44196000Y-43370000D03*
X44196000Y-42870000D03*
X44196000Y-42370000D03*
X44196000Y-41870000D03*
X44196000Y-41370000D03*
X44196000Y-40870000D03*
X44196000Y-40370000D03*
X44196000Y-39870000D03*
X44196000Y-39370000D03*
X44196000Y-38870000D03*
X44196000Y-38370000D03*
X44196000Y-37870000D03*
X44196000Y-37370000D03*
X44196000Y-36870000D03*
X44196000Y-36370000D03*
X44196000Y-35870000D03*
D12*
X46146000Y-33920000D03*
X46646000Y-33920000D03*
X47146000Y-33920000D03*
X47646000Y-33920000D03*
X48146000Y-33920000D03*
X48646000Y-33920000D03*
X49146000Y-33920000D03*
X49646000Y-33920000D03*
X50146000Y-33920000D03*
X50646000Y-33920000D03*
X51146000Y-33920000D03*
X51646000Y-33920000D03*
X52146000Y-33920000D03*
X52646000Y-33920000D03*
X53146000Y-33920000D03*
X53646000Y-33920000D03*
D11*
X55596000Y-35870000D03*
X55596000Y-36370000D03*
X55596000Y-36870000D03*
X55596000Y-37370000D03*
X55596000Y-37870000D03*
X55596000Y-38370000D03*
X55596000Y-38870000D03*
X55596000Y-39370000D03*
X55596000Y-39870000D03*
X55596000Y-40370000D03*
X55596000Y-40870000D03*
X55596000Y-41370000D03*
X55596000Y-41870000D03*
X55596000Y-42370000D03*
X55596000Y-42870000D03*
X55596000Y-43370000D03*
D12*
X53646000Y-45320000D03*
X53146000Y-45320000D03*
X52646000Y-45320000D03*
X52146000Y-45320000D03*
X51646000Y-45320000D03*
X51146000Y-45320000D03*
X50646000Y-45320000D03*
X50146000Y-45320000D03*
X49646000Y-45320000D03*
X49146000Y-45320000D03*
X48646000Y-45320000D03*
X48146000Y-45320000D03*
X47646000Y-45320000D03*
X47146000Y-45320000D03*
X46646000Y-45320000D03*
X46146000Y-45320000D03*
D13*
X44900000Y-55170000D03*
D14*
X44900000Y-53900000D03*
X44900000Y-52630000D03*
D15*
X47500000Y-57700000D03*
X49000000Y-57700000D03*
D10*
G36*
X58608668Y-57028338D02*
X58078338Y-57558668D01*
X57512652Y-56992982D01*
X58042982Y-56462652D01*
X58608668Y-57028338D01*
X58608668Y-57028338D01*
G37*
G36*
X57548008Y-55967678D02*
X57017678Y-56498008D01*
X56451992Y-55932322D01*
X56982322Y-55401992D01*
X57548008Y-55967678D01*
X57548008Y-55967678D01*
G37*
G36*
X50728338Y-65698008D02*
X50198008Y-66228338D01*
X49632322Y-65662652D01*
X50162652Y-65132322D01*
X50728338Y-65698008D01*
X50728338Y-65698008D01*
G37*
G36*
X49667678Y-64637348D02*
X49137348Y-65167678D01*
X48571662Y-64601992D01*
X49101992Y-64071662D01*
X49667678Y-64637348D01*
X49667678Y-64637348D01*
G37*
D16*
X31600000Y-66150000D03*
X31600000Y-63250000D03*
D10*
G36*
X54937437Y-55328501D02*
X55361701Y-55752765D01*
X54513173Y-56601293D01*
X54088909Y-56177029D01*
X54937437Y-55328501D01*
X54937437Y-55328501D01*
G37*
G36*
X55503122Y-55894187D02*
X55927386Y-56318451D01*
X55078858Y-57166979D01*
X54654594Y-56742715D01*
X55503122Y-55894187D01*
X55503122Y-55894187D01*
G37*
G36*
X56068808Y-56459872D02*
X56493072Y-56884136D01*
X55644544Y-57732664D01*
X55220280Y-57308400D01*
X56068808Y-56459872D01*
X56068808Y-56459872D01*
G37*
G36*
X56634493Y-57025557D02*
X57058757Y-57449821D01*
X56210229Y-58298349D01*
X55785965Y-57874085D01*
X56634493Y-57025557D01*
X56634493Y-57025557D01*
G37*
G36*
X57200179Y-57591243D02*
X57624443Y-58015507D01*
X56775915Y-58864035D01*
X56351651Y-58439771D01*
X57200179Y-57591243D01*
X57200179Y-57591243D01*
G37*
G36*
X57765864Y-58156928D02*
X58190128Y-58581192D01*
X57341600Y-59429720D01*
X56917336Y-59005456D01*
X57765864Y-58156928D01*
X57765864Y-58156928D01*
G37*
G36*
X58331549Y-58722614D02*
X58755813Y-59146878D01*
X57907285Y-59995406D01*
X57483021Y-59571142D01*
X58331549Y-58722614D01*
X58331549Y-58722614D01*
G37*
G36*
X58897235Y-59288299D02*
X59321499Y-59712563D01*
X58472971Y-60561091D01*
X58048707Y-60136827D01*
X58897235Y-59288299D01*
X58897235Y-59288299D01*
G37*
G36*
X59321499Y-62187437D02*
X58897235Y-62611701D01*
X58048707Y-61763173D01*
X58472971Y-61338909D01*
X59321499Y-62187437D01*
X59321499Y-62187437D01*
G37*
G36*
X58755813Y-62753122D02*
X58331549Y-63177386D01*
X57483021Y-62328858D01*
X57907285Y-61904594D01*
X58755813Y-62753122D01*
X58755813Y-62753122D01*
G37*
G36*
X58190128Y-63318808D02*
X57765864Y-63743072D01*
X56917336Y-62894544D01*
X57341600Y-62470280D01*
X58190128Y-63318808D01*
X58190128Y-63318808D01*
G37*
G36*
X57624443Y-63884493D02*
X57200179Y-64308757D01*
X56351651Y-63460229D01*
X56775915Y-63035965D01*
X57624443Y-63884493D01*
X57624443Y-63884493D01*
G37*
G36*
X57058757Y-64450179D02*
X56634493Y-64874443D01*
X55785965Y-64025915D01*
X56210229Y-63601651D01*
X57058757Y-64450179D01*
X57058757Y-64450179D01*
G37*
G36*
X56493072Y-65015864D02*
X56068808Y-65440128D01*
X55220280Y-64591600D01*
X55644544Y-64167336D01*
X56493072Y-65015864D01*
X56493072Y-65015864D01*
G37*
G36*
X55927386Y-65581549D02*
X55503122Y-66005813D01*
X54654594Y-65157285D01*
X55078858Y-64733021D01*
X55927386Y-65581549D01*
X55927386Y-65581549D01*
G37*
G36*
X55361701Y-66147235D02*
X54937437Y-66571499D01*
X54088909Y-65722971D01*
X54513173Y-65298707D01*
X55361701Y-66147235D01*
X55361701Y-66147235D01*
G37*
G36*
X52886827Y-65298707D02*
X53311091Y-65722971D01*
X52462563Y-66571499D01*
X52038299Y-66147235D01*
X52886827Y-65298707D01*
X52886827Y-65298707D01*
G37*
G36*
X52321142Y-64733021D02*
X52745406Y-65157285D01*
X51896878Y-66005813D01*
X51472614Y-65581549D01*
X52321142Y-64733021D01*
X52321142Y-64733021D01*
G37*
G36*
X51755456Y-64167336D02*
X52179720Y-64591600D01*
X51331192Y-65440128D01*
X50906928Y-65015864D01*
X51755456Y-64167336D01*
X51755456Y-64167336D01*
G37*
G36*
X51189771Y-63601651D02*
X51614035Y-64025915D01*
X50765507Y-64874443D01*
X50341243Y-64450179D01*
X51189771Y-63601651D01*
X51189771Y-63601651D01*
G37*
G36*
X50624085Y-63035965D02*
X51048349Y-63460229D01*
X50199821Y-64308757D01*
X49775557Y-63884493D01*
X50624085Y-63035965D01*
X50624085Y-63035965D01*
G37*
G36*
X50058400Y-62470280D02*
X50482664Y-62894544D01*
X49634136Y-63743072D01*
X49209872Y-63318808D01*
X50058400Y-62470280D01*
X50058400Y-62470280D01*
G37*
G36*
X49492715Y-61904594D02*
X49916979Y-62328858D01*
X49068451Y-63177386D01*
X48644187Y-62753122D01*
X49492715Y-61904594D01*
X49492715Y-61904594D01*
G37*
G36*
X48927029Y-61338909D02*
X49351293Y-61763173D01*
X48502765Y-62611701D01*
X48078501Y-62187437D01*
X48927029Y-61338909D01*
X48927029Y-61338909D01*
G37*
G36*
X49351293Y-60136827D02*
X48927029Y-60561091D01*
X48078501Y-59712563D01*
X48502765Y-59288299D01*
X49351293Y-60136827D01*
X49351293Y-60136827D01*
G37*
G36*
X49916979Y-59571142D02*
X49492715Y-59995406D01*
X48644187Y-59146878D01*
X49068451Y-58722614D01*
X49916979Y-59571142D01*
X49916979Y-59571142D01*
G37*
G36*
X50482664Y-59005456D02*
X50058400Y-59429720D01*
X49209872Y-58581192D01*
X49634136Y-58156928D01*
X50482664Y-59005456D01*
X50482664Y-59005456D01*
G37*
G36*
X51048349Y-58439771D02*
X50624085Y-58864035D01*
X49775557Y-58015507D01*
X50199821Y-57591243D01*
X51048349Y-58439771D01*
X51048349Y-58439771D01*
G37*
G36*
X51614035Y-57874085D02*
X51189771Y-58298349D01*
X50341243Y-57449821D01*
X50765507Y-57025557D01*
X51614035Y-57874085D01*
X51614035Y-57874085D01*
G37*
G36*
X52179720Y-57308400D02*
X51755456Y-57732664D01*
X50906928Y-56884136D01*
X51331192Y-56459872D01*
X52179720Y-57308400D01*
X52179720Y-57308400D01*
G37*
G36*
X52745406Y-56742715D02*
X52321142Y-57166979D01*
X51472614Y-56318451D01*
X51896878Y-55894187D01*
X52745406Y-56742715D01*
X52745406Y-56742715D01*
G37*
G36*
X53311091Y-56177029D02*
X52886827Y-56601293D01*
X52038299Y-55752765D01*
X52462563Y-55328501D01*
X53311091Y-56177029D01*
X53311091Y-56177029D01*
G37*
D17*
X37800000Y-56250000D03*
X37800000Y-58750000D03*
D18*
X62060000Y-60100000D03*
D19*
X64600000Y-60100000D03*
X62060000Y-57560000D03*
X64600000Y-57560000D03*
X62060000Y-55020000D03*
X64600000Y-55020000D03*
D10*
G36*
X72186970Y-63905923D02*
X72894077Y-63198816D01*
X73601184Y-63905923D01*
X72894077Y-64613030D01*
X72186970Y-63905923D01*
X72186970Y-63905923D01*
G37*
D20*
X71996051Y-64803949D02*
X71996051Y-64803949D01*
X71098026Y-65701974D02*
X71098026Y-65701974D01*
X70200000Y-66600000D02*
X70200000Y-66600000D01*
X69301975Y-67498025D02*
X69301975Y-67498025D01*
X68403949Y-68396051D02*
X68403949Y-68396051D01*
D21*
X34900000Y-68200000D03*
X34900000Y-62000000D03*
D15*
X46900000Y-68800000D03*
X45400000Y-68800000D03*
X44100000Y-68450000D03*
X42600000Y-68450000D03*
D22*
X51600000Y-49175000D03*
X51600000Y-50675000D03*
X48200000Y-49175000D03*
X48200000Y-50675000D03*
D15*
X45200000Y-56300000D03*
X43700000Y-56300000D03*
D10*
G36*
X47088909Y-54799695D02*
X47725305Y-55436091D01*
X47371751Y-55789645D01*
X46735355Y-55153249D01*
X47088909Y-54799695D01*
X47088909Y-54799695D01*
G37*
G36*
X46028249Y-55860355D02*
X46664645Y-56496751D01*
X46311091Y-56850305D01*
X45674695Y-56213909D01*
X46028249Y-55860355D01*
X46028249Y-55860355D01*
G37*
G36*
X49238909Y-54524695D02*
X49875305Y-55161091D01*
X49521751Y-55514645D01*
X48885355Y-54878249D01*
X49238909Y-54524695D01*
X49238909Y-54524695D01*
G37*
G36*
X48178249Y-55585355D02*
X48814645Y-56221751D01*
X48461091Y-56575305D01*
X47824695Y-55938909D01*
X48178249Y-55585355D01*
X48178249Y-55585355D01*
G37*
G36*
X50188909Y-55124695D02*
X50825305Y-55761091D01*
X50471751Y-56114645D01*
X49835355Y-55478249D01*
X50188909Y-55124695D01*
X50188909Y-55124695D01*
G37*
G36*
X49128249Y-56185355D02*
X49764645Y-56821751D01*
X49411091Y-57175305D01*
X48774695Y-56538909D01*
X49128249Y-56185355D01*
X49128249Y-56185355D01*
G37*
D22*
X46075000Y-52900000D03*
X46075000Y-54400000D03*
D15*
X50650000Y-50675000D03*
X49150000Y-50675000D03*
X45350000Y-51550000D03*
X46850000Y-51550000D03*
X52825000Y-54750000D03*
X54325000Y-54750000D03*
D23*
X46650000Y-65350000D03*
X46650000Y-66300000D03*
X46650000Y-67250000D03*
X44450000Y-67250000D03*
X44450000Y-65350000D03*
D24*
X56240000Y-52480000D03*
X53700000Y-52480000D03*
X51160000Y-52480000D03*
X48620000Y-52480000D03*
X48620000Y-67720000D03*
X51160000Y-67720000D03*
X53700000Y-67720000D03*
X56240000Y-67720000D03*
X58780000Y-67720000D03*
D25*
X41250000Y-60550000D03*
X41250000Y-52150000D03*
D26*
X41250000Y-58350000D03*
X41250000Y-56350000D03*
X41250000Y-54350000D03*
D27*
X50863500Y-32258000D03*
X49363500Y-32258000D03*
D28*
X58910220Y-41427400D03*
X58910220Y-42527220D03*
X58910220Y-43627040D03*
X58910220Y-44726860D03*
X58910220Y-45829220D03*
X58910220Y-46929040D03*
X58910220Y-48028860D03*
X58910220Y-49128680D03*
D29*
X73977500Y-39497000D03*
D30*
X59055000Y-50673000D03*
D31*
X73914000Y-52959000D03*
D13*
X70612000Y-33528000D03*
D14*
X71882000Y-33528000D03*
X70612000Y-34798000D03*
X71882000Y-34798000D03*
X70612000Y-36068000D03*
X71882000Y-36068000D03*
D27*
X52284500Y-32258000D03*
X53784500Y-32258000D03*
M02*
