G04 #@! TF.FileFunction,Legend,Top*
%FSLAX46Y46*%
G04 Gerber Fmt 4.6, Leading zero omitted, Abs format (unit mm)*
G04 Created by KiCad (PCBNEW 4.0.6) date 07/07/17 15:20:00*
%MOMM*%
%LPD*%
G01*
G04 APERTURE LIST*
%ADD10C,0.100000*%
%ADD11C,0.200000*%
%ADD12C,0.250000*%
%ADD13C,0.150000*%
%ADD14C,0.120000*%
%ADD15C,0.010000*%
G04 APERTURE END LIST*
D10*
D11*
X68072000Y-37338000D02*
X68072000Y-45212000D01*
D12*
X67455190Y-45081357D02*
X67517095Y-44909928D01*
X67517095Y-44624214D01*
X67455190Y-44509928D01*
X67393286Y-44452785D01*
X67269476Y-44395642D01*
X67145667Y-44395642D01*
X67021857Y-44452785D01*
X66959952Y-44509928D01*
X66898048Y-44624214D01*
X66836143Y-44852785D01*
X66774238Y-44967071D01*
X66712333Y-45024214D01*
X66588524Y-45081357D01*
X66464714Y-45081357D01*
X66340905Y-45024214D01*
X66279000Y-44967071D01*
X66217095Y-44852785D01*
X66217095Y-44567071D01*
X66279000Y-44395642D01*
X66217095Y-43652785D02*
X66217095Y-43424214D01*
X66279000Y-43309928D01*
X66402810Y-43195642D01*
X66650429Y-43138500D01*
X67083762Y-43138500D01*
X67331381Y-43195642D01*
X67455190Y-43309928D01*
X67517095Y-43424214D01*
X67517095Y-43652785D01*
X67455190Y-43767071D01*
X67331381Y-43881357D01*
X67083762Y-43938500D01*
X66650429Y-43938500D01*
X66402810Y-43881357D01*
X66279000Y-43767071D01*
X66217095Y-43652785D01*
X67517095Y-42624214D02*
X66217095Y-42624214D01*
X67145667Y-42224214D01*
X66217095Y-41824214D01*
X67517095Y-41824214D01*
X66836143Y-41252785D02*
X66836143Y-40852785D01*
X67517095Y-40681356D02*
X67517095Y-41252785D01*
X66217095Y-41252785D01*
X66217095Y-40681356D01*
X67455190Y-40224214D02*
X67517095Y-40052785D01*
X67517095Y-39767071D01*
X67455190Y-39652785D01*
X67393286Y-39595642D01*
X67269476Y-39538499D01*
X67145667Y-39538499D01*
X67021857Y-39595642D01*
X66959952Y-39652785D01*
X66898048Y-39767071D01*
X66836143Y-39995642D01*
X66774238Y-40109928D01*
X66712333Y-40167071D01*
X66588524Y-40224214D01*
X66464714Y-40224214D01*
X66340905Y-40167071D01*
X66279000Y-40109928D01*
X66217095Y-39995642D01*
X66217095Y-39709928D01*
X66279000Y-39538499D01*
X67145667Y-39081357D02*
X67145667Y-38509928D01*
X67517095Y-39195642D02*
X66217095Y-38795642D01*
X67517095Y-38395642D01*
X66217095Y-38167071D02*
X66217095Y-37481357D01*
X67517095Y-37824214D02*
X66217095Y-37824214D01*
D11*
X69967690Y-45544357D02*
X69920071Y-45591976D01*
X69872452Y-45687214D01*
X69872452Y-45782452D01*
X69920071Y-45877690D01*
X69967690Y-45925310D01*
X70062929Y-45972929D01*
X70158167Y-45972929D01*
X70253405Y-45925310D01*
X70301024Y-45877690D01*
X70348643Y-45782452D01*
X70348643Y-45687214D01*
X70301024Y-45591976D01*
X70253405Y-45544357D01*
X69872452Y-45544357D02*
X70253405Y-45544357D01*
X70301024Y-45496738D01*
X70301024Y-45449119D01*
X70253405Y-45353881D01*
X70158167Y-45306262D01*
X69920071Y-45306262D01*
X69777214Y-45401500D01*
X69681976Y-45544357D01*
X69634357Y-45734833D01*
X69681976Y-45925310D01*
X69777214Y-46068167D01*
X69920071Y-46163405D01*
X70110548Y-46211024D01*
X70301024Y-46163405D01*
X70443881Y-46068167D01*
X70539119Y-45925310D01*
X70586738Y-45734833D01*
X70539119Y-45544357D01*
X70443881Y-45401500D01*
X69777214Y-44877691D02*
X70443881Y-44877691D01*
X69872452Y-44877691D02*
X69824833Y-44830072D01*
X69777214Y-44734834D01*
X69777214Y-44591976D01*
X69824833Y-44496738D01*
X69920071Y-44449119D01*
X70443881Y-44449119D01*
X70539119Y-44211024D02*
X70539119Y-43449119D01*
X69777214Y-43306262D02*
X70443881Y-43068167D01*
X69777214Y-42830071D02*
X70443881Y-43068167D01*
X70681976Y-43163405D01*
X70729595Y-43211024D01*
X70777214Y-43306262D01*
X70443881Y-42306262D02*
X70396262Y-42401500D01*
X70348643Y-42449119D01*
X70253405Y-42496738D01*
X69967690Y-42496738D01*
X69872452Y-42449119D01*
X69824833Y-42401500D01*
X69777214Y-42306262D01*
X69777214Y-42163404D01*
X69824833Y-42068166D01*
X69872452Y-42020547D01*
X69967690Y-41972928D01*
X70253405Y-41972928D01*
X70348643Y-42020547D01*
X70396262Y-42068166D01*
X70443881Y-42163404D01*
X70443881Y-42306262D01*
X70396262Y-41591976D02*
X70443881Y-41496738D01*
X70443881Y-41306262D01*
X70396262Y-41211023D01*
X70301024Y-41163404D01*
X70253405Y-41163404D01*
X70158167Y-41211023D01*
X70110548Y-41306262D01*
X70110548Y-41449119D01*
X70062929Y-41544357D01*
X69967690Y-41591976D01*
X69920071Y-41591976D01*
X69824833Y-41544357D01*
X69777214Y-41449119D01*
X69777214Y-41306262D01*
X69824833Y-41211023D01*
X70443881Y-40734833D02*
X69777214Y-40734833D01*
X69443881Y-40734833D02*
X69491500Y-40782452D01*
X69539119Y-40734833D01*
X69491500Y-40687214D01*
X69443881Y-40734833D01*
X69539119Y-40734833D01*
X70443881Y-40258643D02*
X69443881Y-40258643D01*
X70443881Y-39830071D02*
X69920071Y-39830071D01*
X69824833Y-39877690D01*
X69777214Y-39972928D01*
X69777214Y-40115786D01*
X69824833Y-40211024D01*
X69872452Y-40258643D01*
X70443881Y-39353881D02*
X69777214Y-39353881D01*
X69443881Y-39353881D02*
X69491500Y-39401500D01*
X69539119Y-39353881D01*
X69491500Y-39306262D01*
X69443881Y-39353881D01*
X69539119Y-39353881D01*
X70396262Y-38925310D02*
X70443881Y-38830072D01*
X70443881Y-38639596D01*
X70396262Y-38544357D01*
X70301024Y-38496738D01*
X70253405Y-38496738D01*
X70158167Y-38544357D01*
X70110548Y-38639596D01*
X70110548Y-38782453D01*
X70062929Y-38877691D01*
X69967690Y-38925310D01*
X69920071Y-38925310D01*
X69824833Y-38877691D01*
X69777214Y-38782453D01*
X69777214Y-38639596D01*
X69824833Y-38544357D01*
X70443881Y-37639595D02*
X69920071Y-37639595D01*
X69824833Y-37687214D01*
X69777214Y-37782452D01*
X69777214Y-37972929D01*
X69824833Y-38068167D01*
X70396262Y-37639595D02*
X70443881Y-37734833D01*
X70443881Y-37972929D01*
X70396262Y-38068167D01*
X70301024Y-38115786D01*
X70205786Y-38115786D01*
X70110548Y-38068167D01*
X70062929Y-37972929D01*
X70062929Y-37734833D01*
X70015310Y-37639595D01*
X71667690Y-47306264D02*
X71620071Y-47353883D01*
X71572452Y-47449121D01*
X71572452Y-47544359D01*
X71620071Y-47639597D01*
X71667690Y-47687217D01*
X71762929Y-47734836D01*
X71858167Y-47734836D01*
X71953405Y-47687217D01*
X72001024Y-47639597D01*
X72048643Y-47544359D01*
X72048643Y-47449121D01*
X72001024Y-47353883D01*
X71953405Y-47306264D01*
X71572452Y-47306264D02*
X71953405Y-47306264D01*
X72001024Y-47258645D01*
X72001024Y-47211026D01*
X71953405Y-47115788D01*
X71858167Y-47068169D01*
X71620071Y-47068169D01*
X71477214Y-47163407D01*
X71381976Y-47306264D01*
X71334357Y-47496740D01*
X71381976Y-47687217D01*
X71477214Y-47830074D01*
X71620071Y-47925312D01*
X71810548Y-47972931D01*
X72001024Y-47925312D01*
X72143881Y-47830074D01*
X72239119Y-47687217D01*
X72286738Y-47496740D01*
X72239119Y-47306264D01*
X72143881Y-47163407D01*
X71143881Y-46353883D02*
X71858167Y-46353883D01*
X72001024Y-46401503D01*
X72096262Y-46496741D01*
X72143881Y-46639598D01*
X72143881Y-46734836D01*
X72239119Y-46115788D02*
X72239119Y-45353883D01*
X72143881Y-45115788D02*
X71477214Y-45115788D01*
X71667690Y-45115788D02*
X71572452Y-45068169D01*
X71524833Y-45020550D01*
X71477214Y-44925312D01*
X71477214Y-44830073D01*
X72143881Y-44353883D02*
X72096262Y-44449121D01*
X72048643Y-44496740D01*
X71953405Y-44544359D01*
X71667690Y-44544359D01*
X71572452Y-44496740D01*
X71524833Y-44449121D01*
X71477214Y-44353883D01*
X71477214Y-44211025D01*
X71524833Y-44115787D01*
X71572452Y-44068168D01*
X71667690Y-44020549D01*
X71953405Y-44020549D01*
X72048643Y-44068168D01*
X72096262Y-44115787D01*
X72143881Y-44211025D01*
X72143881Y-44353883D01*
X72096262Y-43163406D02*
X72143881Y-43258644D01*
X72143881Y-43449121D01*
X72096262Y-43544359D01*
X72048643Y-43591978D01*
X71953405Y-43639597D01*
X71667690Y-43639597D01*
X71572452Y-43591978D01*
X71524833Y-43544359D01*
X71477214Y-43449121D01*
X71477214Y-43258644D01*
X71524833Y-43163406D01*
X72143881Y-42734835D02*
X71143881Y-42734835D01*
X71762929Y-42639597D02*
X72143881Y-42353882D01*
X71477214Y-42353882D02*
X71858167Y-42734835D01*
X72096262Y-41544358D02*
X72143881Y-41639596D01*
X72143881Y-41830073D01*
X72096262Y-41925311D01*
X72001024Y-41972930D01*
X71620071Y-41972930D01*
X71524833Y-41925311D01*
X71477214Y-41830073D01*
X71477214Y-41639596D01*
X71524833Y-41544358D01*
X71620071Y-41496739D01*
X71715310Y-41496739D01*
X71810548Y-41972930D01*
X71477214Y-41211025D02*
X71477214Y-40830073D01*
X71143881Y-41068168D02*
X72001024Y-41068168D01*
X72096262Y-41020549D01*
X72143881Y-40925311D01*
X72143881Y-40830073D01*
X72239119Y-40734834D02*
X72239119Y-39972929D01*
X72143881Y-39734834D02*
X71143881Y-39734834D01*
X71524833Y-39734834D02*
X71477214Y-39639596D01*
X71477214Y-39449119D01*
X71524833Y-39353881D01*
X71572452Y-39306262D01*
X71667690Y-39258643D01*
X71953405Y-39258643D01*
X72048643Y-39306262D01*
X72096262Y-39353881D01*
X72143881Y-39449119D01*
X72143881Y-39639596D01*
X72096262Y-39734834D01*
X72143881Y-38687215D02*
X72096262Y-38782453D01*
X72048643Y-38830072D01*
X71953405Y-38877691D01*
X71667690Y-38877691D01*
X71572452Y-38830072D01*
X71524833Y-38782453D01*
X71477214Y-38687215D01*
X71477214Y-38544357D01*
X71524833Y-38449119D01*
X71572452Y-38401500D01*
X71667690Y-38353881D01*
X71953405Y-38353881D01*
X72048643Y-38401500D01*
X72096262Y-38449119D01*
X72143881Y-38544357D01*
X72143881Y-38687215D01*
X71477214Y-38020548D02*
X72143881Y-37782453D01*
X71477214Y-37544357D02*
X72143881Y-37782453D01*
X72381976Y-37877691D01*
X72429595Y-37925310D01*
X72477214Y-38020548D01*
X72843881Y-60639599D02*
X73843881Y-60401504D01*
X73129595Y-60211027D01*
X73843881Y-60020551D01*
X72843881Y-59782456D01*
X73843881Y-58972932D02*
X73320071Y-58972932D01*
X73224833Y-59020551D01*
X73177214Y-59115789D01*
X73177214Y-59306266D01*
X73224833Y-59401504D01*
X73796262Y-58972932D02*
X73843881Y-59068170D01*
X73843881Y-59306266D01*
X73796262Y-59401504D01*
X73701024Y-59449123D01*
X73605786Y-59449123D01*
X73510548Y-59401504D01*
X73462929Y-59306266D01*
X73462929Y-59068170D01*
X73415310Y-58972932D01*
X73177214Y-58639599D02*
X73177214Y-58258647D01*
X72843881Y-58496742D02*
X73701024Y-58496742D01*
X73796262Y-58449123D01*
X73843881Y-58353885D01*
X73843881Y-58258647D01*
X73796262Y-57544360D02*
X73843881Y-57639598D01*
X73843881Y-57830075D01*
X73796262Y-57925313D01*
X73701024Y-57972932D01*
X73320071Y-57972932D01*
X73224833Y-57925313D01*
X73177214Y-57830075D01*
X73177214Y-57639598D01*
X73224833Y-57544360D01*
X73320071Y-57496741D01*
X73415310Y-57496741D01*
X73510548Y-57972932D01*
X73843881Y-57068170D02*
X73177214Y-57068170D01*
X73367690Y-57068170D02*
X73272452Y-57020551D01*
X73224833Y-56972932D01*
X73177214Y-56877694D01*
X73177214Y-56782455D01*
X73843881Y-55115788D02*
X73367690Y-55449122D01*
X73843881Y-55687217D02*
X72843881Y-55687217D01*
X72843881Y-55306264D01*
X72891500Y-55211026D01*
X72939119Y-55163407D01*
X73034357Y-55115788D01*
X73177214Y-55115788D01*
X73272452Y-55163407D01*
X73320071Y-55211026D01*
X73367690Y-55306264D01*
X73367690Y-55687217D01*
X73843881Y-54544360D02*
X73796262Y-54639598D01*
X73748643Y-54687217D01*
X73653405Y-54734836D01*
X73367690Y-54734836D01*
X73272452Y-54687217D01*
X73224833Y-54639598D01*
X73177214Y-54544360D01*
X73177214Y-54401502D01*
X73224833Y-54306264D01*
X73272452Y-54258645D01*
X73367690Y-54211026D01*
X73653405Y-54211026D01*
X73748643Y-54258645D01*
X73796262Y-54306264D01*
X73843881Y-54401502D01*
X73843881Y-54544360D01*
X73796262Y-53353883D02*
X73843881Y-53449121D01*
X73843881Y-53639598D01*
X73796262Y-53734836D01*
X73748643Y-53782455D01*
X73653405Y-53830074D01*
X73367690Y-53830074D01*
X73272452Y-53782455D01*
X73224833Y-53734836D01*
X73177214Y-53639598D01*
X73177214Y-53449121D01*
X73224833Y-53353883D01*
X73843881Y-52925312D02*
X72843881Y-52925312D01*
X73462929Y-52830074D02*
X73843881Y-52544359D01*
X73177214Y-52544359D02*
X73558167Y-52925312D01*
X73796262Y-51734835D02*
X73843881Y-51830073D01*
X73843881Y-52020550D01*
X73796262Y-52115788D01*
X73701024Y-52163407D01*
X73320071Y-52163407D01*
X73224833Y-52115788D01*
X73177214Y-52020550D01*
X73177214Y-51830073D01*
X73224833Y-51734835D01*
X73320071Y-51687216D01*
X73415310Y-51687216D01*
X73510548Y-52163407D01*
X73748643Y-49925311D02*
X73796262Y-49972930D01*
X73843881Y-50115787D01*
X73843881Y-50211025D01*
X73796262Y-50353883D01*
X73701024Y-50449121D01*
X73605786Y-50496740D01*
X73415310Y-50544359D01*
X73272452Y-50544359D01*
X73081976Y-50496740D01*
X72986738Y-50449121D01*
X72891500Y-50353883D01*
X72843881Y-50211025D01*
X72843881Y-50115787D01*
X72891500Y-49972930D01*
X72939119Y-49925311D01*
X73843881Y-49353883D02*
X73796262Y-49449121D01*
X73748643Y-49496740D01*
X73653405Y-49544359D01*
X73367690Y-49544359D01*
X73272452Y-49496740D01*
X73224833Y-49449121D01*
X73177214Y-49353883D01*
X73177214Y-49211025D01*
X73224833Y-49115787D01*
X73272452Y-49068168D01*
X73367690Y-49020549D01*
X73653405Y-49020549D01*
X73748643Y-49068168D01*
X73796262Y-49115787D01*
X73843881Y-49211025D01*
X73843881Y-49353883D01*
X73843881Y-48591978D02*
X73177214Y-48591978D01*
X73272452Y-48591978D02*
X73224833Y-48544359D01*
X73177214Y-48449121D01*
X73177214Y-48306263D01*
X73224833Y-48211025D01*
X73320071Y-48163406D01*
X73843881Y-48163406D01*
X73320071Y-48163406D02*
X73224833Y-48115787D01*
X73177214Y-48020549D01*
X73177214Y-47877692D01*
X73224833Y-47782454D01*
X73320071Y-47734835D01*
X73843881Y-47734835D01*
X73177214Y-47258645D02*
X74177214Y-47258645D01*
X73224833Y-47258645D02*
X73177214Y-47163407D01*
X73177214Y-46972930D01*
X73224833Y-46877692D01*
X73272452Y-46830073D01*
X73367690Y-46782454D01*
X73653405Y-46782454D01*
X73748643Y-46830073D01*
X73796262Y-46877692D01*
X73843881Y-46972930D01*
X73843881Y-47163407D01*
X73796262Y-47258645D01*
X73177214Y-45925311D02*
X73843881Y-45925311D01*
X73177214Y-46353883D02*
X73701024Y-46353883D01*
X73796262Y-46306264D01*
X73843881Y-46211026D01*
X73843881Y-46068168D01*
X73796262Y-45972930D01*
X73748643Y-45925311D01*
X73177214Y-45591978D02*
X73177214Y-45211026D01*
X72843881Y-45449121D02*
X73701024Y-45449121D01*
X73796262Y-45401502D01*
X73843881Y-45306264D01*
X73843881Y-45211026D01*
X73796262Y-44496739D02*
X73843881Y-44591977D01*
X73843881Y-44782454D01*
X73796262Y-44877692D01*
X73701024Y-44925311D01*
X73320071Y-44925311D01*
X73224833Y-44877692D01*
X73177214Y-44782454D01*
X73177214Y-44591977D01*
X73224833Y-44496739D01*
X73320071Y-44449120D01*
X73415310Y-44449120D01*
X73510548Y-44925311D01*
X73843881Y-44020549D02*
X73177214Y-44020549D01*
X73367690Y-44020549D02*
X73272452Y-43972930D01*
X73224833Y-43925311D01*
X73177214Y-43830073D01*
X73177214Y-43734834D01*
X72843881Y-42782453D02*
X73843881Y-42449120D01*
X72843881Y-42115786D01*
X73796262Y-41401500D02*
X73843881Y-41496738D01*
X73843881Y-41687215D01*
X73796262Y-41782453D01*
X73701024Y-41830072D01*
X73320071Y-41830072D01*
X73224833Y-41782453D01*
X73177214Y-41687215D01*
X73177214Y-41496738D01*
X73224833Y-41401500D01*
X73320071Y-41353881D01*
X73415310Y-41353881D01*
X73510548Y-41830072D01*
X73843881Y-40925310D02*
X73177214Y-40925310D01*
X73367690Y-40925310D02*
X73272452Y-40877691D01*
X73224833Y-40830072D01*
X73177214Y-40734834D01*
X73177214Y-40639595D01*
X73177214Y-39115785D02*
X73843881Y-39115785D01*
X72796262Y-39353881D02*
X73510548Y-39591976D01*
X73510548Y-38972928D01*
X73748643Y-38591976D02*
X73796262Y-38544357D01*
X73843881Y-38591976D01*
X73796262Y-38639595D01*
X73748643Y-38591976D01*
X73843881Y-38591976D01*
X72843881Y-37925310D02*
X72843881Y-37830071D01*
X72891500Y-37734833D01*
X72939119Y-37687214D01*
X73034357Y-37639595D01*
X73224833Y-37591976D01*
X73462929Y-37591976D01*
X73653405Y-37639595D01*
X73748643Y-37687214D01*
X73796262Y-37734833D01*
X73843881Y-37830071D01*
X73843881Y-37925310D01*
X73796262Y-38020548D01*
X73748643Y-38068167D01*
X73653405Y-38115786D01*
X73462929Y-38163405D01*
X73224833Y-38163405D01*
X73034357Y-38115786D01*
X72939119Y-38068167D01*
X72891500Y-38020548D01*
X72843881Y-37925310D01*
D13*
X48850000Y-59200000D02*
G75*
G03X48850000Y-59200000I-300000J0D01*
G01*
X47800000Y-55500000D02*
X47800000Y-59900000D01*
X51300000Y-55500000D02*
X47800000Y-55500000D01*
X51300000Y-59900000D02*
X51300000Y-55500000D01*
X47800000Y-59900000D02*
X51300000Y-59900000D01*
X36990000Y-44355000D02*
X36990000Y-45355000D01*
X36290000Y-44355000D02*
X36990000Y-44355000D01*
D14*
X46230000Y-54535000D02*
X46230000Y-51935000D01*
X46230000Y-51935000D02*
X43570000Y-51935000D01*
X43570000Y-51935000D02*
X43570000Y-54535000D01*
X43570000Y-54535000D02*
X46230000Y-54535000D01*
X46230000Y-55170000D02*
X46230000Y-55865000D01*
X46230000Y-55865000D02*
X44900000Y-55865000D01*
X45150000Y-65200000D02*
X44450000Y-65200000D01*
X44450000Y-64000000D02*
X45150000Y-64000000D01*
X47650000Y-55150000D02*
X47650000Y-55850000D01*
X46450000Y-55850000D02*
X46450000Y-55150000D01*
X45150000Y-60450000D02*
X44450000Y-60450000D01*
X44450000Y-59250000D02*
X45150000Y-59250000D01*
X34800000Y-56450000D02*
X34800000Y-57150000D01*
X33600000Y-57150000D02*
X33600000Y-56450000D01*
X33400000Y-56450000D02*
X33400000Y-57150000D01*
X32200000Y-57150000D02*
X32200000Y-56450000D01*
X57920000Y-55525000D02*
X57920000Y-57525000D01*
X60880000Y-57525000D02*
X60880000Y-55525000D01*
X65770000Y-55500000D02*
X65770000Y-57500000D01*
X68730000Y-57500000D02*
X68730000Y-55500000D01*
X60950000Y-60400000D02*
X60950000Y-61100000D01*
X59750000Y-61100000D02*
X59750000Y-60400000D01*
X72227208Y-67065685D02*
X72934315Y-67772792D01*
X72934315Y-67772792D02*
X74419239Y-66287868D01*
X72227208Y-67065685D02*
X73712132Y-65580761D01*
X36200000Y-55100000D02*
X36200000Y-54100000D01*
X36200000Y-54100000D02*
X34100000Y-54100000D01*
X36200000Y-55100000D02*
X34100000Y-55100000D01*
X46330000Y-66600000D02*
X46330000Y-68600000D01*
X43370000Y-68600000D02*
X43370000Y-66600000D01*
X54820000Y-57575000D02*
X54820000Y-55575000D01*
X57780000Y-55575000D02*
X57780000Y-57575000D01*
X68845000Y-57550000D02*
X68845000Y-55550000D01*
X71805000Y-55550000D02*
X71805000Y-57550000D01*
X71504612Y-63414484D02*
X66972058Y-67947038D01*
X66972058Y-67947038D02*
X68852962Y-69827942D01*
X68852962Y-69827942D02*
X73385516Y-65295388D01*
X73385516Y-65295388D02*
X71504612Y-63414484D01*
X71953625Y-62965471D02*
X72445064Y-62474032D01*
X72445064Y-62474032D02*
X73385516Y-63414484D01*
X47300000Y-62820000D02*
X48300000Y-62820000D01*
X48300000Y-64180000D02*
X47300000Y-64180000D01*
X47730000Y-60050000D02*
X47730000Y-61050000D01*
X46370000Y-61050000D02*
X46370000Y-60050000D01*
X49450000Y-62780000D02*
X48450000Y-62780000D01*
X48450000Y-61420000D02*
X49450000Y-61420000D01*
X46370000Y-58600000D02*
X46370000Y-57600000D01*
X47730000Y-57600000D02*
X47730000Y-58600000D01*
X52600000Y-55430000D02*
X51600000Y-55430000D01*
X51600000Y-54070000D02*
X52600000Y-54070000D01*
X70695944Y-68342391D02*
X71403051Y-67635284D01*
X72364716Y-68596949D02*
X71657609Y-69304056D01*
X38200000Y-55280000D02*
X37200000Y-55280000D01*
X37200000Y-53920000D02*
X38200000Y-53920000D01*
X66565614Y-59572721D02*
X67272721Y-58865614D01*
X68234386Y-59827279D02*
X67527279Y-60534386D01*
X67665614Y-60672721D02*
X68372721Y-59965614D01*
X69334386Y-60927279D02*
X68627279Y-61634386D01*
X68765614Y-61772721D02*
X69472721Y-61065614D01*
X70434386Y-62027279D02*
X69727279Y-62734386D01*
X43540000Y-60620000D02*
X43540000Y-61550000D01*
X43540000Y-63780000D02*
X43540000Y-62850000D01*
X43540000Y-63780000D02*
X45700000Y-63780000D01*
X43540000Y-60620000D02*
X45000000Y-60620000D01*
D13*
X46400000Y-69600000D02*
X46400000Y-50600000D01*
X60400000Y-69600000D02*
X46400000Y-69600000D01*
X60400000Y-50600000D02*
X60400000Y-69600000D01*
X46400000Y-50600000D02*
X60400000Y-50600000D01*
X58086000Y-59360000D02*
X58086000Y-64440000D01*
X58086000Y-64440000D02*
X53514000Y-64440000D01*
X53514000Y-64440000D02*
X53514000Y-59360000D01*
X53514000Y-59360000D02*
X58086000Y-59360000D01*
X56562000Y-59360000D02*
X56562000Y-59868000D01*
X56562000Y-59868000D02*
X55292000Y-59868000D01*
X55292000Y-59868000D02*
X55292000Y-59360000D01*
X43000000Y-51950000D02*
X43450000Y-51950000D01*
X43450000Y-51950000D02*
X43450000Y-60750000D01*
X43450000Y-60750000D02*
X43000000Y-60750000D01*
X39500000Y-60750000D02*
X39050000Y-60750000D01*
X39050000Y-60750000D02*
X39050000Y-51950000D01*
X39050000Y-51950000D02*
X39500000Y-51950000D01*
D14*
X69865614Y-62872721D02*
X70572721Y-62165614D01*
X71534386Y-63127279D02*
X70827279Y-63834386D01*
X36950000Y-60430000D02*
X36950000Y-58930000D01*
X36950000Y-58930000D02*
X36680000Y-58930000D01*
X36680000Y-58930000D02*
X36680000Y-56100000D01*
X30050000Y-60430000D02*
X30050000Y-58930000D01*
X30050000Y-58930000D02*
X30320000Y-58930000D01*
X30320000Y-58930000D02*
X30320000Y-57830000D01*
X36861000Y-41691000D02*
X37561000Y-41691000D01*
X37561000Y-42891000D02*
X36861000Y-42891000D01*
X36861000Y-42707000D02*
X37561000Y-42707000D01*
X37561000Y-43907000D02*
X36861000Y-43907000D01*
X57750000Y-47390000D02*
X57750000Y-48090000D01*
X56550000Y-48090000D02*
X56550000Y-47390000D01*
X33114500Y-48739500D02*
X33814500Y-48739500D01*
X33814500Y-49939500D02*
X33114500Y-49939500D01*
X30578500Y-35910000D02*
X30578500Y-35210000D01*
X31778500Y-35210000D02*
X31778500Y-35910000D01*
X39632000Y-45230500D02*
X40632000Y-45230500D01*
X40632000Y-46590500D02*
X39632000Y-46590500D01*
X39644000Y-46818000D02*
X40644000Y-46818000D01*
X40644000Y-48178000D02*
X39644000Y-48178000D01*
D13*
X60833000Y-32004000D02*
X60833000Y-30861000D01*
X60833000Y-30861000D02*
X59563000Y-30861000D01*
X32055000Y-42875000D02*
X32055000Y-42475000D01*
X32055000Y-42875000D02*
X32455000Y-42875000D01*
X35255000Y-42875000D02*
X35255000Y-42475000D01*
X35255000Y-42875000D02*
X34855000Y-42875000D01*
X35255000Y-39675000D02*
X35255000Y-40075000D01*
X35255000Y-39675000D02*
X34855000Y-39675000D01*
X32055000Y-39675000D02*
X32455000Y-39675000D01*
X31955000Y-37260000D02*
X33355000Y-37260000D01*
X31955000Y-35860000D02*
X31955000Y-37260000D01*
D14*
X69482000Y-34163000D02*
X69482000Y-36763000D01*
X69482000Y-36763000D02*
X73012000Y-36763000D01*
X73012000Y-36763000D02*
X73012000Y-32833000D01*
X73012000Y-32833000D02*
X71247000Y-32833000D01*
X71247000Y-32833000D02*
X71247000Y-34163000D01*
X71247000Y-34163000D02*
X69482000Y-34163000D01*
X69482000Y-33528000D02*
X69482000Y-32833000D01*
X69482000Y-32833000D02*
X70612000Y-32833000D01*
D15*
G36*
X63012056Y-48852728D02*
X63064342Y-48750515D01*
X63144300Y-48603793D01*
X63245761Y-48423874D01*
X63362557Y-48222073D01*
X63364803Y-48218241D01*
X63480861Y-48016062D01*
X63580160Y-47835107D01*
X63656833Y-47686738D01*
X63705012Y-47582318D01*
X63718831Y-47533211D01*
X63718703Y-47532836D01*
X63689029Y-47483341D01*
X63622532Y-47385715D01*
X63529256Y-47254369D01*
X63426077Y-47112958D01*
X63152351Y-46742337D01*
X63368243Y-46579337D01*
X63476740Y-46500320D01*
X63557938Y-46446636D01*
X63595109Y-46429304D01*
X63595549Y-46429630D01*
X63621730Y-46465185D01*
X63682679Y-46549769D01*
X63767859Y-46668730D01*
X63822559Y-46745380D01*
X63932814Y-46893355D01*
X64009245Y-46979062D01*
X64057186Y-47007866D01*
X64075035Y-46999380D01*
X64105484Y-46951774D01*
X64168479Y-46847841D01*
X64257312Y-46698836D01*
X64365277Y-46516014D01*
X64485668Y-46310629D01*
X64497610Y-46290177D01*
X64883304Y-45629432D01*
X66448345Y-45655008D01*
X66806054Y-45660720D01*
X67152313Y-45665996D01*
X67476325Y-45670691D01*
X67767291Y-45674657D01*
X68014413Y-45677750D01*
X68206894Y-45679822D01*
X68333936Y-45680726D01*
X68348744Y-45680754D01*
X68684102Y-45680923D01*
X69628513Y-47315606D01*
X69816736Y-47642247D01*
X69992321Y-47948594D01*
X70151498Y-48227950D01*
X70290496Y-48473621D01*
X70405544Y-48678912D01*
X70492874Y-48837129D01*
X70548713Y-48941576D01*
X70569293Y-48985559D01*
X70569322Y-48986144D01*
X70549270Y-49026025D01*
X70493204Y-49126374D01*
X70405029Y-49280465D01*
X70288652Y-49481576D01*
X70147977Y-49722984D01*
X69986910Y-49997965D01*
X69809357Y-50299796D01*
X69621707Y-50617551D01*
X68677693Y-52213103D01*
X66899693Y-52208123D01*
X66529402Y-52206472D01*
X66359922Y-52205147D01*
X66359922Y-51536389D01*
X66679792Y-51534971D01*
X66939582Y-51533197D01*
X68316836Y-51522923D01*
X68969434Y-50409230D01*
X69622031Y-49295538D01*
X68252997Y-49285260D01*
X67869751Y-49283003D01*
X67558195Y-49282675D01*
X67311884Y-49284453D01*
X67124374Y-49288516D01*
X66989221Y-49295041D01*
X66899979Y-49304207D01*
X66850205Y-49316191D01*
X66837036Y-49324337D01*
X66827685Y-49338279D01*
X66827685Y-48611692D01*
X68214149Y-48611692D01*
X68533727Y-48610899D01*
X68826444Y-48608643D01*
X69083648Y-48605109D01*
X69296692Y-48600482D01*
X69456923Y-48594947D01*
X69555693Y-48588689D01*
X69584810Y-48582384D01*
X69562120Y-48542580D01*
X69505120Y-48443324D01*
X69418556Y-48292859D01*
X69307172Y-48099427D01*
X69175716Y-47871271D01*
X69028932Y-47616634D01*
X68935918Y-47455331D01*
X68302828Y-46357586D01*
X66990463Y-46330462D01*
X66678492Y-46324343D01*
X66392375Y-46319361D01*
X66141241Y-46315626D01*
X65934215Y-46313250D01*
X65780426Y-46312340D01*
X65689001Y-46313007D01*
X65666889Y-46314546D01*
X65681350Y-46350682D01*
X65727559Y-46448059D01*
X65801429Y-46598470D01*
X65898870Y-46793702D01*
X66015795Y-47025547D01*
X66148113Y-47285794D01*
X66241683Y-47468723D01*
X66827685Y-48611692D01*
X66827685Y-49338279D01*
X66807552Y-49368297D01*
X66745291Y-49469975D01*
X66656156Y-49619181D01*
X66546052Y-49805723D01*
X66420884Y-50019409D01*
X66286554Y-50250049D01*
X66148967Y-50487450D01*
X66014027Y-50721421D01*
X65887639Y-50941772D01*
X65775705Y-51138310D01*
X65684131Y-51300844D01*
X65618820Y-51419183D01*
X65585677Y-51483135D01*
X65583665Y-51487868D01*
X65587068Y-51502708D01*
X65614577Y-51514520D01*
X65673227Y-51523539D01*
X65770052Y-51530001D01*
X65912087Y-51534139D01*
X66106366Y-51536190D01*
X66359922Y-51536389D01*
X66359922Y-52205147D01*
X66179291Y-52203734D01*
X65857920Y-52200060D01*
X65573854Y-52195601D01*
X65335653Y-52190509D01*
X65151881Y-52184935D01*
X65031100Y-52179029D01*
X65022335Y-52178112D01*
X65022335Y-51073242D01*
X65047632Y-51040726D01*
X65105370Y-50950061D01*
X65189774Y-50811269D01*
X65295069Y-50634375D01*
X65415481Y-50429403D01*
X65545236Y-50206377D01*
X65678558Y-49975320D01*
X65809674Y-49746256D01*
X65932809Y-49529209D01*
X66042188Y-49334203D01*
X66132038Y-49171262D01*
X66196582Y-49050409D01*
X66230048Y-48981669D01*
X66233443Y-48970908D01*
X66216722Y-48924833D01*
X66168391Y-48817946D01*
X66092659Y-48658896D01*
X65993731Y-48456334D01*
X65875815Y-48218911D01*
X65743118Y-47955277D01*
X65659000Y-47789770D01*
X65519304Y-47517035D01*
X65390628Y-47268021D01*
X65277295Y-47050921D01*
X65183628Y-46873929D01*
X65113951Y-46745238D01*
X65072586Y-46673044D01*
X65063077Y-46660247D01*
X65037660Y-46692397D01*
X64980940Y-46780473D01*
X64900313Y-46912502D01*
X64803178Y-47076512D01*
X64759594Y-47151436D01*
X64475649Y-47642101D01*
X64621071Y-47843589D01*
X64715799Y-47974272D01*
X64807305Y-48099599D01*
X64857516Y-48167760D01*
X64948538Y-48290444D01*
X64751875Y-48434808D01*
X64643450Y-48508378D01*
X64557793Y-48555579D01*
X64517818Y-48566125D01*
X64476569Y-48529979D01*
X64405963Y-48448601D01*
X64329928Y-48351001D01*
X64179432Y-48148925D01*
X63977575Y-48494271D01*
X63891971Y-48642193D01*
X63822100Y-48765689D01*
X63776916Y-48848770D01*
X63764859Y-48874036D01*
X63781010Y-48914263D01*
X63830971Y-49011747D01*
X63909126Y-49156663D01*
X64009856Y-49339187D01*
X64127544Y-49549494D01*
X64256574Y-49777762D01*
X64391327Y-50014165D01*
X64526187Y-50248879D01*
X64655537Y-50472081D01*
X64773758Y-50673947D01*
X64875234Y-50844652D01*
X64954348Y-50974372D01*
X65005482Y-51053283D01*
X65022335Y-51073242D01*
X65022335Y-52178112D01*
X64986387Y-52174346D01*
X64953743Y-52165412D01*
X64921525Y-52149280D01*
X64885963Y-52120171D01*
X64843286Y-52072304D01*
X64789725Y-51999902D01*
X64721507Y-51897184D01*
X64634863Y-51758371D01*
X64526022Y-51577684D01*
X64391214Y-51349344D01*
X64226667Y-51067572D01*
X64028612Y-50726588D01*
X63923150Y-50544697D01*
X63736178Y-50221275D01*
X63561736Y-49917861D01*
X63403669Y-49641267D01*
X63265826Y-49398301D01*
X63152052Y-49195773D01*
X63066194Y-49040493D01*
X63012098Y-48939271D01*
X62993610Y-48899118D01*
X63012056Y-48852728D01*
X63012056Y-48852728D01*
G37*
X63012056Y-48852728D02*
X63064342Y-48750515D01*
X63144300Y-48603793D01*
X63245761Y-48423874D01*
X63362557Y-48222073D01*
X63364803Y-48218241D01*
X63480861Y-48016062D01*
X63580160Y-47835107D01*
X63656833Y-47686738D01*
X63705012Y-47582318D01*
X63718831Y-47533211D01*
X63718703Y-47532836D01*
X63689029Y-47483341D01*
X63622532Y-47385715D01*
X63529256Y-47254369D01*
X63426077Y-47112958D01*
X63152351Y-46742337D01*
X63368243Y-46579337D01*
X63476740Y-46500320D01*
X63557938Y-46446636D01*
X63595109Y-46429304D01*
X63595549Y-46429630D01*
X63621730Y-46465185D01*
X63682679Y-46549769D01*
X63767859Y-46668730D01*
X63822559Y-46745380D01*
X63932814Y-46893355D01*
X64009245Y-46979062D01*
X64057186Y-47007866D01*
X64075035Y-46999380D01*
X64105484Y-46951774D01*
X64168479Y-46847841D01*
X64257312Y-46698836D01*
X64365277Y-46516014D01*
X64485668Y-46310629D01*
X64497610Y-46290177D01*
X64883304Y-45629432D01*
X66448345Y-45655008D01*
X66806054Y-45660720D01*
X67152313Y-45665996D01*
X67476325Y-45670691D01*
X67767291Y-45674657D01*
X68014413Y-45677750D01*
X68206894Y-45679822D01*
X68333936Y-45680726D01*
X68348744Y-45680754D01*
X68684102Y-45680923D01*
X69628513Y-47315606D01*
X69816736Y-47642247D01*
X69992321Y-47948594D01*
X70151498Y-48227950D01*
X70290496Y-48473621D01*
X70405544Y-48678912D01*
X70492874Y-48837129D01*
X70548713Y-48941576D01*
X70569293Y-48985559D01*
X70569322Y-48986144D01*
X70549270Y-49026025D01*
X70493204Y-49126374D01*
X70405029Y-49280465D01*
X70288652Y-49481576D01*
X70147977Y-49722984D01*
X69986910Y-49997965D01*
X69809357Y-50299796D01*
X69621707Y-50617551D01*
X68677693Y-52213103D01*
X66899693Y-52208123D01*
X66529402Y-52206472D01*
X66359922Y-52205147D01*
X66359922Y-51536389D01*
X66679792Y-51534971D01*
X66939582Y-51533197D01*
X68316836Y-51522923D01*
X68969434Y-50409230D01*
X69622031Y-49295538D01*
X68252997Y-49285260D01*
X67869751Y-49283003D01*
X67558195Y-49282675D01*
X67311884Y-49284453D01*
X67124374Y-49288516D01*
X66989221Y-49295041D01*
X66899979Y-49304207D01*
X66850205Y-49316191D01*
X66837036Y-49324337D01*
X66827685Y-49338279D01*
X66827685Y-48611692D01*
X68214149Y-48611692D01*
X68533727Y-48610899D01*
X68826444Y-48608643D01*
X69083648Y-48605109D01*
X69296692Y-48600482D01*
X69456923Y-48594947D01*
X69555693Y-48588689D01*
X69584810Y-48582384D01*
X69562120Y-48542580D01*
X69505120Y-48443324D01*
X69418556Y-48292859D01*
X69307172Y-48099427D01*
X69175716Y-47871271D01*
X69028932Y-47616634D01*
X68935918Y-47455331D01*
X68302828Y-46357586D01*
X66990463Y-46330462D01*
X66678492Y-46324343D01*
X66392375Y-46319361D01*
X66141241Y-46315626D01*
X65934215Y-46313250D01*
X65780426Y-46312340D01*
X65689001Y-46313007D01*
X65666889Y-46314546D01*
X65681350Y-46350682D01*
X65727559Y-46448059D01*
X65801429Y-46598470D01*
X65898870Y-46793702D01*
X66015795Y-47025547D01*
X66148113Y-47285794D01*
X66241683Y-47468723D01*
X66827685Y-48611692D01*
X66827685Y-49338279D01*
X66807552Y-49368297D01*
X66745291Y-49469975D01*
X66656156Y-49619181D01*
X66546052Y-49805723D01*
X66420884Y-50019409D01*
X66286554Y-50250049D01*
X66148967Y-50487450D01*
X66014027Y-50721421D01*
X65887639Y-50941772D01*
X65775705Y-51138310D01*
X65684131Y-51300844D01*
X65618820Y-51419183D01*
X65585677Y-51483135D01*
X65583665Y-51487868D01*
X65587068Y-51502708D01*
X65614577Y-51514520D01*
X65673227Y-51523539D01*
X65770052Y-51530001D01*
X65912087Y-51534139D01*
X66106366Y-51536190D01*
X66359922Y-51536389D01*
X66359922Y-52205147D01*
X66179291Y-52203734D01*
X65857920Y-52200060D01*
X65573854Y-52195601D01*
X65335653Y-52190509D01*
X65151881Y-52184935D01*
X65031100Y-52179029D01*
X65022335Y-52178112D01*
X65022335Y-51073242D01*
X65047632Y-51040726D01*
X65105370Y-50950061D01*
X65189774Y-50811269D01*
X65295069Y-50634375D01*
X65415481Y-50429403D01*
X65545236Y-50206377D01*
X65678558Y-49975320D01*
X65809674Y-49746256D01*
X65932809Y-49529209D01*
X66042188Y-49334203D01*
X66132038Y-49171262D01*
X66196582Y-49050409D01*
X66230048Y-48981669D01*
X66233443Y-48970908D01*
X66216722Y-48924833D01*
X66168391Y-48817946D01*
X66092659Y-48658896D01*
X65993731Y-48456334D01*
X65875815Y-48218911D01*
X65743118Y-47955277D01*
X65659000Y-47789770D01*
X65519304Y-47517035D01*
X65390628Y-47268021D01*
X65277295Y-47050921D01*
X65183628Y-46873929D01*
X65113951Y-46745238D01*
X65072586Y-46673044D01*
X65063077Y-46660247D01*
X65037660Y-46692397D01*
X64980940Y-46780473D01*
X64900313Y-46912502D01*
X64803178Y-47076512D01*
X64759594Y-47151436D01*
X64475649Y-47642101D01*
X64621071Y-47843589D01*
X64715799Y-47974272D01*
X64807305Y-48099599D01*
X64857516Y-48167760D01*
X64948538Y-48290444D01*
X64751875Y-48434808D01*
X64643450Y-48508378D01*
X64557793Y-48555579D01*
X64517818Y-48566125D01*
X64476569Y-48529979D01*
X64405963Y-48448601D01*
X64329928Y-48351001D01*
X64179432Y-48148925D01*
X63977575Y-48494271D01*
X63891971Y-48642193D01*
X63822100Y-48765689D01*
X63776916Y-48848770D01*
X63764859Y-48874036D01*
X63781010Y-48914263D01*
X63830971Y-49011747D01*
X63909126Y-49156663D01*
X64009856Y-49339187D01*
X64127544Y-49549494D01*
X64256574Y-49777762D01*
X64391327Y-50014165D01*
X64526187Y-50248879D01*
X64655537Y-50472081D01*
X64773758Y-50673947D01*
X64875234Y-50844652D01*
X64954348Y-50974372D01*
X65005482Y-51053283D01*
X65022335Y-51073242D01*
X65022335Y-52178112D01*
X64986387Y-52174346D01*
X64953743Y-52165412D01*
X64921525Y-52149280D01*
X64885963Y-52120171D01*
X64843286Y-52072304D01*
X64789725Y-51999902D01*
X64721507Y-51897184D01*
X64634863Y-51758371D01*
X64526022Y-51577684D01*
X64391214Y-51349344D01*
X64226667Y-51067572D01*
X64028612Y-50726588D01*
X63923150Y-50544697D01*
X63736178Y-50221275D01*
X63561736Y-49917861D01*
X63403669Y-49641267D01*
X63265826Y-49398301D01*
X63152052Y-49195773D01*
X63066194Y-49040493D01*
X63012098Y-48939271D01*
X62993610Y-48899118D01*
X63012056Y-48852728D01*
G36*
X62632419Y-45442769D02*
X62708503Y-45393112D01*
X62718462Y-45387846D01*
X62797689Y-45340502D01*
X62835224Y-45305531D01*
X62835693Y-45303132D01*
X62825283Y-45256396D01*
X62797854Y-45155709D01*
X62759101Y-45021896D01*
X62754769Y-45007316D01*
X62717519Y-44872797D01*
X62694433Y-44770390D01*
X62689950Y-44720137D01*
X62690835Y-44718601D01*
X62720688Y-44739626D01*
X62790028Y-44805755D01*
X62886408Y-44903691D01*
X62997383Y-45020135D01*
X63110505Y-45141788D01*
X63213328Y-45255352D01*
X63293405Y-45347530D01*
X63338290Y-45405021D01*
X63343693Y-45416138D01*
X63312865Y-45444326D01*
X63236432Y-45491624D01*
X63212913Y-45504584D01*
X63082133Y-45575014D01*
X63173059Y-45869719D01*
X63214052Y-46009446D01*
X63241669Y-46117178D01*
X63251209Y-46174103D01*
X63250193Y-46178217D01*
X63219663Y-46157896D01*
X63150011Y-46092170D01*
X63053657Y-45994387D01*
X62943018Y-45877892D01*
X62830514Y-45756031D01*
X62728564Y-45642150D01*
X62649586Y-45549596D01*
X62606000Y-45491715D01*
X62601231Y-45480798D01*
X62632419Y-45442769D01*
X62632419Y-45442769D01*
G37*
X62632419Y-45442769D02*
X62708503Y-45393112D01*
X62718462Y-45387846D01*
X62797689Y-45340502D01*
X62835224Y-45305531D01*
X62835693Y-45303132D01*
X62825283Y-45256396D01*
X62797854Y-45155709D01*
X62759101Y-45021896D01*
X62754769Y-45007316D01*
X62717519Y-44872797D01*
X62694433Y-44770390D01*
X62689950Y-44720137D01*
X62690835Y-44718601D01*
X62720688Y-44739626D01*
X62790028Y-44805755D01*
X62886408Y-44903691D01*
X62997383Y-45020135D01*
X63110505Y-45141788D01*
X63213328Y-45255352D01*
X63293405Y-45347530D01*
X63338290Y-45405021D01*
X63343693Y-45416138D01*
X63312865Y-45444326D01*
X63236432Y-45491624D01*
X63212913Y-45504584D01*
X63082133Y-45575014D01*
X63173059Y-45869719D01*
X63214052Y-46009446D01*
X63241669Y-46117178D01*
X63251209Y-46174103D01*
X63250193Y-46178217D01*
X63219663Y-46157896D01*
X63150011Y-46092170D01*
X63053657Y-45994387D01*
X62943018Y-45877892D01*
X62830514Y-45756031D01*
X62728564Y-45642150D01*
X62649586Y-45549596D01*
X62606000Y-45491715D01*
X62601231Y-45480798D01*
X62632419Y-45442769D01*
G36*
X68169213Y-50665767D02*
X68266781Y-50565138D01*
X68319247Y-50493717D01*
X68337387Y-50426075D01*
X68331974Y-50336777D01*
X68326386Y-50294802D01*
X68313712Y-50181676D01*
X68321833Y-50123330D01*
X68358910Y-50097419D01*
X68402124Y-50087439D01*
X68474620Y-50080369D01*
X68518437Y-50103928D01*
X68544253Y-50173432D01*
X68562743Y-50304196D01*
X68564508Y-50320376D01*
X68567921Y-50466601D01*
X68535549Y-50577797D01*
X68508944Y-50624153D01*
X68432893Y-50724142D01*
X68331177Y-50836912D01*
X68291189Y-50876551D01*
X68149120Y-51011718D01*
X68067656Y-50930253D01*
X67986191Y-50848789D01*
X68169213Y-50665767D01*
X68169213Y-50665767D01*
G37*
X68169213Y-50665767D02*
X68266781Y-50565138D01*
X68319247Y-50493717D01*
X68337387Y-50426075D01*
X68331974Y-50336777D01*
X68326386Y-50294802D01*
X68313712Y-50181676D01*
X68321833Y-50123330D01*
X68358910Y-50097419D01*
X68402124Y-50087439D01*
X68474620Y-50080369D01*
X68518437Y-50103928D01*
X68544253Y-50173432D01*
X68562743Y-50304196D01*
X68564508Y-50320376D01*
X68567921Y-50466601D01*
X68535549Y-50577797D01*
X68508944Y-50624153D01*
X68432893Y-50724142D01*
X68331177Y-50836912D01*
X68291189Y-50876551D01*
X68149120Y-51011718D01*
X68067656Y-50930253D01*
X67986191Y-50848789D01*
X68169213Y-50665767D01*
G36*
X66975128Y-49963121D02*
X67038455Y-49933357D01*
X67157063Y-49912323D01*
X67308522Y-49900430D01*
X67470404Y-49898092D01*
X67620279Y-49905720D01*
X67735717Y-49923728D01*
X67790647Y-49948123D01*
X67835065Y-50032702D01*
X67801998Y-50114400D01*
X67782859Y-50132426D01*
X67709603Y-50156112D01*
X67565581Y-50167550D01*
X67366921Y-50166518D01*
X67185933Y-50157924D01*
X67068238Y-50143861D01*
X66999020Y-50121515D01*
X66964713Y-50090121D01*
X66946964Y-50013136D01*
X66975128Y-49963121D01*
X66975128Y-49963121D01*
G37*
X66975128Y-49963121D02*
X67038455Y-49933357D01*
X67157063Y-49912323D01*
X67308522Y-49900430D01*
X67470404Y-49898092D01*
X67620279Y-49905720D01*
X67735717Y-49923728D01*
X67790647Y-49948123D01*
X67835065Y-50032702D01*
X67801998Y-50114400D01*
X67782859Y-50132426D01*
X67709603Y-50156112D01*
X67565581Y-50167550D01*
X67366921Y-50166518D01*
X67185933Y-50157924D01*
X67068238Y-50143861D01*
X66999020Y-50121515D01*
X66964713Y-50090121D01*
X66946964Y-50013136D01*
X66975128Y-49963121D01*
G36*
X66364709Y-50863926D02*
X66414169Y-50831956D01*
X66520881Y-50809429D01*
X66664561Y-50796397D01*
X66824929Y-50792909D01*
X66981701Y-50799014D01*
X67114597Y-50814763D01*
X67203333Y-50840205D01*
X67227666Y-50861811D01*
X67248866Y-50951421D01*
X67216309Y-51007430D01*
X67172965Y-51034604D01*
X67097482Y-51053082D01*
X66966819Y-51064259D01*
X66803745Y-51066454D01*
X66757017Y-51065286D01*
X66558380Y-51051401D01*
X66429693Y-51022980D01*
X66363488Y-50976190D01*
X66352296Y-50907198D01*
X66364709Y-50863926D01*
X66364709Y-50863926D01*
G37*
X66364709Y-50863926D02*
X66414169Y-50831956D01*
X66520881Y-50809429D01*
X66664561Y-50796397D01*
X66824929Y-50792909D01*
X66981701Y-50799014D01*
X67114597Y-50814763D01*
X67203333Y-50840205D01*
X67227666Y-50861811D01*
X67248866Y-50951421D01*
X67216309Y-51007430D01*
X67172965Y-51034604D01*
X67097482Y-51053082D01*
X66966819Y-51064259D01*
X66803745Y-51066454D01*
X66757017Y-51065286D01*
X66558380Y-51051401D01*
X66429693Y-51022980D01*
X66363488Y-50976190D01*
X66352296Y-50907198D01*
X66364709Y-50863926D01*
D14*
X40800500Y-40140000D02*
X40800500Y-41140000D01*
X40800500Y-41140000D02*
X42900500Y-41140000D01*
X40800500Y-40140000D02*
X42900500Y-40140000D01*
X40826000Y-38616000D02*
X40826000Y-39616000D01*
X40826000Y-39616000D02*
X42926000Y-39616000D01*
X40826000Y-38616000D02*
X42926000Y-38616000D01*
X38870000Y-39960000D02*
X39870000Y-39960000D01*
X39870000Y-41320000D02*
X38870000Y-41320000D01*
X38870000Y-38436000D02*
X39870000Y-38436000D01*
X39870000Y-39796000D02*
X38870000Y-39796000D01*
D13*
X51552381Y-58961905D02*
X52361905Y-58961905D01*
X52457143Y-58914286D01*
X52504762Y-58866667D01*
X52552381Y-58771429D01*
X52552381Y-58580952D01*
X52504762Y-58485714D01*
X52457143Y-58438095D01*
X52361905Y-58390476D01*
X51552381Y-58390476D01*
X52552381Y-57390476D02*
X52552381Y-57961905D01*
X52552381Y-57676191D02*
X51552381Y-57676191D01*
X51695238Y-57771429D01*
X51790476Y-57866667D01*
X51838095Y-57961905D01*
X33051905Y-43457881D02*
X33051905Y-44267405D01*
X33099524Y-44362643D01*
X33147143Y-44410262D01*
X33242381Y-44457881D01*
X33432858Y-44457881D01*
X33528096Y-44410262D01*
X33575715Y-44362643D01*
X33623334Y-44267405D01*
X33623334Y-43457881D01*
X34623334Y-44457881D02*
X34051905Y-44457881D01*
X34337619Y-44457881D02*
X34337619Y-43457881D01*
X34242381Y-43600738D01*
X34147143Y-43695976D01*
X34051905Y-43743595D01*
X35575715Y-44457881D02*
X35004286Y-44457881D01*
X35290000Y-44457881D02*
X35290000Y-43457881D01*
X35194762Y-43600738D01*
X35099524Y-43695976D01*
X35004286Y-43743595D01*
X44561905Y-51652381D02*
X44561905Y-50652381D01*
X44942858Y-50652381D01*
X45038096Y-50700000D01*
X45085715Y-50747619D01*
X45133334Y-50842857D01*
X45133334Y-50985714D01*
X45085715Y-51080952D01*
X45038096Y-51128571D01*
X44942858Y-51176190D01*
X44561905Y-51176190D01*
X45466667Y-50652381D02*
X46085715Y-50652381D01*
X45752381Y-51033333D01*
X45895239Y-51033333D01*
X45990477Y-51080952D01*
X46038096Y-51128571D01*
X46085715Y-51223810D01*
X46085715Y-51461905D01*
X46038096Y-51557143D01*
X45990477Y-51604762D01*
X45895239Y-51652381D01*
X45609524Y-51652381D01*
X45514286Y-51604762D01*
X45466667Y-51557143D01*
X42583334Y-65257143D02*
X42535715Y-65304762D01*
X42392858Y-65352381D01*
X42297620Y-65352381D01*
X42154762Y-65304762D01*
X42059524Y-65209524D01*
X42011905Y-65114286D01*
X41964286Y-64923810D01*
X41964286Y-64780952D01*
X42011905Y-64590476D01*
X42059524Y-64495238D01*
X42154762Y-64400000D01*
X42297620Y-64352381D01*
X42392858Y-64352381D01*
X42535715Y-64400000D01*
X42583334Y-64447619D01*
X43535715Y-65352381D02*
X42964286Y-65352381D01*
X43250000Y-65352381D02*
X43250000Y-64352381D01*
X43154762Y-64495238D01*
X43059524Y-64590476D01*
X42964286Y-64638095D01*
X45233334Y-57057143D02*
X45185715Y-57104762D01*
X45042858Y-57152381D01*
X44947620Y-57152381D01*
X44804762Y-57104762D01*
X44709524Y-57009524D01*
X44661905Y-56914286D01*
X44614286Y-56723810D01*
X44614286Y-56580952D01*
X44661905Y-56390476D01*
X44709524Y-56295238D01*
X44804762Y-56200000D01*
X44947620Y-56152381D01*
X45042858Y-56152381D01*
X45185715Y-56200000D01*
X45233334Y-56247619D01*
X45614286Y-56247619D02*
X45661905Y-56200000D01*
X45757143Y-56152381D01*
X45995239Y-56152381D01*
X46090477Y-56200000D01*
X46138096Y-56247619D01*
X46185715Y-56342857D01*
X46185715Y-56438095D01*
X46138096Y-56580952D01*
X45566667Y-57152381D01*
X46185715Y-57152381D01*
X44657143Y-58366666D02*
X44704762Y-58414285D01*
X44752381Y-58557142D01*
X44752381Y-58652380D01*
X44704762Y-58795238D01*
X44609524Y-58890476D01*
X44514286Y-58938095D01*
X44323810Y-58985714D01*
X44180952Y-58985714D01*
X43990476Y-58938095D01*
X43895238Y-58890476D01*
X43800000Y-58795238D01*
X43752381Y-58652380D01*
X43752381Y-58557142D01*
X43800000Y-58414285D01*
X43847619Y-58366666D01*
X43752381Y-58033333D02*
X43752381Y-57414285D01*
X44133333Y-57747619D01*
X44133333Y-57604761D01*
X44180952Y-57509523D01*
X44228571Y-57461904D01*
X44323810Y-57414285D01*
X44561905Y-57414285D01*
X44657143Y-57461904D01*
X44704762Y-57509523D01*
X44752381Y-57604761D01*
X44752381Y-57890476D01*
X44704762Y-57985714D01*
X44657143Y-58033333D01*
X34383334Y-59557143D02*
X34335715Y-59604762D01*
X34192858Y-59652381D01*
X34097620Y-59652381D01*
X33954762Y-59604762D01*
X33859524Y-59509524D01*
X33811905Y-59414286D01*
X33764286Y-59223810D01*
X33764286Y-59080952D01*
X33811905Y-58890476D01*
X33859524Y-58795238D01*
X33954762Y-58700000D01*
X34097620Y-58652381D01*
X34192858Y-58652381D01*
X34335715Y-58700000D01*
X34383334Y-58747619D01*
X35240477Y-58985714D02*
X35240477Y-59652381D01*
X35002381Y-58604762D02*
X34764286Y-59319048D01*
X35383334Y-59319048D01*
X32283334Y-59557143D02*
X32235715Y-59604762D01*
X32092858Y-59652381D01*
X31997620Y-59652381D01*
X31854762Y-59604762D01*
X31759524Y-59509524D01*
X31711905Y-59414286D01*
X31664286Y-59223810D01*
X31664286Y-59080952D01*
X31711905Y-58890476D01*
X31759524Y-58795238D01*
X31854762Y-58700000D01*
X31997620Y-58652381D01*
X32092858Y-58652381D01*
X32235715Y-58700000D01*
X32283334Y-58747619D01*
X33188096Y-58652381D02*
X32711905Y-58652381D01*
X32664286Y-59128571D01*
X32711905Y-59080952D01*
X32807143Y-59033333D01*
X33045239Y-59033333D01*
X33140477Y-59080952D01*
X33188096Y-59128571D01*
X33235715Y-59223810D01*
X33235715Y-59461905D01*
X33188096Y-59557143D01*
X33140477Y-59604762D01*
X33045239Y-59652381D01*
X32807143Y-59652381D01*
X32711905Y-59604762D01*
X32664286Y-59557143D01*
X59205834Y-54268643D02*
X59158215Y-54316262D01*
X59015358Y-54363881D01*
X58920120Y-54363881D01*
X58777262Y-54316262D01*
X58682024Y-54221024D01*
X58634405Y-54125786D01*
X58586786Y-53935310D01*
X58586786Y-53792452D01*
X58634405Y-53601976D01*
X58682024Y-53506738D01*
X58777262Y-53411500D01*
X58920120Y-53363881D01*
X59015358Y-53363881D01*
X59158215Y-53411500D01*
X59205834Y-53459119D01*
X59777262Y-53792452D02*
X59682024Y-53744833D01*
X59634405Y-53697214D01*
X59586786Y-53601976D01*
X59586786Y-53554357D01*
X59634405Y-53459119D01*
X59682024Y-53411500D01*
X59777262Y-53363881D01*
X59967739Y-53363881D01*
X60062977Y-53411500D01*
X60110596Y-53459119D01*
X60158215Y-53554357D01*
X60158215Y-53601976D01*
X60110596Y-53697214D01*
X60062977Y-53744833D01*
X59967739Y-53792452D01*
X59777262Y-53792452D01*
X59682024Y-53840071D01*
X59634405Y-53887690D01*
X59586786Y-53982929D01*
X59586786Y-54173405D01*
X59634405Y-54268643D01*
X59682024Y-54316262D01*
X59777262Y-54363881D01*
X59967739Y-54363881D01*
X60062977Y-54316262D01*
X60110596Y-54268643D01*
X60158215Y-54173405D01*
X60158215Y-53982929D01*
X60110596Y-53887690D01*
X60062977Y-53840071D01*
X59967739Y-53792452D01*
X67083334Y-53957143D02*
X67035715Y-54004762D01*
X66892858Y-54052381D01*
X66797620Y-54052381D01*
X66654762Y-54004762D01*
X66559524Y-53909524D01*
X66511905Y-53814286D01*
X66464286Y-53623810D01*
X66464286Y-53480952D01*
X66511905Y-53290476D01*
X66559524Y-53195238D01*
X66654762Y-53100000D01*
X66797620Y-53052381D01*
X66892858Y-53052381D01*
X67035715Y-53100000D01*
X67083334Y-53147619D01*
X67559524Y-54052381D02*
X67750000Y-54052381D01*
X67845239Y-54004762D01*
X67892858Y-53957143D01*
X67988096Y-53814286D01*
X68035715Y-53623810D01*
X68035715Y-53242857D01*
X67988096Y-53147619D01*
X67940477Y-53100000D01*
X67845239Y-53052381D01*
X67654762Y-53052381D01*
X67559524Y-53100000D01*
X67511905Y-53147619D01*
X67464286Y-53242857D01*
X67464286Y-53480952D01*
X67511905Y-53576190D01*
X67559524Y-53623810D01*
X67654762Y-53671429D01*
X67845239Y-53671429D01*
X67940477Y-53623810D01*
X67988096Y-53576190D01*
X68035715Y-53480952D01*
X61807143Y-62357143D02*
X61759524Y-62404762D01*
X61616667Y-62452381D01*
X61521429Y-62452381D01*
X61378571Y-62404762D01*
X61283333Y-62309524D01*
X61235714Y-62214286D01*
X61188095Y-62023810D01*
X61188095Y-61880952D01*
X61235714Y-61690476D01*
X61283333Y-61595238D01*
X61378571Y-61500000D01*
X61521429Y-61452381D01*
X61616667Y-61452381D01*
X61759524Y-61500000D01*
X61807143Y-61547619D01*
X62759524Y-62452381D02*
X62188095Y-62452381D01*
X62473809Y-62452381D02*
X62473809Y-61452381D01*
X62378571Y-61595238D01*
X62283333Y-61690476D01*
X62188095Y-61738095D01*
X63140476Y-61547619D02*
X63188095Y-61500000D01*
X63283333Y-61452381D01*
X63521429Y-61452381D01*
X63616667Y-61500000D01*
X63664286Y-61547619D01*
X63711905Y-61642857D01*
X63711905Y-61738095D01*
X63664286Y-61880952D01*
X63092857Y-62452381D01*
X63711905Y-62452381D01*
X72414087Y-66457911D02*
X71706980Y-65750804D01*
X71875339Y-65582445D01*
X72010026Y-65515101D01*
X72144713Y-65515101D01*
X72245728Y-65548773D01*
X72414087Y-65649788D01*
X72515103Y-65750804D01*
X72616118Y-65919162D01*
X72649789Y-66020178D01*
X72649789Y-66154864D01*
X72582445Y-66289552D01*
X72414087Y-66457911D01*
X73491583Y-65380414D02*
X73087522Y-65784476D01*
X73289552Y-65582445D02*
X72582445Y-64875339D01*
X72616117Y-65043697D01*
X72616117Y-65178384D01*
X72582445Y-65279399D01*
X34161905Y-53552381D02*
X34161905Y-52552381D01*
X34400000Y-52552381D01*
X34542858Y-52600000D01*
X34638096Y-52695238D01*
X34685715Y-52790476D01*
X34733334Y-52980952D01*
X34733334Y-53123810D01*
X34685715Y-53314286D01*
X34638096Y-53409524D01*
X34542858Y-53504762D01*
X34400000Y-53552381D01*
X34161905Y-53552381D01*
X35114286Y-52647619D02*
X35161905Y-52600000D01*
X35257143Y-52552381D01*
X35495239Y-52552381D01*
X35590477Y-52600000D01*
X35638096Y-52647619D01*
X35685715Y-52742857D01*
X35685715Y-52838095D01*
X35638096Y-52980952D01*
X35066667Y-53552381D01*
X35685715Y-53552381D01*
X42628571Y-68483333D02*
X42628571Y-68816667D01*
X43152381Y-68816667D02*
X42152381Y-68816667D01*
X42152381Y-68340476D01*
X43152381Y-67435714D02*
X43152381Y-68007143D01*
X43152381Y-67721429D02*
X42152381Y-67721429D01*
X42295238Y-67816667D01*
X42390476Y-67911905D01*
X42438095Y-68007143D01*
X54157571Y-56911833D02*
X54157571Y-57245167D01*
X54681381Y-57245167D02*
X53681381Y-57245167D01*
X53681381Y-56768976D01*
X53681381Y-56483262D02*
X53681381Y-55864214D01*
X54062333Y-56197548D01*
X54062333Y-56054690D01*
X54109952Y-55959452D01*
X54157571Y-55911833D01*
X54252810Y-55864214D01*
X54490905Y-55864214D01*
X54586143Y-55911833D01*
X54633762Y-55959452D01*
X54681381Y-56054690D01*
X54681381Y-56340405D01*
X54633762Y-56435643D01*
X54586143Y-56483262D01*
X69966667Y-53528571D02*
X69633333Y-53528571D01*
X69633333Y-54052381D02*
X69633333Y-53052381D01*
X70109524Y-53052381D01*
X70919048Y-53385714D02*
X70919048Y-54052381D01*
X70680952Y-53004762D02*
X70442857Y-53719048D01*
X71061905Y-53719048D01*
X65908206Y-68747971D02*
X66615313Y-68040864D01*
X66884688Y-68310238D01*
X66918359Y-68411254D01*
X66918359Y-68478597D01*
X66884688Y-68579612D01*
X66783672Y-68680627D01*
X66682657Y-68714299D01*
X66615314Y-68714299D01*
X66514299Y-68680627D01*
X66244924Y-68411253D01*
X67389764Y-69286719D02*
X66918359Y-69758124D01*
X67490778Y-68848986D02*
X66817343Y-69185704D01*
X67255076Y-69623437D01*
X47633334Y-65402381D02*
X47300000Y-64926190D01*
X47061905Y-65402381D02*
X47061905Y-64402381D01*
X47442858Y-64402381D01*
X47538096Y-64450000D01*
X47585715Y-64497619D01*
X47633334Y-64592857D01*
X47633334Y-64735714D01*
X47585715Y-64830952D01*
X47538096Y-64878571D01*
X47442858Y-64926190D01*
X47061905Y-64926190D01*
X48585715Y-65402381D02*
X48014286Y-65402381D01*
X48300000Y-65402381D02*
X48300000Y-64402381D01*
X48204762Y-64545238D01*
X48109524Y-64640476D01*
X48014286Y-64688095D01*
X46683334Y-62802381D02*
X46350000Y-62326190D01*
X46111905Y-62802381D02*
X46111905Y-61802381D01*
X46492858Y-61802381D01*
X46588096Y-61850000D01*
X46635715Y-61897619D01*
X46683334Y-61992857D01*
X46683334Y-62135714D01*
X46635715Y-62230952D01*
X46588096Y-62278571D01*
X46492858Y-62326190D01*
X46111905Y-62326190D01*
X47064286Y-61897619D02*
X47111905Y-61850000D01*
X47207143Y-61802381D01*
X47445239Y-61802381D01*
X47540477Y-61850000D01*
X47588096Y-61897619D01*
X47635715Y-61992857D01*
X47635715Y-62088095D01*
X47588096Y-62230952D01*
X47016667Y-62802381D01*
X47635715Y-62802381D01*
X49783334Y-64002381D02*
X49450000Y-63526190D01*
X49211905Y-64002381D02*
X49211905Y-63002381D01*
X49592858Y-63002381D01*
X49688096Y-63050000D01*
X49735715Y-63097619D01*
X49783334Y-63192857D01*
X49783334Y-63335714D01*
X49735715Y-63430952D01*
X49688096Y-63478571D01*
X49592858Y-63526190D01*
X49211905Y-63526190D01*
X50116667Y-63002381D02*
X50735715Y-63002381D01*
X50402381Y-63383333D01*
X50545239Y-63383333D01*
X50640477Y-63430952D01*
X50688096Y-63478571D01*
X50735715Y-63573810D01*
X50735715Y-63811905D01*
X50688096Y-63907143D01*
X50640477Y-63954762D01*
X50545239Y-64002381D01*
X50259524Y-64002381D01*
X50164286Y-63954762D01*
X50116667Y-63907143D01*
X46152381Y-58466666D02*
X45676190Y-58800000D01*
X46152381Y-59038095D02*
X45152381Y-59038095D01*
X45152381Y-58657142D01*
X45200000Y-58561904D01*
X45247619Y-58514285D01*
X45342857Y-58466666D01*
X45485714Y-58466666D01*
X45580952Y-58514285D01*
X45628571Y-58561904D01*
X45676190Y-58657142D01*
X45676190Y-59038095D01*
X45152381Y-58133333D02*
X45152381Y-57466666D01*
X46152381Y-57895238D01*
X52133334Y-56652381D02*
X51800000Y-56176190D01*
X51561905Y-56652381D02*
X51561905Y-55652381D01*
X51942858Y-55652381D01*
X52038096Y-55700000D01*
X52085715Y-55747619D01*
X52133334Y-55842857D01*
X52133334Y-55985714D01*
X52085715Y-56080952D01*
X52038096Y-56128571D01*
X51942858Y-56176190D01*
X51561905Y-56176190D01*
X52609524Y-56652381D02*
X52800000Y-56652381D01*
X52895239Y-56604762D01*
X52942858Y-56557143D01*
X53038096Y-56414286D01*
X53085715Y-56223810D01*
X53085715Y-55842857D01*
X53038096Y-55747619D01*
X52990477Y-55700000D01*
X52895239Y-55652381D01*
X52704762Y-55652381D01*
X52609524Y-55700000D01*
X52561905Y-55747619D01*
X52514286Y-55842857D01*
X52514286Y-56080952D01*
X52561905Y-56176190D01*
X52609524Y-56223810D01*
X52704762Y-56271429D01*
X52895239Y-56271429D01*
X52990477Y-56223810D01*
X53038096Y-56176190D01*
X53085715Y-56080952D01*
X70565313Y-68424450D02*
X69992893Y-68323435D01*
X70161252Y-68828512D02*
X69454145Y-68121405D01*
X69723519Y-67852030D01*
X69824535Y-67818359D01*
X69891878Y-67818359D01*
X69992893Y-67852030D01*
X70093908Y-67953045D01*
X70127580Y-68054061D01*
X70127580Y-68121404D01*
X70093908Y-68222419D01*
X69824534Y-68491794D01*
X71238748Y-67751015D02*
X70834687Y-68155076D01*
X71036717Y-67953046D02*
X70329610Y-67245939D01*
X70363282Y-67414298D01*
X70363282Y-67548985D01*
X70329610Y-67650000D01*
X70868359Y-66841878D02*
X70868359Y-66774535D01*
X70902030Y-66673519D01*
X71070390Y-66505160D01*
X71171405Y-66471488D01*
X71238748Y-66471488D01*
X71339763Y-66505160D01*
X71407107Y-66572504D01*
X71474450Y-66707190D01*
X71474450Y-67515313D01*
X71912183Y-67077580D01*
X37057143Y-53602381D02*
X36723809Y-53126190D01*
X36485714Y-53602381D02*
X36485714Y-52602381D01*
X36866667Y-52602381D01*
X36961905Y-52650000D01*
X37009524Y-52697619D01*
X37057143Y-52792857D01*
X37057143Y-52935714D01*
X37009524Y-53030952D01*
X36961905Y-53078571D01*
X36866667Y-53126190D01*
X36485714Y-53126190D01*
X38009524Y-53602381D02*
X37438095Y-53602381D01*
X37723809Y-53602381D02*
X37723809Y-52602381D01*
X37628571Y-52745238D01*
X37533333Y-52840476D01*
X37438095Y-52888095D01*
X38342857Y-52602381D02*
X38961905Y-52602381D01*
X38628571Y-52983333D01*
X38771429Y-52983333D01*
X38866667Y-53030952D01*
X38914286Y-53078571D01*
X38961905Y-53173810D01*
X38961905Y-53411905D01*
X38914286Y-53507143D01*
X38866667Y-53554762D01*
X38771429Y-53602381D01*
X38485714Y-53602381D01*
X38390476Y-53554762D01*
X38342857Y-53507143D01*
X65465313Y-62324450D02*
X64892893Y-62223435D01*
X65061252Y-62728512D02*
X64354145Y-62021405D01*
X64623519Y-61752030D01*
X64724535Y-61718359D01*
X64791878Y-61718359D01*
X64892893Y-61752030D01*
X64993908Y-61853045D01*
X65027580Y-61954061D01*
X65027580Y-62021404D01*
X64993908Y-62122419D01*
X64724534Y-62391794D01*
X65094924Y-61415313D02*
X65094924Y-61347970D01*
X65128595Y-61246955D01*
X65296955Y-61078595D01*
X65397970Y-61044924D01*
X65465313Y-61044924D01*
X65566328Y-61078595D01*
X65633672Y-61145939D01*
X65701015Y-61280626D01*
X65701015Y-62088748D01*
X66138748Y-61651015D01*
X65869374Y-60506176D02*
X65936718Y-60438832D01*
X66037733Y-60405160D01*
X66105076Y-60405160D01*
X66206092Y-60438832D01*
X66374450Y-60539847D01*
X66542810Y-60708206D01*
X66643825Y-60876565D01*
X66677496Y-60977580D01*
X66677496Y-61044924D01*
X66643825Y-61145939D01*
X66576481Y-61213283D01*
X66475465Y-61246955D01*
X66408122Y-61246955D01*
X66307107Y-61213283D01*
X66138748Y-61112268D01*
X65970389Y-60943908D01*
X65869374Y-60775550D01*
X65835702Y-60674535D01*
X65835702Y-60607191D01*
X65869374Y-60506176D01*
X66515313Y-63374450D02*
X65942893Y-63273435D01*
X66111252Y-63778512D02*
X65404145Y-63071405D01*
X65673519Y-62802030D01*
X65774535Y-62768359D01*
X65841878Y-62768359D01*
X65942893Y-62802030D01*
X66043908Y-62903045D01*
X66077580Y-63004061D01*
X66077580Y-63071404D01*
X66043908Y-63172419D01*
X65774534Y-63441794D01*
X66144924Y-62465313D02*
X66144924Y-62397970D01*
X66178595Y-62296955D01*
X66346955Y-62128595D01*
X66447970Y-62094924D01*
X66515313Y-62094924D01*
X66616328Y-62128595D01*
X66683672Y-62195939D01*
X66751015Y-62330626D01*
X66751015Y-63138748D01*
X67188748Y-62701015D01*
X66717343Y-61758206D02*
X67155076Y-61320473D01*
X67188747Y-61825550D01*
X67289763Y-61724534D01*
X67390778Y-61690862D01*
X67458122Y-61690862D01*
X67559138Y-61724535D01*
X67727496Y-61892893D01*
X67761168Y-61993908D01*
X67761168Y-62061252D01*
X67727496Y-62162267D01*
X67525465Y-62364298D01*
X67424450Y-62397970D01*
X67357107Y-62397970D01*
X67615313Y-64524450D02*
X67042893Y-64423435D01*
X67211252Y-64928512D02*
X66504145Y-64221405D01*
X66773519Y-63952030D01*
X66874535Y-63918359D01*
X66941878Y-63918359D01*
X67042893Y-63952030D01*
X67143908Y-64053045D01*
X67177580Y-64154061D01*
X67177580Y-64221404D01*
X67143908Y-64322419D01*
X66874534Y-64591794D01*
X67244924Y-63615313D02*
X67244924Y-63547970D01*
X67278595Y-63446955D01*
X67446955Y-63278595D01*
X67547970Y-63244924D01*
X67615313Y-63244924D01*
X67716328Y-63278595D01*
X67783672Y-63345939D01*
X67851015Y-63480626D01*
X67851015Y-64288748D01*
X68288748Y-63851015D01*
X68423435Y-62773519D02*
X68894840Y-63244924D01*
X67985702Y-62672504D02*
X68322420Y-63345939D01*
X68760153Y-62908206D01*
X41738095Y-63052381D02*
X41738095Y-63861905D01*
X41785714Y-63957143D01*
X41833333Y-64004762D01*
X41928571Y-64052381D01*
X42119048Y-64052381D01*
X42214286Y-64004762D01*
X42261905Y-63957143D01*
X42309524Y-63861905D01*
X42309524Y-63052381D01*
X42690476Y-63052381D02*
X43309524Y-63052381D01*
X42976190Y-63433333D01*
X43119048Y-63433333D01*
X43214286Y-63480952D01*
X43261905Y-63528571D01*
X43309524Y-63623810D01*
X43309524Y-63861905D01*
X43261905Y-63957143D01*
X43214286Y-64004762D01*
X43119048Y-64052381D01*
X42833333Y-64052381D01*
X42738095Y-64004762D01*
X42690476Y-63957143D01*
X46438095Y-49302381D02*
X46438095Y-50111905D01*
X46485714Y-50207143D01*
X46533333Y-50254762D01*
X46628571Y-50302381D01*
X46819048Y-50302381D01*
X46914286Y-50254762D01*
X46961905Y-50207143D01*
X47009524Y-50111905D01*
X47009524Y-49302381D01*
X47961905Y-49302381D02*
X47485714Y-49302381D01*
X47438095Y-49778571D01*
X47485714Y-49730952D01*
X47580952Y-49683333D01*
X47819048Y-49683333D01*
X47914286Y-49730952D01*
X47961905Y-49778571D01*
X48009524Y-49873810D01*
X48009524Y-50111905D01*
X47961905Y-50207143D01*
X47914286Y-50254762D01*
X47819048Y-50302381D01*
X47580952Y-50302381D01*
X47485714Y-50254762D01*
X47438095Y-50207143D01*
X53038095Y-58052381D02*
X53038095Y-58861905D01*
X53085714Y-58957143D01*
X53133333Y-59004762D01*
X53228571Y-59052381D01*
X53419048Y-59052381D01*
X53514286Y-59004762D01*
X53561905Y-58957143D01*
X53609524Y-58861905D01*
X53609524Y-58052381D01*
X54514286Y-58052381D02*
X54323809Y-58052381D01*
X54228571Y-58100000D01*
X54180952Y-58147619D01*
X54085714Y-58290476D01*
X54038095Y-58480952D01*
X54038095Y-58861905D01*
X54085714Y-58957143D01*
X54133333Y-59004762D01*
X54228571Y-59052381D01*
X54419048Y-59052381D01*
X54514286Y-59004762D01*
X54561905Y-58957143D01*
X54609524Y-58861905D01*
X54609524Y-58623810D01*
X54561905Y-58528571D01*
X54514286Y-58480952D01*
X54419048Y-58433333D01*
X54228571Y-58433333D01*
X54133333Y-58480952D01*
X54085714Y-58528571D01*
X54038095Y-58623810D01*
X36866667Y-51904762D02*
X37009524Y-51952381D01*
X37247620Y-51952381D01*
X37342858Y-51904762D01*
X37390477Y-51857143D01*
X37438096Y-51761905D01*
X37438096Y-51666667D01*
X37390477Y-51571429D01*
X37342858Y-51523810D01*
X37247620Y-51476190D01*
X37057143Y-51428571D01*
X36961905Y-51380952D01*
X36914286Y-51333333D01*
X36866667Y-51238095D01*
X36866667Y-51142857D01*
X36914286Y-51047619D01*
X36961905Y-51000000D01*
X37057143Y-50952381D01*
X37295239Y-50952381D01*
X37438096Y-51000000D01*
X37771429Y-50952381D02*
X38009524Y-51952381D01*
X38200001Y-51238095D01*
X38390477Y-51952381D01*
X38628572Y-50952381D01*
X39533334Y-51952381D02*
X38961905Y-51952381D01*
X39247619Y-51952381D02*
X39247619Y-50952381D01*
X39152381Y-51095238D01*
X39057143Y-51190476D01*
X38961905Y-51238095D01*
X38276190Y-50752381D02*
X38276190Y-49752381D01*
X38657143Y-49752381D01*
X38752381Y-49800000D01*
X38800000Y-49847619D01*
X38847619Y-49942857D01*
X38847619Y-50085714D01*
X38800000Y-50180952D01*
X38752381Y-50228571D01*
X38657143Y-50276190D01*
X38276190Y-50276190D01*
X39419047Y-50752381D02*
X39323809Y-50704762D01*
X39276190Y-50657143D01*
X39228571Y-50561905D01*
X39228571Y-50276190D01*
X39276190Y-50180952D01*
X39323809Y-50133333D01*
X39419047Y-50085714D01*
X39561905Y-50085714D01*
X39657143Y-50133333D01*
X39704762Y-50180952D01*
X39752381Y-50276190D01*
X39752381Y-50561905D01*
X39704762Y-50657143D01*
X39657143Y-50704762D01*
X39561905Y-50752381D01*
X39419047Y-50752381D01*
X40085714Y-50085714D02*
X40276190Y-50752381D01*
X40466667Y-50276190D01*
X40657143Y-50752381D01*
X40847619Y-50085714D01*
X41609524Y-50704762D02*
X41514286Y-50752381D01*
X41323809Y-50752381D01*
X41228571Y-50704762D01*
X41180952Y-50609524D01*
X41180952Y-50228571D01*
X41228571Y-50133333D01*
X41323809Y-50085714D01*
X41514286Y-50085714D01*
X41609524Y-50133333D01*
X41657143Y-50228571D01*
X41657143Y-50323810D01*
X41180952Y-50419048D01*
X42085714Y-50752381D02*
X42085714Y-50085714D01*
X42085714Y-50276190D02*
X42133333Y-50180952D01*
X42180952Y-50133333D01*
X42276190Y-50085714D01*
X42371429Y-50085714D01*
X42657143Y-50704762D02*
X42800000Y-50752381D01*
X43038096Y-50752381D01*
X43133334Y-50704762D01*
X43180953Y-50657143D01*
X43228572Y-50561905D01*
X43228572Y-50466667D01*
X43180953Y-50371429D01*
X43133334Y-50323810D01*
X43038096Y-50276190D01*
X42847619Y-50228571D01*
X42752381Y-50180952D01*
X42704762Y-50133333D01*
X42657143Y-50038095D01*
X42657143Y-49942857D01*
X42704762Y-49847619D01*
X42752381Y-49800000D01*
X42847619Y-49752381D01*
X43085715Y-49752381D01*
X43228572Y-49800000D01*
X43561905Y-49752381D02*
X43800000Y-50752381D01*
X43990477Y-50038095D01*
X44180953Y-50752381D01*
X44419048Y-49752381D01*
X68715313Y-65624450D02*
X68142893Y-65523435D01*
X68311252Y-66028512D02*
X67604145Y-65321405D01*
X67873519Y-65052030D01*
X67974535Y-65018359D01*
X68041878Y-65018359D01*
X68142893Y-65052030D01*
X68243908Y-65153045D01*
X68277580Y-65254061D01*
X68277580Y-65321404D01*
X68243908Y-65422419D01*
X67974534Y-65691794D01*
X68344924Y-64715313D02*
X68344924Y-64647970D01*
X68378595Y-64546955D01*
X68546955Y-64378595D01*
X68647970Y-64344924D01*
X68715313Y-64344924D01*
X68816328Y-64378595D01*
X68883672Y-64445939D01*
X68951015Y-64580626D01*
X68951015Y-65388748D01*
X69388748Y-64951015D01*
X69321405Y-63604145D02*
X68984687Y-63940863D01*
X69287732Y-64311252D01*
X69287732Y-64243908D01*
X69321404Y-64142893D01*
X69489763Y-63974534D01*
X69590778Y-63940862D01*
X69658122Y-63940862D01*
X69759138Y-63974535D01*
X69927496Y-64142893D01*
X69961168Y-64243908D01*
X69961168Y-64311252D01*
X69927496Y-64412267D01*
X69759137Y-64580626D01*
X69658122Y-64614298D01*
X69590778Y-64614298D01*
X32738095Y-67152381D02*
X32738095Y-67961905D01*
X32785714Y-68057143D01*
X32833333Y-68104762D01*
X32928571Y-68152381D01*
X33119048Y-68152381D01*
X33214286Y-68104762D01*
X33261905Y-68057143D01*
X33309524Y-67961905D01*
X33309524Y-67152381D01*
X34214286Y-67485714D02*
X34214286Y-68152381D01*
X33976190Y-67104762D02*
X33738095Y-67819048D01*
X34357143Y-67819048D01*
X39362143Y-42648143D02*
X39314524Y-42695762D01*
X39171667Y-42743381D01*
X39076429Y-42743381D01*
X38933571Y-42695762D01*
X38838333Y-42600524D01*
X38790714Y-42505286D01*
X38743095Y-42314810D01*
X38743095Y-42171952D01*
X38790714Y-41981476D01*
X38838333Y-41886238D01*
X38933571Y-41791000D01*
X39076429Y-41743381D01*
X39171667Y-41743381D01*
X39314524Y-41791000D01*
X39362143Y-41838619D01*
X40314524Y-42743381D02*
X39743095Y-42743381D01*
X40028809Y-42743381D02*
X40028809Y-41743381D01*
X39933571Y-41886238D01*
X39838333Y-41981476D01*
X39743095Y-42029095D01*
X40647857Y-41743381D02*
X41266905Y-41743381D01*
X40933571Y-42124333D01*
X41076429Y-42124333D01*
X41171667Y-42171952D01*
X41219286Y-42219571D01*
X41266905Y-42314810D01*
X41266905Y-42552905D01*
X41219286Y-42648143D01*
X41171667Y-42695762D01*
X41076429Y-42743381D01*
X40790714Y-42743381D01*
X40695476Y-42695762D01*
X40647857Y-42648143D01*
X39298643Y-43727643D02*
X39251024Y-43775262D01*
X39108167Y-43822881D01*
X39012929Y-43822881D01*
X38870071Y-43775262D01*
X38774833Y-43680024D01*
X38727214Y-43584786D01*
X38679595Y-43394310D01*
X38679595Y-43251452D01*
X38727214Y-43060976D01*
X38774833Y-42965738D01*
X38870071Y-42870500D01*
X39012929Y-42822881D01*
X39108167Y-42822881D01*
X39251024Y-42870500D01*
X39298643Y-42918119D01*
X40251024Y-43822881D02*
X39679595Y-43822881D01*
X39965309Y-43822881D02*
X39965309Y-42822881D01*
X39870071Y-42965738D01*
X39774833Y-43060976D01*
X39679595Y-43108595D01*
X41108167Y-43156214D02*
X41108167Y-43822881D01*
X40870071Y-42775262D02*
X40631976Y-43489548D01*
X41251024Y-43489548D01*
X56237143Y-49664857D02*
X56284762Y-49712476D01*
X56332381Y-49855333D01*
X56332381Y-49950571D01*
X56284762Y-50093429D01*
X56189524Y-50188667D01*
X56094286Y-50236286D01*
X55903810Y-50283905D01*
X55760952Y-50283905D01*
X55570476Y-50236286D01*
X55475238Y-50188667D01*
X55380000Y-50093429D01*
X55332381Y-49950571D01*
X55332381Y-49855333D01*
X55380000Y-49712476D01*
X55427619Y-49664857D01*
X56332381Y-48712476D02*
X56332381Y-49283905D01*
X56332381Y-48998191D02*
X55332381Y-48998191D01*
X55475238Y-49093429D01*
X55570476Y-49188667D01*
X55618095Y-49283905D01*
X55332381Y-47807714D02*
X55332381Y-48283905D01*
X55808571Y-48331524D01*
X55760952Y-48283905D01*
X55713333Y-48188667D01*
X55713333Y-47950571D01*
X55760952Y-47855333D01*
X55808571Y-47807714D01*
X55903810Y-47760095D01*
X56141905Y-47760095D01*
X56237143Y-47807714D01*
X56284762Y-47855333D01*
X56332381Y-47950571D01*
X56332381Y-48188667D01*
X56284762Y-48283905D01*
X56237143Y-48331524D01*
X32821643Y-51093643D02*
X32774024Y-51141262D01*
X32631167Y-51188881D01*
X32535929Y-51188881D01*
X32393071Y-51141262D01*
X32297833Y-51046024D01*
X32250214Y-50950786D01*
X32202595Y-50760310D01*
X32202595Y-50617452D01*
X32250214Y-50426976D01*
X32297833Y-50331738D01*
X32393071Y-50236500D01*
X32535929Y-50188881D01*
X32631167Y-50188881D01*
X32774024Y-50236500D01*
X32821643Y-50284119D01*
X33774024Y-51188881D02*
X33202595Y-51188881D01*
X33488309Y-51188881D02*
X33488309Y-50188881D01*
X33393071Y-50331738D01*
X33297833Y-50426976D01*
X33202595Y-50474595D01*
X34631167Y-50188881D02*
X34440690Y-50188881D01*
X34345452Y-50236500D01*
X34297833Y-50284119D01*
X34202595Y-50426976D01*
X34154976Y-50617452D01*
X34154976Y-50998405D01*
X34202595Y-51093643D01*
X34250214Y-51141262D01*
X34345452Y-51188881D01*
X34535929Y-51188881D01*
X34631167Y-51141262D01*
X34678786Y-51093643D01*
X34726405Y-50998405D01*
X34726405Y-50760310D01*
X34678786Y-50665071D01*
X34631167Y-50617452D01*
X34535929Y-50569833D01*
X34345452Y-50569833D01*
X34250214Y-50617452D01*
X34202595Y-50665071D01*
X34154976Y-50760310D01*
X31535643Y-38869857D02*
X31583262Y-38917476D01*
X31630881Y-39060333D01*
X31630881Y-39155571D01*
X31583262Y-39298429D01*
X31488024Y-39393667D01*
X31392786Y-39441286D01*
X31202310Y-39488905D01*
X31059452Y-39488905D01*
X30868976Y-39441286D01*
X30773738Y-39393667D01*
X30678500Y-39298429D01*
X30630881Y-39155571D01*
X30630881Y-39060333D01*
X30678500Y-38917476D01*
X30726119Y-38869857D01*
X31630881Y-37917476D02*
X31630881Y-38488905D01*
X31630881Y-38203191D02*
X30630881Y-38203191D01*
X30773738Y-38298429D01*
X30868976Y-38393667D01*
X30916595Y-38488905D01*
X30630881Y-37584143D02*
X30630881Y-36917476D01*
X31630881Y-37346048D01*
X42346643Y-46362881D02*
X42013309Y-45886690D01*
X41775214Y-46362881D02*
X41775214Y-45362881D01*
X42156167Y-45362881D01*
X42251405Y-45410500D01*
X42299024Y-45458119D01*
X42346643Y-45553357D01*
X42346643Y-45696214D01*
X42299024Y-45791452D01*
X42251405Y-45839071D01*
X42156167Y-45886690D01*
X41775214Y-45886690D01*
X42727595Y-45458119D02*
X42775214Y-45410500D01*
X42870452Y-45362881D01*
X43108548Y-45362881D01*
X43203786Y-45410500D01*
X43251405Y-45458119D01*
X43299024Y-45553357D01*
X43299024Y-45648595D01*
X43251405Y-45791452D01*
X42679976Y-46362881D01*
X43299024Y-46362881D01*
X44156167Y-45362881D02*
X43965690Y-45362881D01*
X43870452Y-45410500D01*
X43822833Y-45458119D01*
X43727595Y-45600976D01*
X43679976Y-45791452D01*
X43679976Y-46172405D01*
X43727595Y-46267643D01*
X43775214Y-46315262D01*
X43870452Y-46362881D01*
X44060929Y-46362881D01*
X44156167Y-46315262D01*
X44203786Y-46267643D01*
X44251405Y-46172405D01*
X44251405Y-45934310D01*
X44203786Y-45839071D01*
X44156167Y-45791452D01*
X44060929Y-45743833D01*
X43870452Y-45743833D01*
X43775214Y-45791452D01*
X43727595Y-45839071D01*
X43679976Y-45934310D01*
X42346643Y-47632881D02*
X42013309Y-47156690D01*
X41775214Y-47632881D02*
X41775214Y-46632881D01*
X42156167Y-46632881D01*
X42251405Y-46680500D01*
X42299024Y-46728119D01*
X42346643Y-46823357D01*
X42346643Y-46966214D01*
X42299024Y-47061452D01*
X42251405Y-47109071D01*
X42156167Y-47156690D01*
X41775214Y-47156690D01*
X42727595Y-46728119D02*
X42775214Y-46680500D01*
X42870452Y-46632881D01*
X43108548Y-46632881D01*
X43203786Y-46680500D01*
X43251405Y-46728119D01*
X43299024Y-46823357D01*
X43299024Y-46918595D01*
X43251405Y-47061452D01*
X42679976Y-47632881D01*
X43299024Y-47632881D01*
X43632357Y-46632881D02*
X44299024Y-46632881D01*
X43870452Y-47632881D01*
X62126881Y-32575405D02*
X62936405Y-32575405D01*
X63031643Y-32527786D01*
X63079262Y-32480167D01*
X63126881Y-32384929D01*
X63126881Y-32194452D01*
X63079262Y-32099214D01*
X63031643Y-32051595D01*
X62936405Y-32003976D01*
X62126881Y-32003976D01*
X62126881Y-31623024D02*
X62126881Y-30956357D01*
X63126881Y-31384929D01*
X33464595Y-38250881D02*
X33464595Y-39060405D01*
X33512214Y-39155643D01*
X33559833Y-39203262D01*
X33655071Y-39250881D01*
X33845548Y-39250881D01*
X33940786Y-39203262D01*
X33988405Y-39155643D01*
X34036024Y-39060405D01*
X34036024Y-38250881D01*
X34559833Y-39250881D02*
X34750309Y-39250881D01*
X34845548Y-39203262D01*
X34893167Y-39155643D01*
X34988405Y-39012786D01*
X35036024Y-38822310D01*
X35036024Y-38441357D01*
X34988405Y-38346119D01*
X34940786Y-38298500D01*
X34845548Y-38250881D01*
X34655071Y-38250881D01*
X34559833Y-38298500D01*
X34512214Y-38346119D01*
X34464595Y-38441357D01*
X34464595Y-38679452D01*
X34512214Y-38774690D01*
X34559833Y-38822310D01*
X34655071Y-38869929D01*
X34845548Y-38869929D01*
X34940786Y-38822310D01*
X34988405Y-38774690D01*
X35036024Y-38679452D01*
X32924905Y-32916881D02*
X32924905Y-33726405D01*
X32972524Y-33821643D01*
X33020143Y-33869262D01*
X33115381Y-33916881D01*
X33305858Y-33916881D01*
X33401096Y-33869262D01*
X33448715Y-33821643D01*
X33496334Y-33726405D01*
X33496334Y-32916881D01*
X34496334Y-33916881D02*
X33924905Y-33916881D01*
X34210619Y-33916881D02*
X34210619Y-32916881D01*
X34115381Y-33059738D01*
X34020143Y-33154976D01*
X33924905Y-33202595D01*
X34877286Y-33012119D02*
X34924905Y-32964500D01*
X35020143Y-32916881D01*
X35258239Y-32916881D01*
X35353477Y-32964500D01*
X35401096Y-33012119D01*
X35448715Y-33107357D01*
X35448715Y-33202595D01*
X35401096Y-33345452D01*
X34829667Y-33916881D01*
X35448715Y-33916881D01*
X70913667Y-31285381D02*
X70913667Y-31999667D01*
X70866047Y-32142524D01*
X70770809Y-32237762D01*
X70627952Y-32285381D01*
X70532714Y-32285381D01*
X71913667Y-32285381D02*
X71342238Y-32285381D01*
X71627952Y-32285381D02*
X71627952Y-31285381D01*
X71532714Y-31428238D01*
X71437476Y-31523476D01*
X71342238Y-31571095D01*
X43559405Y-41092381D02*
X43559405Y-40092381D01*
X43797500Y-40092381D01*
X43940358Y-40140000D01*
X44035596Y-40235238D01*
X44083215Y-40330476D01*
X44130834Y-40520952D01*
X44130834Y-40663810D01*
X44083215Y-40854286D01*
X44035596Y-40949524D01*
X43940358Y-41044762D01*
X43797500Y-41092381D01*
X43559405Y-41092381D01*
X44464167Y-40092381D02*
X45083215Y-40092381D01*
X44749881Y-40473333D01*
X44892739Y-40473333D01*
X44987977Y-40520952D01*
X45035596Y-40568571D01*
X45083215Y-40663810D01*
X45083215Y-40901905D01*
X45035596Y-40997143D01*
X44987977Y-41044762D01*
X44892739Y-41092381D01*
X44607024Y-41092381D01*
X44511786Y-41044762D01*
X44464167Y-40997143D01*
X43521405Y-39568381D02*
X43521405Y-38568381D01*
X43759500Y-38568381D01*
X43902358Y-38616000D01*
X43997596Y-38711238D01*
X44045215Y-38806476D01*
X44092834Y-38996952D01*
X44092834Y-39139810D01*
X44045215Y-39330286D01*
X43997596Y-39425524D01*
X43902358Y-39520762D01*
X43759500Y-39568381D01*
X43521405Y-39568381D01*
X44949977Y-38901714D02*
X44949977Y-39568381D01*
X44711881Y-38520762D02*
X44473786Y-39235048D01*
X45092834Y-39235048D01*
X36377643Y-40774881D02*
X36044309Y-40298690D01*
X35806214Y-40774881D02*
X35806214Y-39774881D01*
X36187167Y-39774881D01*
X36282405Y-39822500D01*
X36330024Y-39870119D01*
X36377643Y-39965357D01*
X36377643Y-40108214D01*
X36330024Y-40203452D01*
X36282405Y-40251071D01*
X36187167Y-40298690D01*
X35806214Y-40298690D01*
X36758595Y-39870119D02*
X36806214Y-39822500D01*
X36901452Y-39774881D01*
X37139548Y-39774881D01*
X37234786Y-39822500D01*
X37282405Y-39870119D01*
X37330024Y-39965357D01*
X37330024Y-40060595D01*
X37282405Y-40203452D01*
X36710976Y-40774881D01*
X37330024Y-40774881D01*
X37901452Y-40203452D02*
X37806214Y-40155833D01*
X37758595Y-40108214D01*
X37710976Y-40012976D01*
X37710976Y-39965357D01*
X37758595Y-39870119D01*
X37806214Y-39822500D01*
X37901452Y-39774881D01*
X38091929Y-39774881D01*
X38187167Y-39822500D01*
X38234786Y-39870119D01*
X38282405Y-39965357D01*
X38282405Y-40012976D01*
X38234786Y-40108214D01*
X38187167Y-40155833D01*
X38091929Y-40203452D01*
X37901452Y-40203452D01*
X37806214Y-40251071D01*
X37758595Y-40298690D01*
X37710976Y-40393929D01*
X37710976Y-40584405D01*
X37758595Y-40679643D01*
X37806214Y-40727262D01*
X37901452Y-40774881D01*
X38091929Y-40774881D01*
X38187167Y-40727262D01*
X38234786Y-40679643D01*
X38282405Y-40584405D01*
X38282405Y-40393929D01*
X38234786Y-40298690D01*
X38187167Y-40251071D01*
X38091929Y-40203452D01*
X36377643Y-39568381D02*
X36044309Y-39092190D01*
X35806214Y-39568381D02*
X35806214Y-38568381D01*
X36187167Y-38568381D01*
X36282405Y-38616000D01*
X36330024Y-38663619D01*
X36377643Y-38758857D01*
X36377643Y-38901714D01*
X36330024Y-38996952D01*
X36282405Y-39044571D01*
X36187167Y-39092190D01*
X35806214Y-39092190D01*
X36758595Y-38663619D02*
X36806214Y-38616000D01*
X36901452Y-38568381D01*
X37139548Y-38568381D01*
X37234786Y-38616000D01*
X37282405Y-38663619D01*
X37330024Y-38758857D01*
X37330024Y-38854095D01*
X37282405Y-38996952D01*
X36710976Y-39568381D01*
X37330024Y-39568381D01*
X37806214Y-39568381D02*
X37996690Y-39568381D01*
X38091929Y-39520762D01*
X38139548Y-39473143D01*
X38234786Y-39330286D01*
X38282405Y-39139810D01*
X38282405Y-38758857D01*
X38234786Y-38663619D01*
X38187167Y-38616000D01*
X38091929Y-38568381D01*
X37901452Y-38568381D01*
X37806214Y-38616000D01*
X37758595Y-38663619D01*
X37710976Y-38758857D01*
X37710976Y-38996952D01*
X37758595Y-39092190D01*
X37806214Y-39139810D01*
X37901452Y-39187429D01*
X38091929Y-39187429D01*
X38187167Y-39139810D01*
X38234786Y-39092190D01*
X38282405Y-38996952D01*
M02*
