G04 #@! TF.FileFunction,Soldermask,Top*
%FSLAX46Y46*%
G04 Gerber Fmt 4.6, Leading zero omitted, Abs format (unit mm)*
G04 Created by KiCad (PCBNEW 4.0.6) date 07/07/17 15:20:00*
%MOMM*%
%LPD*%
G01*
G04 APERTURE LIST*
%ADD10C,0.100000*%
%ADD11R,0.350000X1.000000*%
%ADD12R,0.550000X1.145000*%
%ADD13R,1.145000X0.550000*%
%ADD14R,1.000000X1.000000*%
%ADD15O,1.000000X1.000000*%
%ADD16R,0.800000X0.750000*%
%ADD17R,0.750000X0.800000*%
%ADD18R,2.500000X1.000000*%
%ADD19R,0.800000X0.800000*%
%ADD20R,2.500000X0.900000*%
%ADD21O,2.000000X1.500000*%
%ADD22R,1.700000X1.700000*%
%ADD23O,1.700000X1.700000*%
%ADD24C,1.000000*%
%ADD25R,0.500000X0.900000*%
%ADD26R,0.900000X0.500000*%
%ADD27R,0.900000X0.800000*%
%ADD28O,2.000000X2.500000*%
%ADD29R,1.143000X0.508000*%
%ADD30O,3.000000X2.000000*%
%ADD31O,2.200000X1.300000*%
%ADD32R,1.200000X2.200000*%
%ADD33R,5.800000X6.400000*%
%ADD34O,0.900000X1.400000*%
%ADD35O,1.400000X0.900000*%
%ADD36R,0.600000X0.900000*%
%ADD37R,0.550000X0.200000*%
%ADD38R,0.200000X0.550000*%
%ADD39R,0.550000X0.400000*%
%ADD40R,0.400000X0.550000*%
G04 APERTURE END LIST*
D10*
D11*
X48575000Y-60650000D03*
X49225000Y-60650000D03*
X49875000Y-60650000D03*
X50525000Y-60650000D03*
X50525000Y-54750000D03*
X49875000Y-54750000D03*
X49225000Y-54750000D03*
X48575000Y-54750000D03*
D12*
X34690000Y-45257500D03*
X35490000Y-45257500D03*
X36290000Y-45257500D03*
X33890000Y-45257500D03*
X33090000Y-45257500D03*
X32290000Y-45257500D03*
X35490000Y-47452500D03*
X34690000Y-47452500D03*
X33090000Y-47452500D03*
X33890000Y-47452500D03*
X36290000Y-47452500D03*
X32290000Y-47452500D03*
D13*
X36387500Y-46355000D03*
X32192500Y-46355000D03*
D14*
X44900000Y-55170000D03*
D15*
X44900000Y-53900000D03*
X44900000Y-52630000D03*
D16*
X45550000Y-64600000D03*
X44050000Y-64600000D03*
D17*
X47050000Y-54750000D03*
X47050000Y-56250000D03*
D16*
X45550000Y-59850000D03*
X44050000Y-59850000D03*
D17*
X34200000Y-56050000D03*
X34200000Y-57550000D03*
X32800000Y-56050000D03*
X32800000Y-57550000D03*
D18*
X59400000Y-58025000D03*
X59400000Y-55025000D03*
X67250000Y-58000000D03*
X67250000Y-55000000D03*
D17*
X60350000Y-60000000D03*
X60350000Y-61500000D03*
D10*
G36*
X74065685Y-65368630D02*
X74631370Y-65934315D01*
X74065685Y-66500000D01*
X73500000Y-65934315D01*
X74065685Y-65368630D01*
X74065685Y-65368630D01*
G37*
G36*
X72934315Y-66500000D02*
X73500000Y-67065685D01*
X72934315Y-67631370D01*
X72368630Y-67065685D01*
X72934315Y-66500000D01*
X72934315Y-66500000D01*
G37*
D19*
X34100000Y-54600000D03*
X35700000Y-54600000D03*
D20*
X44850000Y-69050000D03*
X44850000Y-66150000D03*
X56300000Y-55125000D03*
X56300000Y-58025000D03*
X70325000Y-55100000D03*
X70325000Y-58000000D03*
D21*
X37800000Y-56250000D03*
X37800000Y-58750000D03*
D22*
X62060000Y-60100000D03*
D23*
X64600000Y-60100000D03*
X62060000Y-57560000D03*
X64600000Y-57560000D03*
X62060000Y-55020000D03*
X64600000Y-55020000D03*
D10*
G36*
X72186970Y-63905923D02*
X72894077Y-63198816D01*
X73601184Y-63905923D01*
X72894077Y-64613030D01*
X72186970Y-63905923D01*
X72186970Y-63905923D01*
G37*
D24*
X71996051Y-64803949D02*
X71996051Y-64803949D01*
X71098026Y-65701974D02*
X71098026Y-65701974D01*
X70200000Y-66600000D02*
X70200000Y-66600000D01*
X69301975Y-67498025D02*
X69301975Y-67498025D01*
X68403949Y-68396051D02*
X68403949Y-68396051D01*
D25*
X48550000Y-63500000D03*
X47050000Y-63500000D03*
D26*
X47050000Y-61300000D03*
X47050000Y-59800000D03*
D25*
X48200000Y-62100000D03*
X49700000Y-62100000D03*
D26*
X47050000Y-57350000D03*
X47050000Y-58850000D03*
D25*
X51350000Y-54750000D03*
X52850000Y-54750000D03*
D10*
G36*
X71919239Y-67444365D02*
X72555635Y-68080761D01*
X72202081Y-68434315D01*
X71565685Y-67797919D01*
X71919239Y-67444365D01*
X71919239Y-67444365D01*
G37*
G36*
X70858579Y-68505025D02*
X71494975Y-69141421D01*
X71141421Y-69494975D01*
X70505025Y-68858579D01*
X70858579Y-68505025D01*
X70858579Y-68505025D01*
G37*
D25*
X36950000Y-54600000D03*
X38450000Y-54600000D03*
D10*
G36*
X67788909Y-58674695D02*
X68425305Y-59311091D01*
X68071751Y-59664645D01*
X67435355Y-59028249D01*
X67788909Y-58674695D01*
X67788909Y-58674695D01*
G37*
G36*
X66728249Y-59735355D02*
X67364645Y-60371751D01*
X67011091Y-60725305D01*
X66374695Y-60088909D01*
X66728249Y-59735355D01*
X66728249Y-59735355D01*
G37*
G36*
X68888909Y-59774695D02*
X69525305Y-60411091D01*
X69171751Y-60764645D01*
X68535355Y-60128249D01*
X68888909Y-59774695D01*
X68888909Y-59774695D01*
G37*
G36*
X67828249Y-60835355D02*
X68464645Y-61471751D01*
X68111091Y-61825305D01*
X67474695Y-61188909D01*
X67828249Y-60835355D01*
X67828249Y-60835355D01*
G37*
G36*
X69988909Y-60874695D02*
X70625305Y-61511091D01*
X70271751Y-61864645D01*
X69635355Y-61228249D01*
X69988909Y-60874695D01*
X69988909Y-60874695D01*
G37*
G36*
X68928249Y-61935355D02*
X69564645Y-62571751D01*
X69211091Y-62925305D01*
X68574695Y-62288909D01*
X68928249Y-61935355D01*
X68928249Y-61935355D01*
G37*
D27*
X45300000Y-63150000D03*
X45300000Y-61250000D03*
X43300000Y-62200000D03*
D28*
X56240000Y-52480000D03*
X53700000Y-52480000D03*
X51160000Y-52480000D03*
X48620000Y-52480000D03*
X48620000Y-67720000D03*
X51160000Y-67720000D03*
X53700000Y-67720000D03*
X56240000Y-67720000D03*
X58780000Y-67720000D03*
D29*
X58975000Y-59995000D03*
X58975000Y-61265000D03*
X58975000Y-62535000D03*
X58975000Y-63805000D03*
X52625000Y-63805000D03*
X52625000Y-62535000D03*
X52625000Y-61265000D03*
X52625000Y-59995000D03*
D30*
X41250000Y-60550000D03*
X41250000Y-52150000D03*
D31*
X41250000Y-58350000D03*
X41250000Y-56350000D03*
X41250000Y-54350000D03*
D10*
G36*
X71088909Y-61974695D02*
X71725305Y-62611091D01*
X71371751Y-62964645D01*
X70735355Y-62328249D01*
X71088909Y-61974695D01*
X71088909Y-61974695D01*
G37*
G36*
X70028249Y-63035355D02*
X70664645Y-63671751D01*
X70311091Y-64025305D01*
X69674695Y-63388909D01*
X70028249Y-63035355D01*
X70028249Y-63035355D01*
G37*
D32*
X35780000Y-57200000D03*
X31220000Y-57200000D03*
D33*
X33500000Y-63500000D03*
D16*
X36461000Y-42291000D03*
X37961000Y-42291000D03*
X36461000Y-43307000D03*
X37961000Y-43307000D03*
D17*
X57150000Y-46990000D03*
X57150000Y-48490000D03*
D16*
X32714500Y-49339500D03*
X34214500Y-49339500D03*
D17*
X31178500Y-36310000D03*
X31178500Y-34810000D03*
D25*
X40882000Y-45910500D03*
X39382000Y-45910500D03*
X40894000Y-47498000D03*
X39394000Y-47498000D03*
D34*
X58039000Y-31365000D03*
X56769000Y-31365000D03*
X55499000Y-31365000D03*
X54229000Y-31365000D03*
X52959000Y-31365000D03*
X51689000Y-31365000D03*
X50419000Y-31365000D03*
X49149000Y-31365000D03*
D35*
X46859000Y-33655000D03*
X46859000Y-34925000D03*
X46859000Y-36195000D03*
X46859000Y-37465000D03*
X46859000Y-38735000D03*
X46859000Y-40005000D03*
X46859000Y-41275000D03*
X46859000Y-42545000D03*
D34*
X49149000Y-44835000D03*
X50419000Y-44835000D03*
X51689000Y-44835000D03*
X52959000Y-44835000D03*
X54229000Y-44835000D03*
X55499000Y-44835000D03*
X56769000Y-44835000D03*
X58039000Y-44835000D03*
D35*
X60329000Y-42545000D03*
X60329000Y-41275000D03*
X60329000Y-40005000D03*
X60329000Y-38735000D03*
X60329000Y-37465000D03*
D36*
X60694000Y-36195000D03*
X60694000Y-34925000D03*
X60694000Y-33655000D03*
D37*
X32155000Y-40275000D03*
X32155000Y-40675000D03*
X32155000Y-41075000D03*
X32155000Y-41475000D03*
X32155000Y-41875000D03*
X32155000Y-42275000D03*
D38*
X32655000Y-42775000D03*
X33055000Y-42775000D03*
X33455000Y-42775000D03*
X33855000Y-42775000D03*
X34255000Y-42775000D03*
X34655000Y-42775000D03*
D37*
X35155000Y-42275000D03*
X35155000Y-41875000D03*
X35155000Y-41475000D03*
X35155000Y-41075000D03*
X35155000Y-40675000D03*
X35155000Y-40275000D03*
D38*
X34655000Y-39775000D03*
X34255000Y-39775000D03*
X33855000Y-39775000D03*
X33455000Y-39775000D03*
X33055000Y-39775000D03*
X32655000Y-39775000D03*
D39*
X34575000Y-35560000D03*
X34575000Y-34960000D03*
X34575000Y-36160000D03*
X32735000Y-34960000D03*
X32735000Y-35560000D03*
X32735000Y-36160000D03*
D40*
X33955000Y-34640000D03*
X33355000Y-34640000D03*
X33955000Y-36480000D03*
X33355000Y-36480000D03*
D14*
X70612000Y-33528000D03*
D15*
X71882000Y-33528000D03*
X70612000Y-34798000D03*
X71882000Y-34798000D03*
X70612000Y-36068000D03*
X71882000Y-36068000D03*
D19*
X42900500Y-40640000D03*
X41300500Y-40640000D03*
X42926000Y-39116000D03*
X41326000Y-39116000D03*
D25*
X40120000Y-40640000D03*
X38620000Y-40640000D03*
X40120000Y-39116000D03*
X38620000Y-39116000D03*
M02*
