G04 #@! TF.FileFunction,Copper,L2,Bot,Signal*
%FSLAX46Y46*%
G04 Gerber Fmt 4.6, Leading zero omitted, Abs format (unit mm)*
G04 Created by KiCad (PCBNEW 4.0.6) date 07/07/17 15:20:00*
%MOMM*%
%LPD*%
G01*
G04 APERTURE LIST*
%ADD10C,0.100000*%
%ADD11R,1.000000X0.250000*%
%ADD12R,0.250000X1.000000*%
%ADD13R,1.000000X1.000000*%
%ADD14O,1.000000X1.000000*%
%ADD15R,0.500000X0.900000*%
%ADD16R,2.500000X0.900000*%
%ADD17O,2.000000X1.500000*%
%ADD18R,1.700000X1.700000*%
%ADD19O,1.700000X1.700000*%
%ADD20C,1.000000*%
%ADD21R,3.200000X1.000000*%
%ADD22R,0.900000X0.500000*%
%ADD23R,1.060000X0.650000*%
%ADD24O,2.000000X2.500000*%
%ADD25O,3.000000X2.000000*%
%ADD26O,2.200000X1.300000*%
%ADD27R,0.800000X0.750000*%
%ADD28R,1.678940X0.800100*%
%ADD29R,2.000000X1.501140*%
%ADD30R,1.400000X1.200000*%
%ADD31R,2.000000X1.500000*%
%ADD32C,1.200000*%
%ADD33C,0.604800*%
%ADD34C,0.800000*%
%ADD35C,0.300000*%
%ADD36C,0.200000*%
%ADD37C,0.152400*%
%ADD38C,0.800000*%
%ADD39C,0.500000*%
%ADD40C,0.254000*%
G04 APERTURE END LIST*
D10*
D11*
X44196000Y-43370000D03*
X44196000Y-42870000D03*
X44196000Y-42370000D03*
X44196000Y-41870000D03*
X44196000Y-41370000D03*
X44196000Y-40870000D03*
X44196000Y-40370000D03*
X44196000Y-39870000D03*
X44196000Y-39370000D03*
X44196000Y-38870000D03*
X44196000Y-38370000D03*
X44196000Y-37870000D03*
X44196000Y-37370000D03*
X44196000Y-36870000D03*
X44196000Y-36370000D03*
X44196000Y-35870000D03*
D12*
X46146000Y-33920000D03*
X46646000Y-33920000D03*
X47146000Y-33920000D03*
X47646000Y-33920000D03*
X48146000Y-33920000D03*
X48646000Y-33920000D03*
X49146000Y-33920000D03*
X49646000Y-33920000D03*
X50146000Y-33920000D03*
X50646000Y-33920000D03*
X51146000Y-33920000D03*
X51646000Y-33920000D03*
X52146000Y-33920000D03*
X52646000Y-33920000D03*
X53146000Y-33920000D03*
X53646000Y-33920000D03*
D11*
X55596000Y-35870000D03*
X55596000Y-36370000D03*
X55596000Y-36870000D03*
X55596000Y-37370000D03*
X55596000Y-37870000D03*
X55596000Y-38370000D03*
X55596000Y-38870000D03*
X55596000Y-39370000D03*
X55596000Y-39870000D03*
X55596000Y-40370000D03*
X55596000Y-40870000D03*
X55596000Y-41370000D03*
X55596000Y-41870000D03*
X55596000Y-42370000D03*
X55596000Y-42870000D03*
X55596000Y-43370000D03*
D12*
X53646000Y-45320000D03*
X53146000Y-45320000D03*
X52646000Y-45320000D03*
X52146000Y-45320000D03*
X51646000Y-45320000D03*
X51146000Y-45320000D03*
X50646000Y-45320000D03*
X50146000Y-45320000D03*
X49646000Y-45320000D03*
X49146000Y-45320000D03*
X48646000Y-45320000D03*
X48146000Y-45320000D03*
X47646000Y-45320000D03*
X47146000Y-45320000D03*
X46646000Y-45320000D03*
X46146000Y-45320000D03*
D13*
X44900000Y-55170000D03*
D14*
X44900000Y-53900000D03*
X44900000Y-52630000D03*
D15*
X47500000Y-57700000D03*
X49000000Y-57700000D03*
D10*
G36*
X58608668Y-57028338D02*
X58078338Y-57558668D01*
X57512652Y-56992982D01*
X58042982Y-56462652D01*
X58608668Y-57028338D01*
X58608668Y-57028338D01*
G37*
G36*
X57548008Y-55967678D02*
X57017678Y-56498008D01*
X56451992Y-55932322D01*
X56982322Y-55401992D01*
X57548008Y-55967678D01*
X57548008Y-55967678D01*
G37*
G36*
X50728338Y-65698008D02*
X50198008Y-66228338D01*
X49632322Y-65662652D01*
X50162652Y-65132322D01*
X50728338Y-65698008D01*
X50728338Y-65698008D01*
G37*
G36*
X49667678Y-64637348D02*
X49137348Y-65167678D01*
X48571662Y-64601992D01*
X49101992Y-64071662D01*
X49667678Y-64637348D01*
X49667678Y-64637348D01*
G37*
D16*
X31600000Y-66150000D03*
X31600000Y-63250000D03*
D10*
G36*
X54937437Y-55328501D02*
X55361701Y-55752765D01*
X54513173Y-56601293D01*
X54088909Y-56177029D01*
X54937437Y-55328501D01*
X54937437Y-55328501D01*
G37*
G36*
X55503122Y-55894187D02*
X55927386Y-56318451D01*
X55078858Y-57166979D01*
X54654594Y-56742715D01*
X55503122Y-55894187D01*
X55503122Y-55894187D01*
G37*
G36*
X56068808Y-56459872D02*
X56493072Y-56884136D01*
X55644544Y-57732664D01*
X55220280Y-57308400D01*
X56068808Y-56459872D01*
X56068808Y-56459872D01*
G37*
G36*
X56634493Y-57025557D02*
X57058757Y-57449821D01*
X56210229Y-58298349D01*
X55785965Y-57874085D01*
X56634493Y-57025557D01*
X56634493Y-57025557D01*
G37*
G36*
X57200179Y-57591243D02*
X57624443Y-58015507D01*
X56775915Y-58864035D01*
X56351651Y-58439771D01*
X57200179Y-57591243D01*
X57200179Y-57591243D01*
G37*
G36*
X57765864Y-58156928D02*
X58190128Y-58581192D01*
X57341600Y-59429720D01*
X56917336Y-59005456D01*
X57765864Y-58156928D01*
X57765864Y-58156928D01*
G37*
G36*
X58331549Y-58722614D02*
X58755813Y-59146878D01*
X57907285Y-59995406D01*
X57483021Y-59571142D01*
X58331549Y-58722614D01*
X58331549Y-58722614D01*
G37*
G36*
X58897235Y-59288299D02*
X59321499Y-59712563D01*
X58472971Y-60561091D01*
X58048707Y-60136827D01*
X58897235Y-59288299D01*
X58897235Y-59288299D01*
G37*
G36*
X59321499Y-62187437D02*
X58897235Y-62611701D01*
X58048707Y-61763173D01*
X58472971Y-61338909D01*
X59321499Y-62187437D01*
X59321499Y-62187437D01*
G37*
G36*
X58755813Y-62753122D02*
X58331549Y-63177386D01*
X57483021Y-62328858D01*
X57907285Y-61904594D01*
X58755813Y-62753122D01*
X58755813Y-62753122D01*
G37*
G36*
X58190128Y-63318808D02*
X57765864Y-63743072D01*
X56917336Y-62894544D01*
X57341600Y-62470280D01*
X58190128Y-63318808D01*
X58190128Y-63318808D01*
G37*
G36*
X57624443Y-63884493D02*
X57200179Y-64308757D01*
X56351651Y-63460229D01*
X56775915Y-63035965D01*
X57624443Y-63884493D01*
X57624443Y-63884493D01*
G37*
G36*
X57058757Y-64450179D02*
X56634493Y-64874443D01*
X55785965Y-64025915D01*
X56210229Y-63601651D01*
X57058757Y-64450179D01*
X57058757Y-64450179D01*
G37*
G36*
X56493072Y-65015864D02*
X56068808Y-65440128D01*
X55220280Y-64591600D01*
X55644544Y-64167336D01*
X56493072Y-65015864D01*
X56493072Y-65015864D01*
G37*
G36*
X55927386Y-65581549D02*
X55503122Y-66005813D01*
X54654594Y-65157285D01*
X55078858Y-64733021D01*
X55927386Y-65581549D01*
X55927386Y-65581549D01*
G37*
G36*
X55361701Y-66147235D02*
X54937437Y-66571499D01*
X54088909Y-65722971D01*
X54513173Y-65298707D01*
X55361701Y-66147235D01*
X55361701Y-66147235D01*
G37*
G36*
X52886827Y-65298707D02*
X53311091Y-65722971D01*
X52462563Y-66571499D01*
X52038299Y-66147235D01*
X52886827Y-65298707D01*
X52886827Y-65298707D01*
G37*
G36*
X52321142Y-64733021D02*
X52745406Y-65157285D01*
X51896878Y-66005813D01*
X51472614Y-65581549D01*
X52321142Y-64733021D01*
X52321142Y-64733021D01*
G37*
G36*
X51755456Y-64167336D02*
X52179720Y-64591600D01*
X51331192Y-65440128D01*
X50906928Y-65015864D01*
X51755456Y-64167336D01*
X51755456Y-64167336D01*
G37*
G36*
X51189771Y-63601651D02*
X51614035Y-64025915D01*
X50765507Y-64874443D01*
X50341243Y-64450179D01*
X51189771Y-63601651D01*
X51189771Y-63601651D01*
G37*
G36*
X50624085Y-63035965D02*
X51048349Y-63460229D01*
X50199821Y-64308757D01*
X49775557Y-63884493D01*
X50624085Y-63035965D01*
X50624085Y-63035965D01*
G37*
G36*
X50058400Y-62470280D02*
X50482664Y-62894544D01*
X49634136Y-63743072D01*
X49209872Y-63318808D01*
X50058400Y-62470280D01*
X50058400Y-62470280D01*
G37*
G36*
X49492715Y-61904594D02*
X49916979Y-62328858D01*
X49068451Y-63177386D01*
X48644187Y-62753122D01*
X49492715Y-61904594D01*
X49492715Y-61904594D01*
G37*
G36*
X48927029Y-61338909D02*
X49351293Y-61763173D01*
X48502765Y-62611701D01*
X48078501Y-62187437D01*
X48927029Y-61338909D01*
X48927029Y-61338909D01*
G37*
G36*
X49351293Y-60136827D02*
X48927029Y-60561091D01*
X48078501Y-59712563D01*
X48502765Y-59288299D01*
X49351293Y-60136827D01*
X49351293Y-60136827D01*
G37*
G36*
X49916979Y-59571142D02*
X49492715Y-59995406D01*
X48644187Y-59146878D01*
X49068451Y-58722614D01*
X49916979Y-59571142D01*
X49916979Y-59571142D01*
G37*
G36*
X50482664Y-59005456D02*
X50058400Y-59429720D01*
X49209872Y-58581192D01*
X49634136Y-58156928D01*
X50482664Y-59005456D01*
X50482664Y-59005456D01*
G37*
G36*
X51048349Y-58439771D02*
X50624085Y-58864035D01*
X49775557Y-58015507D01*
X50199821Y-57591243D01*
X51048349Y-58439771D01*
X51048349Y-58439771D01*
G37*
G36*
X51614035Y-57874085D02*
X51189771Y-58298349D01*
X50341243Y-57449821D01*
X50765507Y-57025557D01*
X51614035Y-57874085D01*
X51614035Y-57874085D01*
G37*
G36*
X52179720Y-57308400D02*
X51755456Y-57732664D01*
X50906928Y-56884136D01*
X51331192Y-56459872D01*
X52179720Y-57308400D01*
X52179720Y-57308400D01*
G37*
G36*
X52745406Y-56742715D02*
X52321142Y-57166979D01*
X51472614Y-56318451D01*
X51896878Y-55894187D01*
X52745406Y-56742715D01*
X52745406Y-56742715D01*
G37*
G36*
X53311091Y-56177029D02*
X52886827Y-56601293D01*
X52038299Y-55752765D01*
X52462563Y-55328501D01*
X53311091Y-56177029D01*
X53311091Y-56177029D01*
G37*
D17*
X37800000Y-56250000D03*
X37800000Y-58750000D03*
D18*
X62060000Y-60100000D03*
D19*
X64600000Y-60100000D03*
X62060000Y-57560000D03*
X64600000Y-57560000D03*
X62060000Y-55020000D03*
X64600000Y-55020000D03*
D10*
G36*
X72186970Y-63905923D02*
X72894077Y-63198816D01*
X73601184Y-63905923D01*
X72894077Y-64613030D01*
X72186970Y-63905923D01*
X72186970Y-63905923D01*
G37*
D20*
X71996051Y-64803949D02*
X71996051Y-64803949D01*
X71098026Y-65701974D02*
X71098026Y-65701974D01*
X70200000Y-66600000D02*
X70200000Y-66600000D01*
X69301975Y-67498025D02*
X69301975Y-67498025D01*
X68403949Y-68396051D02*
X68403949Y-68396051D01*
D21*
X34900000Y-68200000D03*
X34900000Y-62000000D03*
D15*
X46900000Y-68800000D03*
X45400000Y-68800000D03*
X44100000Y-68450000D03*
X42600000Y-68450000D03*
D22*
X51600000Y-49175000D03*
X51600000Y-50675000D03*
X48200000Y-49175000D03*
X48200000Y-50675000D03*
D15*
X45200000Y-56300000D03*
X43700000Y-56300000D03*
D10*
G36*
X47088909Y-54799695D02*
X47725305Y-55436091D01*
X47371751Y-55789645D01*
X46735355Y-55153249D01*
X47088909Y-54799695D01*
X47088909Y-54799695D01*
G37*
G36*
X46028249Y-55860355D02*
X46664645Y-56496751D01*
X46311091Y-56850305D01*
X45674695Y-56213909D01*
X46028249Y-55860355D01*
X46028249Y-55860355D01*
G37*
G36*
X49238909Y-54524695D02*
X49875305Y-55161091D01*
X49521751Y-55514645D01*
X48885355Y-54878249D01*
X49238909Y-54524695D01*
X49238909Y-54524695D01*
G37*
G36*
X48178249Y-55585355D02*
X48814645Y-56221751D01*
X48461091Y-56575305D01*
X47824695Y-55938909D01*
X48178249Y-55585355D01*
X48178249Y-55585355D01*
G37*
G36*
X50188909Y-55124695D02*
X50825305Y-55761091D01*
X50471751Y-56114645D01*
X49835355Y-55478249D01*
X50188909Y-55124695D01*
X50188909Y-55124695D01*
G37*
G36*
X49128249Y-56185355D02*
X49764645Y-56821751D01*
X49411091Y-57175305D01*
X48774695Y-56538909D01*
X49128249Y-56185355D01*
X49128249Y-56185355D01*
G37*
D22*
X46075000Y-52900000D03*
X46075000Y-54400000D03*
D15*
X50650000Y-50675000D03*
X49150000Y-50675000D03*
X45350000Y-51550000D03*
X46850000Y-51550000D03*
X52825000Y-54750000D03*
X54325000Y-54750000D03*
D23*
X46650000Y-65350000D03*
X46650000Y-66300000D03*
X46650000Y-67250000D03*
X44450000Y-67250000D03*
X44450000Y-65350000D03*
D24*
X56240000Y-52480000D03*
X53700000Y-52480000D03*
X51160000Y-52480000D03*
X48620000Y-52480000D03*
X48620000Y-67720000D03*
X51160000Y-67720000D03*
X53700000Y-67720000D03*
X56240000Y-67720000D03*
X58780000Y-67720000D03*
D25*
X41250000Y-60550000D03*
X41250000Y-52150000D03*
D26*
X41250000Y-58350000D03*
X41250000Y-56350000D03*
X41250000Y-54350000D03*
D27*
X50863500Y-32258000D03*
X49363500Y-32258000D03*
D28*
X58910220Y-41427400D03*
X58910220Y-42527220D03*
X58910220Y-43627040D03*
X58910220Y-44726860D03*
X58910220Y-45829220D03*
X58910220Y-46929040D03*
X58910220Y-48028860D03*
X58910220Y-49128680D03*
D29*
X73977500Y-39497000D03*
D30*
X59055000Y-50673000D03*
D31*
X73914000Y-52959000D03*
D13*
X70612000Y-33528000D03*
D14*
X71882000Y-33528000D03*
X70612000Y-34798000D03*
X71882000Y-34798000D03*
X70612000Y-36068000D03*
X71882000Y-36068000D03*
D27*
X52284500Y-32258000D03*
X53784500Y-32258000D03*
D32*
X57178507Y-50750097D03*
D33*
X50419000Y-42799000D03*
X37961000Y-41021000D03*
X54673500Y-42862500D03*
X36497590Y-52523302D03*
X34544000Y-33528000D03*
X31178500Y-33528000D03*
D32*
X35496500Y-49276000D03*
D33*
X36449000Y-41021000D03*
D34*
X47739999Y-56602457D03*
X60329926Y-62315702D03*
X51805403Y-63436069D03*
X44581566Y-51626931D03*
X57465720Y-61564934D03*
X53150000Y-64650000D03*
X59500000Y-59077402D03*
D33*
X35800000Y-59300000D03*
X55245000Y-33718500D03*
X56795033Y-42178995D03*
D32*
X55816500Y-46990000D03*
X44487001Y-45049999D03*
X39814500Y-44450000D03*
D34*
X37300000Y-69000000D03*
D33*
X54237652Y-57737652D03*
X58683576Y-65663062D03*
X57500000Y-66467590D03*
X53999574Y-64744397D03*
X53720516Y-65456253D03*
X46518990Y-62050000D03*
X53394631Y-59331624D03*
X57966334Y-64184423D03*
X52100000Y-53925000D03*
X47343362Y-53427601D03*
X48300709Y-57299185D03*
X48022580Y-58694220D03*
X69850000Y-38100000D03*
X54546500Y-41402000D03*
X54991000Y-48895000D03*
X57403242Y-40490347D03*
X58420000Y-37465000D03*
X48895000Y-40386000D03*
X57428597Y-41247135D03*
X43371014Y-43813164D03*
X51562000Y-47879000D03*
X42799000Y-43307000D03*
X48196500Y-48450500D03*
X42227500Y-43878500D03*
X42227500Y-49212500D03*
X41656000Y-43307000D03*
X41656000Y-48260000D03*
X32131000Y-38735000D03*
X35560000Y-35560000D03*
X38417500Y-46355000D03*
X38417500Y-46355000D03*
X37465000Y-47434500D03*
X33055000Y-38735000D03*
X38417500Y-47117000D03*
X53340000Y-36830000D03*
X52768500Y-36195000D03*
X45275500Y-42354500D03*
X45339000Y-41275000D03*
D20*
X41158115Y-52150000D02*
X41250000Y-52150000D01*
D35*
X54387500Y-32258000D02*
X53784500Y-32258000D01*
D36*
X50265901Y-31380599D02*
X52882099Y-31380599D01*
X52882099Y-31380599D02*
X53759500Y-32258000D01*
X53759500Y-32258000D02*
X53784500Y-32258000D01*
D37*
X53146000Y-33920000D02*
X53146000Y-32871500D01*
X53146000Y-32871500D02*
X53759500Y-32258000D01*
D36*
X43443599Y-35543079D02*
X43443599Y-37817599D01*
X43443599Y-37817599D02*
X43496000Y-37870000D01*
X43494079Y-35492599D02*
X43443599Y-35543079D01*
X49269670Y-56680330D02*
X48919670Y-56680330D01*
X48919670Y-56680330D02*
X48319670Y-56080330D01*
D38*
X57178507Y-50750097D02*
X57792410Y-51364000D01*
X57792410Y-51364000D02*
X57792410Y-51704732D01*
X57792410Y-51704732D02*
X60257679Y-54170001D01*
X60257679Y-54170001D02*
X61210001Y-54170001D01*
X61210001Y-54170001D02*
X62060000Y-55020000D01*
X63300000Y-46377350D02*
X63300000Y-53720000D01*
X63300000Y-53720000D02*
X64600000Y-55020000D01*
X63300000Y-46377350D02*
X64239650Y-46377350D01*
X64239650Y-46377350D02*
X73723500Y-36893500D01*
X73723500Y-36893500D02*
X73723500Y-33811946D01*
X73723500Y-33811946D02*
X72387153Y-32475599D01*
X72387153Y-32475599D02*
X71376847Y-32475599D01*
X71376847Y-32475599D02*
X70612000Y-33240446D01*
X70612000Y-33240446D02*
X70612000Y-33528000D01*
X58910220Y-43627040D02*
X60549690Y-43627040D01*
X60549690Y-43627040D02*
X63300000Y-46377350D01*
D35*
X68453000Y-31369000D02*
X70612000Y-33528000D01*
X56076500Y-31369000D02*
X68453000Y-31369000D01*
X54387500Y-32258000D02*
X55187500Y-32258000D01*
X55187500Y-32258000D02*
X56076500Y-31369000D01*
D36*
X48146000Y-44620000D02*
X49967000Y-42799000D01*
X49967000Y-42799000D02*
X50419000Y-42799000D01*
X48146000Y-45320000D02*
X48146000Y-44620000D01*
X48146000Y-44620000D02*
X48093599Y-44567599D01*
X48093599Y-44567599D02*
X46698401Y-44567599D01*
X46698401Y-44567599D02*
X46646000Y-44620000D01*
X46646000Y-44620000D02*
X46646000Y-45320000D01*
X42457500Y-37870000D02*
X39306500Y-41021000D01*
X39306500Y-41021000D02*
X37961000Y-41021000D01*
X43496000Y-37870000D02*
X42457500Y-37870000D01*
X55596000Y-42870000D02*
X54681000Y-42870000D01*
X54681000Y-42870000D02*
X54673500Y-42862500D01*
X49388500Y-32258000D02*
X49363500Y-32258000D01*
X50265901Y-31380599D02*
X49388500Y-32258000D01*
X46646000Y-33920000D02*
X46646000Y-34620000D01*
X46646000Y-34620000D02*
X45773401Y-35492599D01*
X45773401Y-35492599D02*
X43494079Y-35492599D01*
X43496000Y-37870000D02*
X44196000Y-37870000D01*
X49363500Y-32258000D02*
X47608000Y-32258000D01*
X47608000Y-32258000D02*
X46646000Y-33220000D01*
X46646000Y-33220000D02*
X46646000Y-33920000D01*
D38*
X35496500Y-49276000D02*
X36096499Y-49875999D01*
X36096499Y-49875999D02*
X36096499Y-52122211D01*
X36096499Y-52122211D02*
X36497590Y-52523302D01*
D36*
X31178500Y-39306500D02*
X31178500Y-33528000D01*
X32893000Y-41021000D02*
X31178500Y-39306500D01*
X36449000Y-41021000D02*
X32893000Y-41021000D01*
D37*
X36449000Y-41021000D02*
X36449000Y-48323500D01*
X36449000Y-48323500D02*
X35496500Y-49276000D01*
D35*
X37550000Y-58750000D02*
X37800000Y-58750000D01*
X36497590Y-52523302D02*
X36497590Y-57697590D01*
X41365694Y-47655198D02*
X36497590Y-52523302D01*
X44373220Y-49743284D02*
X42285134Y-47655198D01*
X52513284Y-49743284D02*
X44373220Y-49743284D01*
X53700000Y-50930000D02*
X52513284Y-49743284D01*
X53700000Y-52480000D02*
X53700000Y-50930000D01*
X42285134Y-47655198D02*
X41365694Y-47655198D01*
X36497590Y-57697590D02*
X37550000Y-58750000D01*
D39*
X37600000Y-58750000D02*
X37600000Y-58379753D01*
D35*
X48319670Y-56080330D02*
X48262126Y-56080330D01*
X48262126Y-56080330D02*
X47739999Y-56602457D01*
D39*
X37600000Y-58750000D02*
X37400000Y-58750000D01*
D35*
X53700000Y-52230000D02*
X53700000Y-52480000D01*
X43050000Y-60550000D02*
X46997543Y-56602457D01*
X41250000Y-60550000D02*
X43050000Y-60550000D01*
X46997543Y-56602457D02*
X47174314Y-56602457D01*
X47174314Y-56602457D02*
X47739999Y-56602457D01*
X57502591Y-60863501D02*
X58700000Y-60863501D01*
D36*
X72162096Y-65701974D02*
X73853594Y-64010476D01*
D35*
X58700000Y-60863501D02*
X58877725Y-60863501D01*
D36*
X71098026Y-65701974D02*
X72162096Y-65701974D01*
X60152401Y-57836045D02*
X60152401Y-59411100D01*
X73853594Y-64010476D02*
X73853594Y-63801370D01*
X73853594Y-63801370D02*
X66509823Y-56457599D01*
X66509823Y-56457599D02*
X61530847Y-56457599D01*
X60152401Y-59411100D02*
X58700000Y-60863501D01*
X61530847Y-56457599D02*
X60152401Y-57836045D01*
D35*
X58877725Y-60863501D02*
X60329926Y-62315702D01*
X53700000Y-52480000D02*
X53700000Y-52730000D01*
X53700000Y-52730000D02*
X56920000Y-55950000D01*
X56920000Y-55950000D02*
X57000000Y-55950000D01*
X51284314Y-62800000D02*
X50411953Y-63672361D01*
X51805403Y-63436069D02*
X51405404Y-63036070D01*
X51405404Y-63036070D02*
X51048244Y-63036070D01*
X51048244Y-63036070D02*
X50906927Y-63177387D01*
X50906927Y-63177387D02*
X50411953Y-63672361D01*
X46650000Y-66300000D02*
X47480000Y-66300000D01*
X47480000Y-66300000D02*
X49119670Y-64660330D01*
X49119670Y-64660330D02*
X49119670Y-64619670D01*
X55361702Y-58722612D02*
X51284314Y-62800000D01*
X57502591Y-60863501D02*
X55361702Y-58722612D01*
X55856676Y-57096268D02*
X55856676Y-57093324D01*
X55856676Y-57093324D02*
X57000000Y-55950000D01*
X56988047Y-58227639D02*
X56493073Y-58722613D01*
X56493073Y-58722613D02*
X55361702Y-58722612D01*
X55361702Y-58722612D02*
X55361702Y-57591242D01*
X55361702Y-57591242D02*
X55856676Y-57096268D01*
D37*
X50411953Y-63672361D02*
X49464644Y-64619670D01*
X49464644Y-64619670D02*
X49119670Y-64619670D01*
X52825000Y-54750000D02*
X52027600Y-54750000D01*
X52027600Y-54750000D02*
X51160000Y-53882400D01*
X51160000Y-53882400D02*
X51160000Y-52480000D01*
X45350000Y-51550000D02*
X44658497Y-51550000D01*
X44658497Y-51550000D02*
X44581566Y-51626931D01*
X46075000Y-52900000D02*
X46075000Y-51872600D01*
X46075000Y-51872600D02*
X45752400Y-51550000D01*
X45752400Y-51550000D02*
X45350000Y-51550000D01*
X50650000Y-50675000D02*
X50650000Y-51970000D01*
X50650000Y-51970000D02*
X51160000Y-52480000D01*
D35*
X59500000Y-59077402D02*
X59500000Y-57290000D01*
X59500000Y-57290000D02*
X58060660Y-55850660D01*
X56240000Y-52480000D02*
X56240000Y-54030000D01*
X56240000Y-54030000D02*
X58060660Y-55850660D01*
X58060660Y-55850660D02*
X58060660Y-56380330D01*
X58060660Y-56380330D02*
X58060660Y-57010660D01*
X56240000Y-52480000D02*
X56240000Y-52730000D01*
X57465720Y-61564934D02*
X54891058Y-64139596D01*
X54891058Y-64139596D02*
X53660404Y-64139596D01*
X53660404Y-64139596D02*
X53549999Y-64250001D01*
X53549999Y-64250001D02*
X53150000Y-64650000D01*
X53150000Y-64650000D02*
X52828427Y-64650000D01*
X52828427Y-64650000D02*
X52109010Y-65369417D01*
X57553732Y-58793324D02*
X58060660Y-58286396D01*
X58060660Y-58286396D02*
X58060660Y-57010660D01*
X56422361Y-57661953D02*
X57073654Y-57010660D01*
X57073654Y-57010660D02*
X58060660Y-57010660D01*
D37*
X52109010Y-65369417D02*
X51614036Y-65864391D01*
X51614036Y-65864391D02*
X50364391Y-65864391D01*
X50364391Y-65864391D02*
X50180330Y-65680330D01*
X50977639Y-64238047D02*
X50180330Y-65035356D01*
X50180330Y-65035356D02*
X50180330Y-65680330D01*
D39*
X31600000Y-63250000D02*
X31600000Y-62300000D01*
X31600000Y-62300000D02*
X34600000Y-59300000D01*
X34600000Y-59300000D02*
X35800000Y-59300000D01*
D35*
X55245000Y-33718500D02*
X53847500Y-33718500D01*
X53847500Y-33718500D02*
X53646000Y-33920000D01*
D36*
X50978194Y-39123914D02*
X46096608Y-44005500D01*
X50978194Y-37164198D02*
X50978194Y-39123914D01*
X46096608Y-44005500D02*
X45531500Y-44005500D01*
X47322802Y-37164198D02*
X47117000Y-37370000D01*
X50978194Y-37164198D02*
X47322802Y-37164198D01*
X53646000Y-33920000D02*
X53646000Y-34496392D01*
X53646000Y-34496392D02*
X50978194Y-37164198D01*
X56795033Y-42606653D02*
X56795033Y-42178995D01*
X56795033Y-42870967D02*
X56795033Y-42606653D01*
X56296000Y-43370000D02*
X56795033Y-42870967D01*
X55596000Y-43370000D02*
X56296000Y-43370000D01*
X44487001Y-45049999D02*
X45087000Y-44450000D01*
X45087000Y-44450000D02*
X45531500Y-44005500D01*
X47117000Y-37370000D02*
X44896000Y-37370000D01*
X47146000Y-33920000D02*
X47146000Y-37341000D01*
X47146000Y-37341000D02*
X47117000Y-37370000D01*
X44896000Y-37370000D02*
X44196000Y-37370000D01*
D38*
X58910220Y-45829220D02*
X56977280Y-45829220D01*
X56977280Y-45829220D02*
X55816500Y-46990000D01*
X40414499Y-45049999D02*
X44487001Y-45049999D01*
X39814500Y-44450000D02*
X40414499Y-45049999D01*
D36*
X44896000Y-43370000D02*
X45531500Y-44005500D01*
X45531500Y-44005500D02*
X46146000Y-44620000D01*
X44196000Y-43370000D02*
X44896000Y-43370000D01*
X46146000Y-44620000D02*
X46146000Y-45320000D01*
D39*
X34900000Y-68200000D02*
X33650000Y-68200000D01*
X33650000Y-68200000D02*
X31600000Y-66150000D01*
D36*
X38750000Y-68450000D02*
X38500000Y-68200000D01*
X38500000Y-68200000D02*
X34900000Y-68200000D01*
X42600000Y-68450000D02*
X38750000Y-68450000D01*
D20*
X37300000Y-69000000D02*
X35700000Y-69000000D01*
X35700000Y-69000000D02*
X34900000Y-68200000D01*
D35*
X42600000Y-68450000D02*
X42600000Y-67300000D01*
X42600000Y-67300000D02*
X44450000Y-65450000D01*
X44450000Y-65450000D02*
X44450000Y-65350000D01*
D37*
X54725305Y-55964897D02*
X54725305Y-55150305D01*
X54725305Y-55150305D02*
X54325000Y-54750000D01*
X54725305Y-55964897D02*
X54230331Y-56459871D01*
X54230331Y-56459871D02*
X54230331Y-57730331D01*
X54230331Y-57730331D02*
X54237652Y-57737652D01*
X62060000Y-60100000D02*
X62060000Y-62040000D01*
X62060000Y-62040000D02*
X59384576Y-64715424D01*
X59384576Y-64715424D02*
X56934932Y-64715424D01*
X56934932Y-64715424D02*
X56917335Y-64733021D01*
X56917335Y-64733021D02*
X56422361Y-64238047D01*
X64600000Y-60100000D02*
X59662169Y-65037831D01*
X59662169Y-65037831D02*
X58522925Y-65037831D01*
X58522925Y-65037831D02*
X58262050Y-65298706D01*
X58262050Y-65298706D02*
X56351650Y-65298706D01*
X56351650Y-65298706D02*
X55856676Y-64803732D01*
X58600000Y-65936580D02*
X55858153Y-65936580D01*
X61136580Y-65936580D02*
X58600000Y-65936580D01*
X58600000Y-65936580D02*
X58600000Y-65746638D01*
X58600000Y-65746638D02*
X58683576Y-65663062D01*
X63600000Y-68400000D02*
X61136580Y-65936580D01*
X55858153Y-65936580D02*
X55785964Y-65864391D01*
X55785964Y-65864391D02*
X55290990Y-65369417D01*
X66400000Y-68400000D02*
X63600000Y-68400000D01*
X68200000Y-66600000D02*
X66400000Y-68400000D01*
X70200000Y-66600000D02*
X68200000Y-66600000D01*
X56240000Y-67720000D02*
X56240000Y-66317600D01*
X56240000Y-66317600D02*
X55291817Y-65369417D01*
X55291817Y-65369417D02*
X55290990Y-65369417D01*
X58028987Y-66241390D02*
X57726200Y-66241390D01*
X61010324Y-66241390D02*
X58028987Y-66241390D01*
X63473743Y-68704809D02*
X61010324Y-66241390D01*
X67733041Y-67498025D02*
X66526256Y-68704810D01*
X66526256Y-68704810D02*
X63473743Y-68704809D01*
X67733041Y-67498025D02*
X69301975Y-67498025D01*
X57726200Y-66241390D02*
X57500000Y-66467590D01*
X53999574Y-64744397D02*
X53999574Y-64949429D01*
X53999574Y-64949429D02*
X54725305Y-65675160D01*
X54725305Y-65675160D02*
X54725305Y-65935103D01*
X54725305Y-65935103D02*
X53700000Y-66960408D01*
X53700000Y-66960408D02*
X53700000Y-67720000D01*
X63347486Y-69009618D02*
X62057868Y-67720000D01*
X62057868Y-67720000D02*
X58780000Y-67720000D01*
X68403949Y-68396051D02*
X67266081Y-68396051D01*
X67266081Y-68396051D02*
X66652511Y-69009619D01*
X66652511Y-69009619D02*
X63347486Y-69009618D01*
X53720516Y-65456253D02*
X53153545Y-65456253D01*
X53153545Y-65456253D02*
X52674695Y-65935103D01*
X48408071Y-62840311D02*
X47617760Y-62050000D01*
X47617760Y-62050000D02*
X46518990Y-62050000D01*
X49280583Y-62540990D02*
X48785609Y-63035964D01*
X48785609Y-63035964D02*
X48603724Y-63035964D01*
X48603724Y-63035964D02*
X48408071Y-62840311D01*
X49280583Y-62721405D02*
X49280583Y-62540990D01*
X48714897Y-61975305D02*
X47849891Y-61110299D01*
X47849891Y-61110299D02*
X47849891Y-59617869D01*
X48600000Y-58867760D02*
X48600000Y-58347600D01*
X47849891Y-59617869D02*
X48600000Y-58867760D01*
X48600000Y-58347600D02*
X47952400Y-57700000D01*
X47952400Y-57700000D02*
X47500000Y-57700000D01*
X48714897Y-61975305D02*
X48625305Y-61975305D01*
X53394631Y-59331624D02*
X52647310Y-59331624D01*
X52647310Y-59331624D02*
X50977639Y-57661953D01*
X60958527Y-62617431D02*
X59391535Y-64184423D01*
X59391535Y-64184423D02*
X57966334Y-64184423D01*
X71996051Y-64803949D02*
X70900279Y-64803949D01*
X65117729Y-59021399D02*
X61027119Y-59021399D01*
X70900279Y-64803949D02*
X65117729Y-59021399D01*
X61027119Y-59021399D02*
X60958527Y-59089991D01*
X60958527Y-59089991D02*
X60958527Y-62617431D01*
X46075000Y-54400000D02*
X46684232Y-54400000D01*
X46684232Y-54400000D02*
X46820812Y-54263420D01*
X46820812Y-54263420D02*
X50082004Y-54263420D01*
X44900000Y-55170000D02*
X45552400Y-55170000D01*
X45552400Y-55170000D02*
X46075000Y-54647400D01*
X46075000Y-54647400D02*
X46075000Y-54400000D01*
X51543324Y-57096268D02*
X51048350Y-56601294D01*
X51048350Y-56601294D02*
X51048350Y-56292418D01*
X51048350Y-56292418D02*
X51358725Y-55982043D01*
X51358725Y-55982043D02*
X51358724Y-55540140D01*
X51358724Y-55540140D02*
X50082004Y-54263420D01*
X47029879Y-53900000D02*
X46800000Y-53900000D01*
X46800000Y-53900000D02*
X45607106Y-53900000D01*
X46850000Y-51550000D02*
X46850000Y-52152400D01*
X46850000Y-52152400D02*
X46800000Y-52202400D01*
X46800000Y-52202400D02*
X46800000Y-53900000D01*
X45607106Y-53900000D02*
X44900000Y-53900000D01*
X50208261Y-53958611D02*
X47088490Y-53958611D01*
X47088490Y-53958611D02*
X47029879Y-53900000D01*
X50208261Y-53958611D02*
X51809689Y-55560039D01*
X51809689Y-55560039D02*
X51809689Y-56231262D01*
X51809689Y-56231262D02*
X52109010Y-56530583D01*
X49150000Y-50675000D02*
X49150000Y-51950000D01*
X49150000Y-51950000D02*
X48620000Y-52480000D01*
X52674695Y-55964897D02*
X52179721Y-55469923D01*
X52179721Y-55469923D02*
X52150637Y-55469923D01*
X52150637Y-55469923D02*
X49160714Y-52480000D01*
X49160714Y-52480000D02*
X48620000Y-52480000D01*
X48620000Y-52480000D02*
X49172484Y-52480000D01*
D35*
X48620000Y-52730000D02*
X48620000Y-52480000D01*
D20*
X41250000Y-56350000D02*
X37900000Y-56350000D01*
X37900000Y-56350000D02*
X37800000Y-56250000D01*
D37*
X38000000Y-62000000D02*
X38221390Y-61778610D01*
X38221390Y-61778610D02*
X42145092Y-61778610D01*
X34900000Y-62000000D02*
X38000000Y-62000000D01*
X45500000Y-68097600D02*
X45500000Y-65133518D01*
X45500000Y-65133518D02*
X42145092Y-61778610D01*
X45400000Y-68800000D02*
X45400000Y-68197600D01*
X45400000Y-68197600D02*
X45500000Y-68097600D01*
D20*
X34900000Y-62000000D02*
X36963140Y-62000000D01*
X36963140Y-62000000D02*
X40613140Y-58350000D01*
X40613140Y-58350000D02*
X41250000Y-58350000D01*
D37*
X46900000Y-68800000D02*
X46900000Y-67500000D01*
X46900000Y-67500000D02*
X46650000Y-67250000D01*
X44450000Y-67250000D02*
X44450000Y-68100000D01*
X44450000Y-68100000D02*
X44100000Y-68450000D01*
X47230330Y-55294670D02*
X48719670Y-55294670D01*
X49505787Y-57403915D02*
X49925000Y-56984702D01*
X49925000Y-56984702D02*
X50330330Y-56579372D01*
X48719670Y-55294670D02*
X49993255Y-56568255D01*
X49993255Y-56568255D02*
X49993255Y-56916447D01*
X49993255Y-56916447D02*
X49925000Y-56984702D01*
X49846268Y-58793324D02*
X49846268Y-58409522D01*
X49846268Y-58409522D02*
X49505787Y-58069041D01*
X49505787Y-58069041D02*
X49505787Y-57403915D01*
X50330330Y-56073224D02*
X50330330Y-55619670D01*
X50330330Y-56579372D02*
X50330330Y-56073224D01*
X48928890Y-54568230D02*
X46947068Y-54568230D01*
X46947068Y-54568230D02*
X45215298Y-56300000D01*
X45215298Y-56300000D02*
X45200000Y-56300000D01*
X49380330Y-55019670D02*
X48928890Y-54568230D01*
X51053915Y-55666397D02*
X50159701Y-54772183D01*
X50159701Y-54772183D02*
X49627817Y-54772183D01*
X49627817Y-54772183D02*
X49380330Y-55019670D01*
X50635140Y-56274562D02*
X51053915Y-55855787D01*
X51053915Y-55855787D02*
X51053915Y-55666397D01*
X50635140Y-56705628D02*
X50635140Y-56274562D01*
X49916979Y-57423789D02*
X50635140Y-56705628D01*
X50411953Y-58227639D02*
X49916979Y-57732665D01*
X49916979Y-57732665D02*
X49916979Y-57423789D01*
X51600000Y-50675000D02*
X51800000Y-50675000D01*
X51800000Y-50675000D02*
X52388610Y-51263610D01*
X52388610Y-51263610D02*
X52388610Y-53636390D01*
X52388610Y-53636390D02*
X52100000Y-53925000D01*
X48200000Y-50675000D02*
X48000000Y-50675000D01*
X48000000Y-50675000D02*
X47343359Y-51331641D01*
X47343359Y-51331641D02*
X47343359Y-53427598D01*
X47343359Y-53427598D02*
X47343362Y-53427601D01*
X48650000Y-57648476D02*
X48300709Y-57299185D01*
X49000000Y-57700000D02*
X48701524Y-57700000D01*
X48701524Y-57700000D02*
X48650000Y-57648476D01*
X48022580Y-58694220D02*
X45987989Y-60728811D01*
X45987989Y-60728811D02*
X45987989Y-64210589D01*
X45987989Y-64210589D02*
X46650000Y-64872600D01*
X46650000Y-64872600D02*
X46650000Y-65350000D01*
X52646000Y-33920000D02*
X52646000Y-32619500D01*
X52646000Y-32619500D02*
X52284500Y-32258000D01*
D36*
X52387500Y-32258000D02*
X50863500Y-32258000D01*
D37*
X69850000Y-38100000D02*
X70928330Y-38100000D01*
X70928330Y-38100000D02*
X72610601Y-36417729D01*
X72610601Y-36417729D02*
X72610601Y-34256601D01*
X72610601Y-34256601D02*
X72381999Y-34027999D01*
X72381999Y-34027999D02*
X71882000Y-33528000D01*
X54546500Y-41972900D02*
X54546500Y-41402000D01*
X55596000Y-42370000D02*
X54943600Y-42370000D01*
X54943600Y-42370000D02*
X54546500Y-41972900D01*
X53646000Y-47613500D02*
X54927500Y-48895000D01*
X54927500Y-48895000D02*
X54991000Y-48895000D01*
X53646000Y-45320000D02*
X53646000Y-47613500D01*
X55596000Y-40370000D02*
X57282895Y-40370000D01*
X57282895Y-40370000D02*
X57403242Y-40490347D01*
X67056000Y-38417500D02*
X68008500Y-37465000D01*
X68008500Y-37465000D02*
X70485000Y-37465000D01*
X63246000Y-38417500D02*
X67056000Y-38417500D01*
X62293500Y-37465000D02*
X63246000Y-38417500D01*
X58420000Y-37465000D02*
X62293500Y-37465000D01*
X70485000Y-37465000D02*
X71882000Y-36068000D01*
X44196000Y-40370000D02*
X48879000Y-40370000D01*
X48879000Y-40370000D02*
X48895000Y-40386000D01*
X56248400Y-40870000D02*
X56625535Y-41247135D01*
X55596000Y-40870000D02*
X56248400Y-40870000D01*
X56625535Y-41247135D02*
X57428597Y-41247135D01*
X43371014Y-43813164D02*
X43371014Y-40043614D01*
X43371014Y-40043614D02*
X43370500Y-40043100D01*
X43543600Y-39870000D02*
X43370500Y-40043100D01*
X44196000Y-39870000D02*
X43543600Y-39870000D01*
X51562000Y-47879000D02*
X51562000Y-49137000D01*
X51562000Y-49137000D02*
X51600000Y-49175000D01*
X42799000Y-40114600D02*
X42799000Y-43307000D01*
X48200000Y-49175000D02*
X48200000Y-48454000D01*
X48200000Y-48454000D02*
X48196500Y-48450500D01*
X42799000Y-40114600D02*
X43543600Y-39370000D01*
X43543600Y-39370000D02*
X44196000Y-39370000D01*
X42227500Y-43878500D02*
X42227500Y-40195500D01*
X43700000Y-50748500D02*
X42227500Y-49276000D01*
X42227500Y-49276000D02*
X42227500Y-49212500D01*
X43700000Y-56300000D02*
X43700000Y-50748500D01*
X42291000Y-40132000D02*
X42227500Y-40195500D01*
X42291000Y-40122600D02*
X42291000Y-40132000D01*
X44196000Y-38870000D02*
X43543600Y-38870000D01*
X43543600Y-38870000D02*
X42291000Y-40122600D01*
X41656000Y-40259000D02*
X41656000Y-43307000D01*
X42978610Y-50749494D02*
X41656000Y-49426884D01*
X41656000Y-49426884D02*
X41656000Y-48687658D01*
X42978610Y-56690092D02*
X42978610Y-50749494D01*
X41656000Y-48687658D02*
X41656000Y-48260000D01*
X43267119Y-56978601D02*
X42978610Y-56690092D01*
X45546399Y-56978601D02*
X43267119Y-56978601D01*
X46169670Y-56355330D02*
X45546399Y-56978601D01*
X41719500Y-40195500D02*
X41656000Y-40259000D01*
X41719500Y-40194100D02*
X41719500Y-40195500D01*
X44196000Y-38370000D02*
X43543600Y-38370000D01*
X43543600Y-38370000D02*
X41719500Y-40194100D01*
X37211000Y-40068500D02*
X37211000Y-45466000D01*
X37211000Y-45466000D02*
X38100000Y-46355000D01*
X36512500Y-39370000D02*
X37211000Y-40068500D01*
X35560000Y-39370000D02*
X36512500Y-39370000D01*
X35560000Y-39370000D02*
X32766000Y-39370000D01*
X32766000Y-39370000D02*
X32131000Y-38735000D01*
X35560000Y-35560000D02*
X35560000Y-39370000D01*
X43180000Y-46355000D02*
X38417500Y-46355000D01*
X37465000Y-46990000D02*
X38100000Y-46355000D01*
X38100000Y-46355000D02*
X38417500Y-46355000D01*
X37465000Y-47434500D02*
X37465000Y-46990000D01*
X48263400Y-46355000D02*
X43180000Y-46355000D01*
X48646000Y-45320000D02*
X48646000Y-45972400D01*
X48646000Y-45972400D02*
X48263400Y-46355000D01*
X48445900Y-46677100D02*
X48006000Y-47117000D01*
X48006000Y-47117000D02*
X38417500Y-47117000D01*
X48445900Y-46672500D02*
X48445900Y-46677100D01*
X49146000Y-45320000D02*
X49146000Y-45972400D01*
X49146000Y-45972400D02*
X48445900Y-46672500D01*
X53340000Y-36830000D02*
X53340000Y-37257658D01*
X53340000Y-37257658D02*
X54452342Y-38370000D01*
X54452342Y-38370000D02*
X54943600Y-38370000D01*
X54943600Y-38370000D02*
X55596000Y-38370000D01*
X54038500Y-36385500D02*
X53848000Y-36195000D01*
X53848000Y-36195000D02*
X52768500Y-36195000D01*
X54038500Y-36964900D02*
X54038500Y-36385500D01*
X55596000Y-37870000D02*
X54943600Y-37870000D01*
X54943600Y-37870000D02*
X54038500Y-36964900D01*
X54943600Y-38870000D02*
X55596000Y-38870000D01*
X54015498Y-42990382D02*
X54015498Y-39798102D01*
X56721969Y-43723601D02*
X54748717Y-43723601D01*
X58910220Y-42527220D02*
X57918350Y-42527220D01*
X57918350Y-42527220D02*
X56721969Y-43723601D01*
X54015498Y-39798102D02*
X54943600Y-38870000D01*
X54748717Y-43723601D02*
X54015498Y-42990382D01*
X58910220Y-41427400D02*
X58910220Y-40874950D01*
X58910220Y-40874950D02*
X57405270Y-39370000D01*
X57405270Y-39370000D02*
X56248400Y-39370000D01*
X56248400Y-39370000D02*
X55596000Y-39370000D01*
X54683087Y-47513986D02*
X56297781Y-49128680D01*
X56297781Y-49128680D02*
X57918350Y-49128680D01*
X54683087Y-45320605D02*
X54683087Y-47513986D01*
X53953881Y-44591399D02*
X54683087Y-45320605D01*
X52646000Y-44667600D02*
X52722201Y-44591399D01*
X52646000Y-45320000D02*
X52646000Y-44667600D01*
X52722201Y-44591399D02*
X53953881Y-44591399D01*
X57918350Y-49128680D02*
X58910220Y-49128680D01*
X57918350Y-48028860D02*
X58910220Y-48028860D01*
X52146000Y-45320000D02*
X52146000Y-44667600D01*
X54987898Y-47387730D02*
X55629028Y-48028860D01*
X54987898Y-45098408D02*
X54987898Y-47387730D01*
X54148990Y-44259500D02*
X54987898Y-45098408D01*
X55629028Y-48028860D02*
X57918350Y-48028860D01*
X52554100Y-44259500D02*
X54148990Y-44259500D01*
X52146000Y-44667600D02*
X52554100Y-44259500D01*
X58910220Y-44726860D02*
X55077360Y-44726860D01*
X51646000Y-44667600D02*
X51646000Y-45320000D01*
X55077360Y-44726860D02*
X54356000Y-44005500D01*
X54356000Y-44005500D02*
X54326056Y-44005500D01*
X54326056Y-44005500D02*
X54275246Y-43954690D01*
X54275246Y-43954690D02*
X52358910Y-43954690D01*
X52358910Y-43954690D02*
X51646000Y-44667600D01*
X58910220Y-46929040D02*
X59902090Y-46929040D01*
X59902090Y-46929040D02*
X60026551Y-47053501D01*
X60026551Y-47053501D02*
X60026551Y-49750219D01*
X54979191Y-49805591D02*
X51146000Y-45972400D01*
X60026551Y-49750219D02*
X59971179Y-49805591D01*
X59971179Y-49805591D02*
X54979191Y-49805591D01*
X51146000Y-45972400D02*
X51146000Y-45320000D01*
X45275500Y-42354500D02*
X44211500Y-42354500D01*
X44211500Y-42354500D02*
X44196000Y-42370000D01*
X45339000Y-41275000D02*
X44744000Y-41870000D01*
X44744000Y-41870000D02*
X44196000Y-41870000D01*
D40*
G36*
X74498000Y-33207935D02*
X74498000Y-38311065D01*
X72977500Y-38311065D01*
X72819263Y-38340839D01*
X72673933Y-38434357D01*
X72576436Y-38577049D01*
X72542135Y-38746430D01*
X72542135Y-40247570D01*
X72571909Y-40405807D01*
X72665427Y-40551137D01*
X72808119Y-40648634D01*
X72977500Y-40682935D01*
X74498000Y-40682935D01*
X74498000Y-51773635D01*
X72914000Y-51773635D01*
X72755763Y-51803409D01*
X72610433Y-51896927D01*
X72512936Y-52039619D01*
X72478635Y-52209000D01*
X72478635Y-53709000D01*
X72508409Y-53867237D01*
X72601927Y-54012567D01*
X72744619Y-54110064D01*
X72914000Y-54144365D01*
X74498000Y-54144365D01*
X74498000Y-66792065D01*
X71792064Y-69498000D01*
X66727011Y-69498000D01*
X66845077Y-69474515D01*
X66855058Y-69467846D01*
X67008327Y-69365436D01*
X67474513Y-68899251D01*
X67642444Y-68899251D01*
X67735619Y-69038697D01*
X67761303Y-69064381D01*
X68062044Y-69265330D01*
X68416791Y-69335893D01*
X68771538Y-69265330D01*
X69072279Y-69064381D01*
X69273228Y-68763640D01*
X69338984Y-68433060D01*
X69669564Y-68367304D01*
X69970305Y-68166355D01*
X70171254Y-67865614D01*
X70237010Y-67535035D01*
X70567589Y-67469279D01*
X70868330Y-67268330D01*
X71069279Y-66967589D01*
X71099021Y-66818066D01*
X71399903Y-66796106D01*
X71658228Y-66689090D01*
X71692670Y-66476223D01*
X71098026Y-65881579D01*
X71083884Y-65895722D01*
X70904279Y-65716117D01*
X70918421Y-65701974D01*
X70904279Y-65687832D01*
X71083884Y-65508227D01*
X71098026Y-65522369D01*
X71112169Y-65508227D01*
X71291774Y-65687832D01*
X71277631Y-65701974D01*
X71872275Y-66296618D01*
X72085142Y-66262176D01*
X72192158Y-66003851D01*
X72214118Y-65702969D01*
X72363640Y-65673228D01*
X72664381Y-65472279D01*
X72865330Y-65171538D01*
X72889902Y-65048007D01*
X73057902Y-65016396D01*
X73201927Y-64920880D01*
X73909034Y-64213773D01*
X73999870Y-64080829D01*
X74036507Y-63911937D01*
X74004550Y-63742098D01*
X73909034Y-63598073D01*
X73201927Y-62890966D01*
X73068983Y-62800130D01*
X72900091Y-62763493D01*
X72730252Y-62795450D01*
X72586227Y-62890966D01*
X71879120Y-63598073D01*
X71788284Y-63731017D01*
X71751647Y-63899909D01*
X71753508Y-63909798D01*
X71628462Y-63934671D01*
X71327721Y-64135619D01*
X71217385Y-64300749D01*
X71108711Y-64300749D01*
X65473545Y-58665583D01*
X65349157Y-58582470D01*
X65527993Y-58462975D01*
X65804812Y-58048687D01*
X65902018Y-57560000D01*
X65804812Y-57071313D01*
X65527993Y-56657025D01*
X65120417Y-56384691D01*
X65481358Y-56215183D01*
X65871645Y-55786924D01*
X66041476Y-55376890D01*
X65920155Y-55147000D01*
X64727000Y-55147000D01*
X64727000Y-55167000D01*
X64473000Y-55167000D01*
X64473000Y-55147000D01*
X62187000Y-55147000D01*
X62187000Y-55167000D01*
X61933000Y-55167000D01*
X61933000Y-55147000D01*
X60739845Y-55147000D01*
X60618524Y-55376890D01*
X60788355Y-55786924D01*
X61178642Y-56215183D01*
X61539583Y-56384691D01*
X61132007Y-56657025D01*
X60855188Y-57071313D01*
X60757982Y-57560000D01*
X60855188Y-58048687D01*
X61132007Y-58462975D01*
X61214655Y-58518199D01*
X61027119Y-58518199D01*
X60834553Y-58556503D01*
X60671303Y-58665583D01*
X60602711Y-58734175D01*
X60493631Y-58897425D01*
X60455327Y-59089991D01*
X60455327Y-62408999D01*
X59183103Y-63681223D01*
X58494640Y-63681223D01*
X58469049Y-63655587D01*
X58497978Y-63626658D01*
X58557492Y-63539556D01*
X58639399Y-63485236D01*
X59063663Y-63060972D01*
X59123175Y-62973873D01*
X59205085Y-62919551D01*
X59629349Y-62495287D01*
X59720185Y-62362343D01*
X59756822Y-62193451D01*
X59724865Y-62023612D01*
X59629349Y-61879587D01*
X58780821Y-61031059D01*
X58660417Y-60948791D01*
X58780821Y-60868941D01*
X59629349Y-60020413D01*
X59720185Y-59887469D01*
X59721670Y-59880625D01*
X59967846Y-59778907D01*
X60200688Y-59546472D01*
X60326856Y-59242624D01*
X60327143Y-58913623D01*
X60201505Y-58609556D01*
X60077000Y-58484833D01*
X60077000Y-57290000D01*
X60033078Y-57069192D01*
X59908001Y-56881999D01*
X57689112Y-54663110D01*
X60618524Y-54663110D01*
X60739845Y-54893000D01*
X61933000Y-54893000D01*
X61933000Y-53699181D01*
X62187000Y-53699181D01*
X62187000Y-54893000D01*
X64473000Y-54893000D01*
X64473000Y-53699181D01*
X64727000Y-53699181D01*
X64727000Y-54893000D01*
X65920155Y-54893000D01*
X66041476Y-54663110D01*
X65871645Y-54253076D01*
X65481358Y-53824817D01*
X64956892Y-53578514D01*
X64727000Y-53699181D01*
X64473000Y-53699181D01*
X64243108Y-53578514D01*
X63718642Y-53824817D01*
X63330000Y-54251271D01*
X62941358Y-53824817D01*
X62416892Y-53578514D01*
X62187000Y-53699181D01*
X61933000Y-53699181D01*
X61703108Y-53578514D01*
X61178642Y-53824817D01*
X60788355Y-54253076D01*
X60618524Y-54663110D01*
X57689112Y-54663110D01*
X56978600Y-53952598D01*
X57249041Y-53771895D01*
X57558376Y-53308943D01*
X57667000Y-52762854D01*
X57667000Y-52197146D01*
X57558376Y-51651057D01*
X57249041Y-51188105D01*
X56786089Y-50878770D01*
X56240000Y-50770146D01*
X55693911Y-50878770D01*
X55230959Y-51188105D01*
X55094393Y-51392490D01*
X54763337Y-50975702D01*
X54202396Y-50664258D01*
X54080434Y-50639876D01*
X53827000Y-50759223D01*
X53827000Y-52353000D01*
X53847000Y-52353000D01*
X53847000Y-52607000D01*
X53827000Y-52607000D01*
X53827000Y-52627000D01*
X53573000Y-52627000D01*
X53573000Y-52607000D01*
X53553000Y-52607000D01*
X53553000Y-52353000D01*
X53573000Y-52353000D01*
X53573000Y-50759223D01*
X53319566Y-50639876D01*
X53197604Y-50664258D01*
X52748362Y-50913685D01*
X52744426Y-50907794D01*
X52485365Y-50648733D01*
X52485365Y-50425000D01*
X52455591Y-50266763D01*
X52362073Y-50121433D01*
X52219381Y-50023936D01*
X52050000Y-49989635D01*
X51255960Y-49989635D01*
X51212073Y-49921433D01*
X51111196Y-49852507D01*
X51150000Y-49860365D01*
X52050000Y-49860365D01*
X52208237Y-49830591D01*
X52353567Y-49737073D01*
X52451064Y-49594381D01*
X52485365Y-49425000D01*
X52485365Y-48925000D01*
X52455591Y-48766763D01*
X52362073Y-48621433D01*
X52219381Y-48523936D01*
X52065200Y-48492713D01*
X52065200Y-48407306D01*
X52179995Y-48292711D01*
X52291273Y-48024723D01*
X52291444Y-47829476D01*
X54623375Y-50161407D01*
X54786625Y-50270487D01*
X54979191Y-50308791D01*
X57919635Y-50308791D01*
X57919635Y-51273000D01*
X57949409Y-51431237D01*
X58042927Y-51576567D01*
X58185619Y-51674064D01*
X58355000Y-51708365D01*
X59755000Y-51708365D01*
X59913237Y-51678591D01*
X60058567Y-51585073D01*
X60156064Y-51442381D01*
X60190365Y-51273000D01*
X60190365Y-50252700D01*
X60326995Y-50161407D01*
X60382367Y-50106035D01*
X60491447Y-49942785D01*
X60529751Y-49750219D01*
X60529751Y-47053501D01*
X60503760Y-46922834D01*
X60491447Y-46860934D01*
X60382367Y-46697685D01*
X60257906Y-46573224D01*
X60184099Y-46523908D01*
X60155822Y-46373626D01*
X60185055Y-46229270D01*
X60185055Y-45429170D01*
X60155574Y-45272490D01*
X60185055Y-45126910D01*
X60185055Y-44489751D01*
X60288017Y-44386788D01*
X60384690Y-44153399D01*
X60384690Y-43912790D01*
X60225940Y-43754040D01*
X59037220Y-43754040D01*
X59037220Y-43774040D01*
X58783220Y-43774040D01*
X58783220Y-43754040D01*
X58763220Y-43754040D01*
X58763220Y-43500040D01*
X58783220Y-43500040D01*
X58783220Y-43480040D01*
X59037220Y-43480040D01*
X59037220Y-43500040D01*
X60225940Y-43500040D01*
X60384690Y-43341290D01*
X60384690Y-43100681D01*
X60288017Y-42867292D01*
X60185055Y-42764329D01*
X60185055Y-42127170D01*
X60155822Y-41971806D01*
X60185055Y-41827450D01*
X60185055Y-41027350D01*
X60155281Y-40869113D01*
X60061763Y-40723783D01*
X59919071Y-40626286D01*
X59749690Y-40591985D01*
X59314713Y-40591985D01*
X59266036Y-40519134D01*
X57761086Y-39014184D01*
X57597836Y-38905104D01*
X57405270Y-38866800D01*
X56531365Y-38866800D01*
X56531365Y-38745000D01*
X56506981Y-38615409D01*
X56531365Y-38495000D01*
X56531365Y-38245000D01*
X56506981Y-38115409D01*
X56531365Y-37995000D01*
X56531365Y-37745000D01*
X56506981Y-37615409D01*
X56531365Y-37495000D01*
X56531365Y-37245000D01*
X56506981Y-37115409D01*
X56531365Y-36995000D01*
X56531365Y-36745000D01*
X56506981Y-36615409D01*
X56531365Y-36495000D01*
X56531365Y-36245000D01*
X56506981Y-36115409D01*
X56531365Y-35995000D01*
X56531365Y-35745000D01*
X56501591Y-35586763D01*
X56408073Y-35441433D01*
X56265381Y-35343936D01*
X56096000Y-35309635D01*
X55096000Y-35309635D01*
X54937763Y-35339409D01*
X54792433Y-35432927D01*
X54694936Y-35575619D01*
X54660635Y-35745000D01*
X54660635Y-35995000D01*
X54685019Y-36124591D01*
X54660635Y-36245000D01*
X54660635Y-36495000D01*
X54685019Y-36624591D01*
X54660635Y-36745000D01*
X54660635Y-36875403D01*
X54541700Y-36756468D01*
X54541700Y-36385500D01*
X54503396Y-36192934D01*
X54394316Y-36029684D01*
X54203816Y-35839184D01*
X54040566Y-35730104D01*
X53848000Y-35691800D01*
X53296806Y-35691800D01*
X53246388Y-35641294D01*
X54018645Y-34869038D01*
X54110162Y-34732073D01*
X54132885Y-34698066D01*
X54147292Y-34625636D01*
X54172064Y-34589381D01*
X54206365Y-34420000D01*
X54206365Y-34295500D01*
X54790365Y-34295500D01*
X54831289Y-34336495D01*
X55099277Y-34447773D01*
X55389450Y-34448027D01*
X55657632Y-34337216D01*
X55862995Y-34132211D01*
X55974273Y-33864223D01*
X55974527Y-33574050D01*
X55863716Y-33305868D01*
X55708120Y-33150000D01*
X56592000Y-33150000D01*
X56592000Y-35950000D01*
X56601646Y-35998493D01*
X56601646Y-36047935D01*
X56658736Y-36334948D01*
X56658736Y-36334950D01*
X56678388Y-36382393D01*
X56733691Y-36515909D01*
X56733695Y-36515913D01*
X56896269Y-36759221D01*
X56896271Y-36759226D01*
X57034773Y-36897727D01*
X57278087Y-37060305D01*
X57278091Y-37060309D01*
X57396088Y-37109184D01*
X57459050Y-37135264D01*
X57459052Y-37135264D01*
X57743631Y-37191870D01*
X57690727Y-37319277D01*
X57690473Y-37609450D01*
X57801284Y-37877632D01*
X58006289Y-38082995D01*
X58274277Y-38194273D01*
X58564450Y-38194527D01*
X58832632Y-38083716D01*
X58948350Y-37968200D01*
X62085068Y-37968200D01*
X62890184Y-38773316D01*
X63053433Y-38882396D01*
X63246000Y-38920700D01*
X67056000Y-38920700D01*
X67248566Y-38882396D01*
X67411816Y-38773316D01*
X68216932Y-37968200D01*
X69120715Y-37968200D01*
X69120473Y-38244450D01*
X69231284Y-38512632D01*
X69436289Y-38717995D01*
X69704277Y-38829273D01*
X69994450Y-38829527D01*
X70262632Y-38718716D01*
X70378350Y-38603200D01*
X70928330Y-38603200D01*
X71120896Y-38564896D01*
X71284146Y-38455816D01*
X72966417Y-36773545D01*
X73075497Y-36610296D01*
X73094271Y-36515910D01*
X73113801Y-36417729D01*
X73113801Y-34256601D01*
X73075497Y-34064035D01*
X72966417Y-33900785D01*
X72788416Y-33722784D01*
X72827161Y-33528000D01*
X72756597Y-33173252D01*
X72555649Y-32872512D01*
X72254909Y-32671564D01*
X71900161Y-32601000D01*
X71863839Y-32601000D01*
X71629616Y-32647590D01*
X71471698Y-32489673D01*
X71238309Y-32393000D01*
X70897750Y-32393000D01*
X70739000Y-32551750D01*
X70739000Y-33401000D01*
X70759000Y-33401000D01*
X70759000Y-33655000D01*
X70739000Y-33655000D01*
X70739000Y-33675000D01*
X70485000Y-33675000D01*
X70485000Y-33655000D01*
X69635750Y-33655000D01*
X69477000Y-33813750D01*
X69477000Y-34154310D01*
X69573673Y-34387699D01*
X69719455Y-34533481D01*
X69666839Y-34798000D01*
X69737403Y-35152748D01*
X69924661Y-35433000D01*
X69737403Y-35713252D01*
X69666839Y-36068000D01*
X69737403Y-36422748D01*
X69938351Y-36723488D01*
X70239091Y-36924436D01*
X70301515Y-36936853D01*
X70276568Y-36961800D01*
X68008500Y-36961800D01*
X67815933Y-37000104D01*
X67652684Y-37109184D01*
X66847568Y-37914300D01*
X63454432Y-37914300D01*
X62649316Y-37109184D01*
X62486066Y-37000104D01*
X62293500Y-36961800D01*
X60157335Y-36961800D01*
X60253221Y-36897731D01*
X60253226Y-36897729D01*
X60391727Y-36759227D01*
X60554305Y-36515913D01*
X60554309Y-36515909D01*
X60609612Y-36382393D01*
X60629264Y-36334950D01*
X60629264Y-36334948D01*
X60686354Y-36047934D01*
X60686354Y-35998493D01*
X60696000Y-35950000D01*
X60696000Y-35000000D01*
X62998000Y-35000000D01*
X63150393Y-35766132D01*
X63584372Y-36415628D01*
X64233868Y-36849607D01*
X65000000Y-37002000D01*
X65766132Y-36849607D01*
X66415628Y-36415628D01*
X66849607Y-35766132D01*
X67002000Y-35000000D01*
X66849607Y-34233868D01*
X66415628Y-33584372D01*
X65766132Y-33150393D01*
X65000000Y-32998000D01*
X64233868Y-33150393D01*
X63584372Y-33584372D01*
X63150393Y-34233868D01*
X62998000Y-35000000D01*
X60696000Y-35000000D01*
X60696000Y-33150000D01*
X60686354Y-33101507D01*
X60686354Y-33052066D01*
X60656443Y-32901690D01*
X69477000Y-32901690D01*
X69477000Y-33242250D01*
X69635750Y-33401000D01*
X70485000Y-33401000D01*
X70485000Y-32551750D01*
X70326250Y-32393000D01*
X69985691Y-32393000D01*
X69752302Y-32489673D01*
X69573673Y-32668301D01*
X69477000Y-32901690D01*
X60656443Y-32901690D01*
X60629264Y-32765052D01*
X60629264Y-32765050D01*
X60593578Y-32678897D01*
X60554309Y-32584091D01*
X60554305Y-32584087D01*
X60391727Y-32340773D01*
X60253226Y-32202271D01*
X60253221Y-32202269D01*
X60009913Y-32039695D01*
X60009909Y-32039691D01*
X59891045Y-31990457D01*
X59828950Y-31964736D01*
X59828948Y-31964736D01*
X59541935Y-31907646D01*
X59492493Y-31907646D01*
X59444000Y-31898000D01*
X57844000Y-31898000D01*
X57795507Y-31907646D01*
X57746066Y-31907646D01*
X57459052Y-31964736D01*
X57459050Y-31964736D01*
X57396955Y-31990457D01*
X57278091Y-32039691D01*
X57278087Y-32039695D01*
X57034773Y-32202273D01*
X56896271Y-32340774D01*
X56896269Y-32340779D01*
X56733695Y-32584087D01*
X56733691Y-32584091D01*
X56694422Y-32678897D01*
X56658736Y-32765050D01*
X56658736Y-32765052D01*
X56601646Y-33052065D01*
X56601646Y-33101507D01*
X56592000Y-33150000D01*
X55708120Y-33150000D01*
X55658711Y-33100505D01*
X55390723Y-32989227D01*
X55100550Y-32988973D01*
X54832368Y-33099784D01*
X54790579Y-33141500D01*
X54574025Y-33141500D01*
X54722827Y-32992699D01*
X54819500Y-32759310D01*
X54819500Y-32543750D01*
X54660750Y-32385000D01*
X53911500Y-32385000D01*
X53911500Y-32405000D01*
X53657500Y-32405000D01*
X53657500Y-32385000D01*
X53637500Y-32385000D01*
X53637500Y-32131000D01*
X53657500Y-32131000D01*
X53657500Y-31406750D01*
X53911500Y-31406750D01*
X53911500Y-32131000D01*
X54660750Y-32131000D01*
X54819500Y-31972250D01*
X54819500Y-31756690D01*
X54722827Y-31523301D01*
X54544198Y-31344673D01*
X54310809Y-31248000D01*
X54070250Y-31248000D01*
X53911500Y-31406750D01*
X53657500Y-31406750D01*
X53498750Y-31248000D01*
X53258191Y-31248000D01*
X53024802Y-31344673D01*
X52873876Y-31495598D01*
X52853881Y-31481936D01*
X52684500Y-31447635D01*
X51884500Y-31447635D01*
X51726263Y-31477409D01*
X51580933Y-31570927D01*
X51575265Y-31579223D01*
X51432881Y-31481936D01*
X51263500Y-31447635D01*
X50463500Y-31447635D01*
X50305263Y-31477409D01*
X50275249Y-31496723D01*
X50123198Y-31344673D01*
X49889809Y-31248000D01*
X49649250Y-31248000D01*
X49490500Y-31406750D01*
X49490500Y-32131000D01*
X49510500Y-32131000D01*
X49510500Y-32385000D01*
X49490500Y-32385000D01*
X49490500Y-32405000D01*
X49236500Y-32405000D01*
X49236500Y-32385000D01*
X48487250Y-32385000D01*
X48328500Y-32543750D01*
X48328500Y-32759310D01*
X48425173Y-32992699D01*
X48433562Y-33001087D01*
X48391409Y-33009019D01*
X48271000Y-32984635D01*
X48021000Y-32984635D01*
X47891409Y-33009019D01*
X47771000Y-32984635D01*
X47521000Y-32984635D01*
X47391409Y-33009019D01*
X47271000Y-32984635D01*
X47233660Y-32984635D01*
X47130699Y-32881673D01*
X46897310Y-32785000D01*
X46867250Y-32785000D01*
X46708500Y-32943750D01*
X46708500Y-33121001D01*
X46645420Y-33213322D01*
X46583500Y-33117097D01*
X46583500Y-32943750D01*
X46424750Y-32785000D01*
X46394690Y-32785000D01*
X46161301Y-32881673D01*
X46058340Y-32984635D01*
X46021000Y-32984635D01*
X45862763Y-33014409D01*
X45717433Y-33107927D01*
X45619936Y-33250619D01*
X45585635Y-33420000D01*
X45585635Y-34420000D01*
X45615409Y-34578237D01*
X45708927Y-34723567D01*
X45851619Y-34821064D01*
X46021000Y-34855365D01*
X46058340Y-34855365D01*
X46161301Y-34958327D01*
X46394690Y-35055000D01*
X46424750Y-35055000D01*
X46518998Y-34960752D01*
X46518998Y-35055000D01*
X46619000Y-35055000D01*
X46619000Y-36843000D01*
X45131365Y-36843000D01*
X45131365Y-36745000D01*
X45106981Y-36615409D01*
X45131365Y-36495000D01*
X45131365Y-36245000D01*
X45106981Y-36115409D01*
X45131365Y-35995000D01*
X45131365Y-35745000D01*
X45101591Y-35586763D01*
X45008073Y-35441433D01*
X44865381Y-35343936D01*
X44696000Y-35309635D01*
X43696000Y-35309635D01*
X43537763Y-35339409D01*
X43392433Y-35432927D01*
X43294936Y-35575619D01*
X43260635Y-35745000D01*
X43260635Y-35995000D01*
X43285019Y-36124591D01*
X43260635Y-36245000D01*
X43260635Y-36495000D01*
X43285019Y-36624591D01*
X43260635Y-36745000D01*
X43260635Y-36995000D01*
X43285019Y-37124591D01*
X43260635Y-37245000D01*
X43260635Y-37282340D01*
X43157673Y-37385301D01*
X43061000Y-37618690D01*
X43061000Y-37648750D01*
X43219750Y-37807500D01*
X43397001Y-37807500D01*
X43489322Y-37870580D01*
X43473540Y-37880736D01*
X43351034Y-37905104D01*
X43310033Y-37932500D01*
X43219750Y-37932500D01*
X43061000Y-38091250D01*
X43061000Y-38121310D01*
X43066758Y-38135210D01*
X41363684Y-39838284D01*
X41360865Y-39842503D01*
X41300184Y-39903184D01*
X41191104Y-40066434D01*
X41152800Y-40259000D01*
X41152800Y-42778694D01*
X41038005Y-42893289D01*
X40926727Y-43161277D01*
X40926473Y-43451450D01*
X41037284Y-43719632D01*
X41242289Y-43924995D01*
X41502070Y-44032865D01*
X41580632Y-44222999D01*
X40831921Y-44222999D01*
X40685656Y-43869011D01*
X40397008Y-43579860D01*
X40019679Y-43423179D01*
X39611113Y-43422822D01*
X39233511Y-43578844D01*
X38944360Y-43867492D01*
X38787679Y-44244821D01*
X38787322Y-44653387D01*
X38943344Y-45030989D01*
X39231992Y-45320140D01*
X39609321Y-45476821D01*
X39671821Y-45476876D01*
X39829722Y-45634777D01*
X40098020Y-45814047D01*
X40287816Y-45851800D01*
X38945806Y-45851800D01*
X38831211Y-45737005D01*
X38563223Y-45625727D01*
X38273050Y-45625473D01*
X38137934Y-45681302D01*
X37714200Y-45257568D01*
X37714200Y-40068500D01*
X37681698Y-39905104D01*
X37675896Y-39875933D01*
X37566816Y-39712684D01*
X36868316Y-39014184D01*
X36705066Y-38905104D01*
X36512500Y-38866800D01*
X36063200Y-38866800D01*
X36063200Y-36088306D01*
X36177995Y-35973711D01*
X36289273Y-35705723D01*
X36289527Y-35415550D01*
X36178716Y-35147368D01*
X36031605Y-35000000D01*
X37998000Y-35000000D01*
X38150393Y-35766132D01*
X38584372Y-36415628D01*
X39233868Y-36849607D01*
X40000000Y-37002000D01*
X40766132Y-36849607D01*
X41415628Y-36415628D01*
X41849607Y-35766132D01*
X42002000Y-35000000D01*
X41849607Y-34233868D01*
X41415628Y-33584372D01*
X40766132Y-33150393D01*
X40000000Y-32998000D01*
X39233868Y-33150393D01*
X38584372Y-33584372D01*
X38150393Y-34233868D01*
X37998000Y-35000000D01*
X36031605Y-35000000D01*
X35973711Y-34942005D01*
X35705723Y-34830727D01*
X35415550Y-34830473D01*
X35147368Y-34941284D01*
X34942005Y-35146289D01*
X34830727Y-35414277D01*
X34830473Y-35704450D01*
X34941284Y-35972632D01*
X35056800Y-36088350D01*
X35056800Y-38866800D01*
X33784285Y-38866800D01*
X33784527Y-38590550D01*
X33673716Y-38322368D01*
X33468711Y-38117005D01*
X33200723Y-38005727D01*
X32910550Y-38005473D01*
X32642368Y-38116284D01*
X32593094Y-38165472D01*
X32544711Y-38117005D01*
X32276723Y-38005727D01*
X31986550Y-38005473D01*
X31718368Y-38116284D01*
X31513005Y-38321289D01*
X31401727Y-38589277D01*
X31401473Y-38879450D01*
X31512284Y-39147632D01*
X31717289Y-39352995D01*
X31985277Y-39464273D01*
X32148784Y-39464416D01*
X32410184Y-39725816D01*
X32573434Y-39834896D01*
X32766000Y-39873200D01*
X36304068Y-39873200D01*
X36707800Y-40276932D01*
X36707800Y-45466000D01*
X36746104Y-45658566D01*
X36855184Y-45821816D01*
X37388368Y-46355000D01*
X37109184Y-46634184D01*
X37000104Y-46797434D01*
X36982600Y-46885430D01*
X36847005Y-47020789D01*
X36735727Y-47288777D01*
X36735473Y-47578950D01*
X36846284Y-47847132D01*
X37051289Y-48052495D01*
X37319277Y-48163773D01*
X37609450Y-48164027D01*
X37877632Y-48053216D01*
X38082995Y-47848211D01*
X38111444Y-47779697D01*
X38271777Y-47846273D01*
X38561950Y-47846527D01*
X38830132Y-47735716D01*
X38945850Y-47620200D01*
X41294395Y-47620200D01*
X41243368Y-47641284D01*
X41038005Y-47846289D01*
X40926727Y-48114277D01*
X40926473Y-48404450D01*
X41037284Y-48672632D01*
X41152800Y-48788350D01*
X41152800Y-49426884D01*
X41191104Y-49619450D01*
X41300184Y-49782700D01*
X42379851Y-50862367D01*
X42333841Y-50831624D01*
X41787752Y-50723000D01*
X40712248Y-50723000D01*
X40166159Y-50831624D01*
X39703207Y-51140959D01*
X39393872Y-51603911D01*
X39285248Y-52150000D01*
X39393872Y-52696089D01*
X39703207Y-53159041D01*
X40166159Y-53468376D01*
X40183165Y-53471759D01*
X40008530Y-53588446D01*
X39775066Y-53937850D01*
X39693084Y-54350000D01*
X39775066Y-54762150D01*
X40008530Y-55111554D01*
X40357934Y-55345018D01*
X40382980Y-55350000D01*
X40357934Y-55354982D01*
X40256138Y-55423000D01*
X38913740Y-55423000D01*
X38910222Y-55417735D01*
X38528375Y-55162594D01*
X38077957Y-55073000D01*
X37522043Y-55073000D01*
X37071625Y-55162594D01*
X36689778Y-55417735D01*
X36434637Y-55799582D01*
X36345043Y-56250000D01*
X36434637Y-56700418D01*
X36689778Y-57082265D01*
X37071625Y-57337406D01*
X37334517Y-57389699D01*
X36928279Y-57500036D01*
X36497264Y-57833106D01*
X36226519Y-58305765D01*
X36207682Y-58408815D01*
X36330343Y-58622998D01*
X36165000Y-58622998D01*
X36165000Y-58661778D01*
X35945723Y-58570727D01*
X35655550Y-58570473D01*
X35528425Y-58623000D01*
X34600000Y-58623000D01*
X34340924Y-58674533D01*
X34121289Y-58821288D01*
X31121289Y-61821289D01*
X30974534Y-62040923D01*
X30923000Y-62300000D01*
X30923000Y-62364635D01*
X30502000Y-62364635D01*
X30502000Y-33207936D01*
X31953245Y-31756690D01*
X48328500Y-31756690D01*
X48328500Y-31972250D01*
X48487250Y-32131000D01*
X49236500Y-32131000D01*
X49236500Y-31406750D01*
X49077750Y-31248000D01*
X48837191Y-31248000D01*
X48603802Y-31344673D01*
X48425173Y-31523301D01*
X48328500Y-31756690D01*
X31953245Y-31756690D01*
X33207935Y-30502000D01*
X71792064Y-30502000D01*
X74498000Y-33207935D01*
X74498000Y-33207935D01*
G37*
X74498000Y-33207935D02*
X74498000Y-38311065D01*
X72977500Y-38311065D01*
X72819263Y-38340839D01*
X72673933Y-38434357D01*
X72576436Y-38577049D01*
X72542135Y-38746430D01*
X72542135Y-40247570D01*
X72571909Y-40405807D01*
X72665427Y-40551137D01*
X72808119Y-40648634D01*
X72977500Y-40682935D01*
X74498000Y-40682935D01*
X74498000Y-51773635D01*
X72914000Y-51773635D01*
X72755763Y-51803409D01*
X72610433Y-51896927D01*
X72512936Y-52039619D01*
X72478635Y-52209000D01*
X72478635Y-53709000D01*
X72508409Y-53867237D01*
X72601927Y-54012567D01*
X72744619Y-54110064D01*
X72914000Y-54144365D01*
X74498000Y-54144365D01*
X74498000Y-66792065D01*
X71792064Y-69498000D01*
X66727011Y-69498000D01*
X66845077Y-69474515D01*
X66855058Y-69467846D01*
X67008327Y-69365436D01*
X67474513Y-68899251D01*
X67642444Y-68899251D01*
X67735619Y-69038697D01*
X67761303Y-69064381D01*
X68062044Y-69265330D01*
X68416791Y-69335893D01*
X68771538Y-69265330D01*
X69072279Y-69064381D01*
X69273228Y-68763640D01*
X69338984Y-68433060D01*
X69669564Y-68367304D01*
X69970305Y-68166355D01*
X70171254Y-67865614D01*
X70237010Y-67535035D01*
X70567589Y-67469279D01*
X70868330Y-67268330D01*
X71069279Y-66967589D01*
X71099021Y-66818066D01*
X71399903Y-66796106D01*
X71658228Y-66689090D01*
X71692670Y-66476223D01*
X71098026Y-65881579D01*
X71083884Y-65895722D01*
X70904279Y-65716117D01*
X70918421Y-65701974D01*
X70904279Y-65687832D01*
X71083884Y-65508227D01*
X71098026Y-65522369D01*
X71112169Y-65508227D01*
X71291774Y-65687832D01*
X71277631Y-65701974D01*
X71872275Y-66296618D01*
X72085142Y-66262176D01*
X72192158Y-66003851D01*
X72214118Y-65702969D01*
X72363640Y-65673228D01*
X72664381Y-65472279D01*
X72865330Y-65171538D01*
X72889902Y-65048007D01*
X73057902Y-65016396D01*
X73201927Y-64920880D01*
X73909034Y-64213773D01*
X73999870Y-64080829D01*
X74036507Y-63911937D01*
X74004550Y-63742098D01*
X73909034Y-63598073D01*
X73201927Y-62890966D01*
X73068983Y-62800130D01*
X72900091Y-62763493D01*
X72730252Y-62795450D01*
X72586227Y-62890966D01*
X71879120Y-63598073D01*
X71788284Y-63731017D01*
X71751647Y-63899909D01*
X71753508Y-63909798D01*
X71628462Y-63934671D01*
X71327721Y-64135619D01*
X71217385Y-64300749D01*
X71108711Y-64300749D01*
X65473545Y-58665583D01*
X65349157Y-58582470D01*
X65527993Y-58462975D01*
X65804812Y-58048687D01*
X65902018Y-57560000D01*
X65804812Y-57071313D01*
X65527993Y-56657025D01*
X65120417Y-56384691D01*
X65481358Y-56215183D01*
X65871645Y-55786924D01*
X66041476Y-55376890D01*
X65920155Y-55147000D01*
X64727000Y-55147000D01*
X64727000Y-55167000D01*
X64473000Y-55167000D01*
X64473000Y-55147000D01*
X62187000Y-55147000D01*
X62187000Y-55167000D01*
X61933000Y-55167000D01*
X61933000Y-55147000D01*
X60739845Y-55147000D01*
X60618524Y-55376890D01*
X60788355Y-55786924D01*
X61178642Y-56215183D01*
X61539583Y-56384691D01*
X61132007Y-56657025D01*
X60855188Y-57071313D01*
X60757982Y-57560000D01*
X60855188Y-58048687D01*
X61132007Y-58462975D01*
X61214655Y-58518199D01*
X61027119Y-58518199D01*
X60834553Y-58556503D01*
X60671303Y-58665583D01*
X60602711Y-58734175D01*
X60493631Y-58897425D01*
X60455327Y-59089991D01*
X60455327Y-62408999D01*
X59183103Y-63681223D01*
X58494640Y-63681223D01*
X58469049Y-63655587D01*
X58497978Y-63626658D01*
X58557492Y-63539556D01*
X58639399Y-63485236D01*
X59063663Y-63060972D01*
X59123175Y-62973873D01*
X59205085Y-62919551D01*
X59629349Y-62495287D01*
X59720185Y-62362343D01*
X59756822Y-62193451D01*
X59724865Y-62023612D01*
X59629349Y-61879587D01*
X58780821Y-61031059D01*
X58660417Y-60948791D01*
X58780821Y-60868941D01*
X59629349Y-60020413D01*
X59720185Y-59887469D01*
X59721670Y-59880625D01*
X59967846Y-59778907D01*
X60200688Y-59546472D01*
X60326856Y-59242624D01*
X60327143Y-58913623D01*
X60201505Y-58609556D01*
X60077000Y-58484833D01*
X60077000Y-57290000D01*
X60033078Y-57069192D01*
X59908001Y-56881999D01*
X57689112Y-54663110D01*
X60618524Y-54663110D01*
X60739845Y-54893000D01*
X61933000Y-54893000D01*
X61933000Y-53699181D01*
X62187000Y-53699181D01*
X62187000Y-54893000D01*
X64473000Y-54893000D01*
X64473000Y-53699181D01*
X64727000Y-53699181D01*
X64727000Y-54893000D01*
X65920155Y-54893000D01*
X66041476Y-54663110D01*
X65871645Y-54253076D01*
X65481358Y-53824817D01*
X64956892Y-53578514D01*
X64727000Y-53699181D01*
X64473000Y-53699181D01*
X64243108Y-53578514D01*
X63718642Y-53824817D01*
X63330000Y-54251271D01*
X62941358Y-53824817D01*
X62416892Y-53578514D01*
X62187000Y-53699181D01*
X61933000Y-53699181D01*
X61703108Y-53578514D01*
X61178642Y-53824817D01*
X60788355Y-54253076D01*
X60618524Y-54663110D01*
X57689112Y-54663110D01*
X56978600Y-53952598D01*
X57249041Y-53771895D01*
X57558376Y-53308943D01*
X57667000Y-52762854D01*
X57667000Y-52197146D01*
X57558376Y-51651057D01*
X57249041Y-51188105D01*
X56786089Y-50878770D01*
X56240000Y-50770146D01*
X55693911Y-50878770D01*
X55230959Y-51188105D01*
X55094393Y-51392490D01*
X54763337Y-50975702D01*
X54202396Y-50664258D01*
X54080434Y-50639876D01*
X53827000Y-50759223D01*
X53827000Y-52353000D01*
X53847000Y-52353000D01*
X53847000Y-52607000D01*
X53827000Y-52607000D01*
X53827000Y-52627000D01*
X53573000Y-52627000D01*
X53573000Y-52607000D01*
X53553000Y-52607000D01*
X53553000Y-52353000D01*
X53573000Y-52353000D01*
X53573000Y-50759223D01*
X53319566Y-50639876D01*
X53197604Y-50664258D01*
X52748362Y-50913685D01*
X52744426Y-50907794D01*
X52485365Y-50648733D01*
X52485365Y-50425000D01*
X52455591Y-50266763D01*
X52362073Y-50121433D01*
X52219381Y-50023936D01*
X52050000Y-49989635D01*
X51255960Y-49989635D01*
X51212073Y-49921433D01*
X51111196Y-49852507D01*
X51150000Y-49860365D01*
X52050000Y-49860365D01*
X52208237Y-49830591D01*
X52353567Y-49737073D01*
X52451064Y-49594381D01*
X52485365Y-49425000D01*
X52485365Y-48925000D01*
X52455591Y-48766763D01*
X52362073Y-48621433D01*
X52219381Y-48523936D01*
X52065200Y-48492713D01*
X52065200Y-48407306D01*
X52179995Y-48292711D01*
X52291273Y-48024723D01*
X52291444Y-47829476D01*
X54623375Y-50161407D01*
X54786625Y-50270487D01*
X54979191Y-50308791D01*
X57919635Y-50308791D01*
X57919635Y-51273000D01*
X57949409Y-51431237D01*
X58042927Y-51576567D01*
X58185619Y-51674064D01*
X58355000Y-51708365D01*
X59755000Y-51708365D01*
X59913237Y-51678591D01*
X60058567Y-51585073D01*
X60156064Y-51442381D01*
X60190365Y-51273000D01*
X60190365Y-50252700D01*
X60326995Y-50161407D01*
X60382367Y-50106035D01*
X60491447Y-49942785D01*
X60529751Y-49750219D01*
X60529751Y-47053501D01*
X60503760Y-46922834D01*
X60491447Y-46860934D01*
X60382367Y-46697685D01*
X60257906Y-46573224D01*
X60184099Y-46523908D01*
X60155822Y-46373626D01*
X60185055Y-46229270D01*
X60185055Y-45429170D01*
X60155574Y-45272490D01*
X60185055Y-45126910D01*
X60185055Y-44489751D01*
X60288017Y-44386788D01*
X60384690Y-44153399D01*
X60384690Y-43912790D01*
X60225940Y-43754040D01*
X59037220Y-43754040D01*
X59037220Y-43774040D01*
X58783220Y-43774040D01*
X58783220Y-43754040D01*
X58763220Y-43754040D01*
X58763220Y-43500040D01*
X58783220Y-43500040D01*
X58783220Y-43480040D01*
X59037220Y-43480040D01*
X59037220Y-43500040D01*
X60225940Y-43500040D01*
X60384690Y-43341290D01*
X60384690Y-43100681D01*
X60288017Y-42867292D01*
X60185055Y-42764329D01*
X60185055Y-42127170D01*
X60155822Y-41971806D01*
X60185055Y-41827450D01*
X60185055Y-41027350D01*
X60155281Y-40869113D01*
X60061763Y-40723783D01*
X59919071Y-40626286D01*
X59749690Y-40591985D01*
X59314713Y-40591985D01*
X59266036Y-40519134D01*
X57761086Y-39014184D01*
X57597836Y-38905104D01*
X57405270Y-38866800D01*
X56531365Y-38866800D01*
X56531365Y-38745000D01*
X56506981Y-38615409D01*
X56531365Y-38495000D01*
X56531365Y-38245000D01*
X56506981Y-38115409D01*
X56531365Y-37995000D01*
X56531365Y-37745000D01*
X56506981Y-37615409D01*
X56531365Y-37495000D01*
X56531365Y-37245000D01*
X56506981Y-37115409D01*
X56531365Y-36995000D01*
X56531365Y-36745000D01*
X56506981Y-36615409D01*
X56531365Y-36495000D01*
X56531365Y-36245000D01*
X56506981Y-36115409D01*
X56531365Y-35995000D01*
X56531365Y-35745000D01*
X56501591Y-35586763D01*
X56408073Y-35441433D01*
X56265381Y-35343936D01*
X56096000Y-35309635D01*
X55096000Y-35309635D01*
X54937763Y-35339409D01*
X54792433Y-35432927D01*
X54694936Y-35575619D01*
X54660635Y-35745000D01*
X54660635Y-35995000D01*
X54685019Y-36124591D01*
X54660635Y-36245000D01*
X54660635Y-36495000D01*
X54685019Y-36624591D01*
X54660635Y-36745000D01*
X54660635Y-36875403D01*
X54541700Y-36756468D01*
X54541700Y-36385500D01*
X54503396Y-36192934D01*
X54394316Y-36029684D01*
X54203816Y-35839184D01*
X54040566Y-35730104D01*
X53848000Y-35691800D01*
X53296806Y-35691800D01*
X53246388Y-35641294D01*
X54018645Y-34869038D01*
X54110162Y-34732073D01*
X54132885Y-34698066D01*
X54147292Y-34625636D01*
X54172064Y-34589381D01*
X54206365Y-34420000D01*
X54206365Y-34295500D01*
X54790365Y-34295500D01*
X54831289Y-34336495D01*
X55099277Y-34447773D01*
X55389450Y-34448027D01*
X55657632Y-34337216D01*
X55862995Y-34132211D01*
X55974273Y-33864223D01*
X55974527Y-33574050D01*
X55863716Y-33305868D01*
X55708120Y-33150000D01*
X56592000Y-33150000D01*
X56592000Y-35950000D01*
X56601646Y-35998493D01*
X56601646Y-36047935D01*
X56658736Y-36334948D01*
X56658736Y-36334950D01*
X56678388Y-36382393D01*
X56733691Y-36515909D01*
X56733695Y-36515913D01*
X56896269Y-36759221D01*
X56896271Y-36759226D01*
X57034773Y-36897727D01*
X57278087Y-37060305D01*
X57278091Y-37060309D01*
X57396088Y-37109184D01*
X57459050Y-37135264D01*
X57459052Y-37135264D01*
X57743631Y-37191870D01*
X57690727Y-37319277D01*
X57690473Y-37609450D01*
X57801284Y-37877632D01*
X58006289Y-38082995D01*
X58274277Y-38194273D01*
X58564450Y-38194527D01*
X58832632Y-38083716D01*
X58948350Y-37968200D01*
X62085068Y-37968200D01*
X62890184Y-38773316D01*
X63053433Y-38882396D01*
X63246000Y-38920700D01*
X67056000Y-38920700D01*
X67248566Y-38882396D01*
X67411816Y-38773316D01*
X68216932Y-37968200D01*
X69120715Y-37968200D01*
X69120473Y-38244450D01*
X69231284Y-38512632D01*
X69436289Y-38717995D01*
X69704277Y-38829273D01*
X69994450Y-38829527D01*
X70262632Y-38718716D01*
X70378350Y-38603200D01*
X70928330Y-38603200D01*
X71120896Y-38564896D01*
X71284146Y-38455816D01*
X72966417Y-36773545D01*
X73075497Y-36610296D01*
X73094271Y-36515910D01*
X73113801Y-36417729D01*
X73113801Y-34256601D01*
X73075497Y-34064035D01*
X72966417Y-33900785D01*
X72788416Y-33722784D01*
X72827161Y-33528000D01*
X72756597Y-33173252D01*
X72555649Y-32872512D01*
X72254909Y-32671564D01*
X71900161Y-32601000D01*
X71863839Y-32601000D01*
X71629616Y-32647590D01*
X71471698Y-32489673D01*
X71238309Y-32393000D01*
X70897750Y-32393000D01*
X70739000Y-32551750D01*
X70739000Y-33401000D01*
X70759000Y-33401000D01*
X70759000Y-33655000D01*
X70739000Y-33655000D01*
X70739000Y-33675000D01*
X70485000Y-33675000D01*
X70485000Y-33655000D01*
X69635750Y-33655000D01*
X69477000Y-33813750D01*
X69477000Y-34154310D01*
X69573673Y-34387699D01*
X69719455Y-34533481D01*
X69666839Y-34798000D01*
X69737403Y-35152748D01*
X69924661Y-35433000D01*
X69737403Y-35713252D01*
X69666839Y-36068000D01*
X69737403Y-36422748D01*
X69938351Y-36723488D01*
X70239091Y-36924436D01*
X70301515Y-36936853D01*
X70276568Y-36961800D01*
X68008500Y-36961800D01*
X67815933Y-37000104D01*
X67652684Y-37109184D01*
X66847568Y-37914300D01*
X63454432Y-37914300D01*
X62649316Y-37109184D01*
X62486066Y-37000104D01*
X62293500Y-36961800D01*
X60157335Y-36961800D01*
X60253221Y-36897731D01*
X60253226Y-36897729D01*
X60391727Y-36759227D01*
X60554305Y-36515913D01*
X60554309Y-36515909D01*
X60609612Y-36382393D01*
X60629264Y-36334950D01*
X60629264Y-36334948D01*
X60686354Y-36047934D01*
X60686354Y-35998493D01*
X60696000Y-35950000D01*
X60696000Y-35000000D01*
X62998000Y-35000000D01*
X63150393Y-35766132D01*
X63584372Y-36415628D01*
X64233868Y-36849607D01*
X65000000Y-37002000D01*
X65766132Y-36849607D01*
X66415628Y-36415628D01*
X66849607Y-35766132D01*
X67002000Y-35000000D01*
X66849607Y-34233868D01*
X66415628Y-33584372D01*
X65766132Y-33150393D01*
X65000000Y-32998000D01*
X64233868Y-33150393D01*
X63584372Y-33584372D01*
X63150393Y-34233868D01*
X62998000Y-35000000D01*
X60696000Y-35000000D01*
X60696000Y-33150000D01*
X60686354Y-33101507D01*
X60686354Y-33052066D01*
X60656443Y-32901690D01*
X69477000Y-32901690D01*
X69477000Y-33242250D01*
X69635750Y-33401000D01*
X70485000Y-33401000D01*
X70485000Y-32551750D01*
X70326250Y-32393000D01*
X69985691Y-32393000D01*
X69752302Y-32489673D01*
X69573673Y-32668301D01*
X69477000Y-32901690D01*
X60656443Y-32901690D01*
X60629264Y-32765052D01*
X60629264Y-32765050D01*
X60593578Y-32678897D01*
X60554309Y-32584091D01*
X60554305Y-32584087D01*
X60391727Y-32340773D01*
X60253226Y-32202271D01*
X60253221Y-32202269D01*
X60009913Y-32039695D01*
X60009909Y-32039691D01*
X59891045Y-31990457D01*
X59828950Y-31964736D01*
X59828948Y-31964736D01*
X59541935Y-31907646D01*
X59492493Y-31907646D01*
X59444000Y-31898000D01*
X57844000Y-31898000D01*
X57795507Y-31907646D01*
X57746066Y-31907646D01*
X57459052Y-31964736D01*
X57459050Y-31964736D01*
X57396955Y-31990457D01*
X57278091Y-32039691D01*
X57278087Y-32039695D01*
X57034773Y-32202273D01*
X56896271Y-32340774D01*
X56896269Y-32340779D01*
X56733695Y-32584087D01*
X56733691Y-32584091D01*
X56694422Y-32678897D01*
X56658736Y-32765050D01*
X56658736Y-32765052D01*
X56601646Y-33052065D01*
X56601646Y-33101507D01*
X56592000Y-33150000D01*
X55708120Y-33150000D01*
X55658711Y-33100505D01*
X55390723Y-32989227D01*
X55100550Y-32988973D01*
X54832368Y-33099784D01*
X54790579Y-33141500D01*
X54574025Y-33141500D01*
X54722827Y-32992699D01*
X54819500Y-32759310D01*
X54819500Y-32543750D01*
X54660750Y-32385000D01*
X53911500Y-32385000D01*
X53911500Y-32405000D01*
X53657500Y-32405000D01*
X53657500Y-32385000D01*
X53637500Y-32385000D01*
X53637500Y-32131000D01*
X53657500Y-32131000D01*
X53657500Y-31406750D01*
X53911500Y-31406750D01*
X53911500Y-32131000D01*
X54660750Y-32131000D01*
X54819500Y-31972250D01*
X54819500Y-31756690D01*
X54722827Y-31523301D01*
X54544198Y-31344673D01*
X54310809Y-31248000D01*
X54070250Y-31248000D01*
X53911500Y-31406750D01*
X53657500Y-31406750D01*
X53498750Y-31248000D01*
X53258191Y-31248000D01*
X53024802Y-31344673D01*
X52873876Y-31495598D01*
X52853881Y-31481936D01*
X52684500Y-31447635D01*
X51884500Y-31447635D01*
X51726263Y-31477409D01*
X51580933Y-31570927D01*
X51575265Y-31579223D01*
X51432881Y-31481936D01*
X51263500Y-31447635D01*
X50463500Y-31447635D01*
X50305263Y-31477409D01*
X50275249Y-31496723D01*
X50123198Y-31344673D01*
X49889809Y-31248000D01*
X49649250Y-31248000D01*
X49490500Y-31406750D01*
X49490500Y-32131000D01*
X49510500Y-32131000D01*
X49510500Y-32385000D01*
X49490500Y-32385000D01*
X49490500Y-32405000D01*
X49236500Y-32405000D01*
X49236500Y-32385000D01*
X48487250Y-32385000D01*
X48328500Y-32543750D01*
X48328500Y-32759310D01*
X48425173Y-32992699D01*
X48433562Y-33001087D01*
X48391409Y-33009019D01*
X48271000Y-32984635D01*
X48021000Y-32984635D01*
X47891409Y-33009019D01*
X47771000Y-32984635D01*
X47521000Y-32984635D01*
X47391409Y-33009019D01*
X47271000Y-32984635D01*
X47233660Y-32984635D01*
X47130699Y-32881673D01*
X46897310Y-32785000D01*
X46867250Y-32785000D01*
X46708500Y-32943750D01*
X46708500Y-33121001D01*
X46645420Y-33213322D01*
X46583500Y-33117097D01*
X46583500Y-32943750D01*
X46424750Y-32785000D01*
X46394690Y-32785000D01*
X46161301Y-32881673D01*
X46058340Y-32984635D01*
X46021000Y-32984635D01*
X45862763Y-33014409D01*
X45717433Y-33107927D01*
X45619936Y-33250619D01*
X45585635Y-33420000D01*
X45585635Y-34420000D01*
X45615409Y-34578237D01*
X45708927Y-34723567D01*
X45851619Y-34821064D01*
X46021000Y-34855365D01*
X46058340Y-34855365D01*
X46161301Y-34958327D01*
X46394690Y-35055000D01*
X46424750Y-35055000D01*
X46518998Y-34960752D01*
X46518998Y-35055000D01*
X46619000Y-35055000D01*
X46619000Y-36843000D01*
X45131365Y-36843000D01*
X45131365Y-36745000D01*
X45106981Y-36615409D01*
X45131365Y-36495000D01*
X45131365Y-36245000D01*
X45106981Y-36115409D01*
X45131365Y-35995000D01*
X45131365Y-35745000D01*
X45101591Y-35586763D01*
X45008073Y-35441433D01*
X44865381Y-35343936D01*
X44696000Y-35309635D01*
X43696000Y-35309635D01*
X43537763Y-35339409D01*
X43392433Y-35432927D01*
X43294936Y-35575619D01*
X43260635Y-35745000D01*
X43260635Y-35995000D01*
X43285019Y-36124591D01*
X43260635Y-36245000D01*
X43260635Y-36495000D01*
X43285019Y-36624591D01*
X43260635Y-36745000D01*
X43260635Y-36995000D01*
X43285019Y-37124591D01*
X43260635Y-37245000D01*
X43260635Y-37282340D01*
X43157673Y-37385301D01*
X43061000Y-37618690D01*
X43061000Y-37648750D01*
X43219750Y-37807500D01*
X43397001Y-37807500D01*
X43489322Y-37870580D01*
X43473540Y-37880736D01*
X43351034Y-37905104D01*
X43310033Y-37932500D01*
X43219750Y-37932500D01*
X43061000Y-38091250D01*
X43061000Y-38121310D01*
X43066758Y-38135210D01*
X41363684Y-39838284D01*
X41360865Y-39842503D01*
X41300184Y-39903184D01*
X41191104Y-40066434D01*
X41152800Y-40259000D01*
X41152800Y-42778694D01*
X41038005Y-42893289D01*
X40926727Y-43161277D01*
X40926473Y-43451450D01*
X41037284Y-43719632D01*
X41242289Y-43924995D01*
X41502070Y-44032865D01*
X41580632Y-44222999D01*
X40831921Y-44222999D01*
X40685656Y-43869011D01*
X40397008Y-43579860D01*
X40019679Y-43423179D01*
X39611113Y-43422822D01*
X39233511Y-43578844D01*
X38944360Y-43867492D01*
X38787679Y-44244821D01*
X38787322Y-44653387D01*
X38943344Y-45030989D01*
X39231992Y-45320140D01*
X39609321Y-45476821D01*
X39671821Y-45476876D01*
X39829722Y-45634777D01*
X40098020Y-45814047D01*
X40287816Y-45851800D01*
X38945806Y-45851800D01*
X38831211Y-45737005D01*
X38563223Y-45625727D01*
X38273050Y-45625473D01*
X38137934Y-45681302D01*
X37714200Y-45257568D01*
X37714200Y-40068500D01*
X37681698Y-39905104D01*
X37675896Y-39875933D01*
X37566816Y-39712684D01*
X36868316Y-39014184D01*
X36705066Y-38905104D01*
X36512500Y-38866800D01*
X36063200Y-38866800D01*
X36063200Y-36088306D01*
X36177995Y-35973711D01*
X36289273Y-35705723D01*
X36289527Y-35415550D01*
X36178716Y-35147368D01*
X36031605Y-35000000D01*
X37998000Y-35000000D01*
X38150393Y-35766132D01*
X38584372Y-36415628D01*
X39233868Y-36849607D01*
X40000000Y-37002000D01*
X40766132Y-36849607D01*
X41415628Y-36415628D01*
X41849607Y-35766132D01*
X42002000Y-35000000D01*
X41849607Y-34233868D01*
X41415628Y-33584372D01*
X40766132Y-33150393D01*
X40000000Y-32998000D01*
X39233868Y-33150393D01*
X38584372Y-33584372D01*
X38150393Y-34233868D01*
X37998000Y-35000000D01*
X36031605Y-35000000D01*
X35973711Y-34942005D01*
X35705723Y-34830727D01*
X35415550Y-34830473D01*
X35147368Y-34941284D01*
X34942005Y-35146289D01*
X34830727Y-35414277D01*
X34830473Y-35704450D01*
X34941284Y-35972632D01*
X35056800Y-36088350D01*
X35056800Y-38866800D01*
X33784285Y-38866800D01*
X33784527Y-38590550D01*
X33673716Y-38322368D01*
X33468711Y-38117005D01*
X33200723Y-38005727D01*
X32910550Y-38005473D01*
X32642368Y-38116284D01*
X32593094Y-38165472D01*
X32544711Y-38117005D01*
X32276723Y-38005727D01*
X31986550Y-38005473D01*
X31718368Y-38116284D01*
X31513005Y-38321289D01*
X31401727Y-38589277D01*
X31401473Y-38879450D01*
X31512284Y-39147632D01*
X31717289Y-39352995D01*
X31985277Y-39464273D01*
X32148784Y-39464416D01*
X32410184Y-39725816D01*
X32573434Y-39834896D01*
X32766000Y-39873200D01*
X36304068Y-39873200D01*
X36707800Y-40276932D01*
X36707800Y-45466000D01*
X36746104Y-45658566D01*
X36855184Y-45821816D01*
X37388368Y-46355000D01*
X37109184Y-46634184D01*
X37000104Y-46797434D01*
X36982600Y-46885430D01*
X36847005Y-47020789D01*
X36735727Y-47288777D01*
X36735473Y-47578950D01*
X36846284Y-47847132D01*
X37051289Y-48052495D01*
X37319277Y-48163773D01*
X37609450Y-48164027D01*
X37877632Y-48053216D01*
X38082995Y-47848211D01*
X38111444Y-47779697D01*
X38271777Y-47846273D01*
X38561950Y-47846527D01*
X38830132Y-47735716D01*
X38945850Y-47620200D01*
X41294395Y-47620200D01*
X41243368Y-47641284D01*
X41038005Y-47846289D01*
X40926727Y-48114277D01*
X40926473Y-48404450D01*
X41037284Y-48672632D01*
X41152800Y-48788350D01*
X41152800Y-49426884D01*
X41191104Y-49619450D01*
X41300184Y-49782700D01*
X42379851Y-50862367D01*
X42333841Y-50831624D01*
X41787752Y-50723000D01*
X40712248Y-50723000D01*
X40166159Y-50831624D01*
X39703207Y-51140959D01*
X39393872Y-51603911D01*
X39285248Y-52150000D01*
X39393872Y-52696089D01*
X39703207Y-53159041D01*
X40166159Y-53468376D01*
X40183165Y-53471759D01*
X40008530Y-53588446D01*
X39775066Y-53937850D01*
X39693084Y-54350000D01*
X39775066Y-54762150D01*
X40008530Y-55111554D01*
X40357934Y-55345018D01*
X40382980Y-55350000D01*
X40357934Y-55354982D01*
X40256138Y-55423000D01*
X38913740Y-55423000D01*
X38910222Y-55417735D01*
X38528375Y-55162594D01*
X38077957Y-55073000D01*
X37522043Y-55073000D01*
X37071625Y-55162594D01*
X36689778Y-55417735D01*
X36434637Y-55799582D01*
X36345043Y-56250000D01*
X36434637Y-56700418D01*
X36689778Y-57082265D01*
X37071625Y-57337406D01*
X37334517Y-57389699D01*
X36928279Y-57500036D01*
X36497264Y-57833106D01*
X36226519Y-58305765D01*
X36207682Y-58408815D01*
X36330343Y-58622998D01*
X36165000Y-58622998D01*
X36165000Y-58661778D01*
X35945723Y-58570727D01*
X35655550Y-58570473D01*
X35528425Y-58623000D01*
X34600000Y-58623000D01*
X34340924Y-58674533D01*
X34121289Y-58821288D01*
X31121289Y-61821289D01*
X30974534Y-62040923D01*
X30923000Y-62300000D01*
X30923000Y-62364635D01*
X30502000Y-62364635D01*
X30502000Y-33207936D01*
X31953245Y-31756690D01*
X48328500Y-31756690D01*
X48328500Y-31972250D01*
X48487250Y-32131000D01*
X49236500Y-32131000D01*
X49236500Y-31406750D01*
X49077750Y-31248000D01*
X48837191Y-31248000D01*
X48603802Y-31344673D01*
X48425173Y-31523301D01*
X48328500Y-31756690D01*
X31953245Y-31756690D01*
X33207935Y-30502000D01*
X71792064Y-30502000D01*
X74498000Y-33207935D01*
G36*
X48247908Y-63391780D02*
X48411158Y-63500860D01*
X48603724Y-63539164D01*
X48736465Y-63539164D01*
X48589870Y-63685759D01*
X48589870Y-63910265D01*
X49119670Y-64440065D01*
X49133813Y-64425923D01*
X49313418Y-64605528D01*
X49299275Y-64619670D01*
X49313418Y-64633813D01*
X49133813Y-64813418D01*
X49119670Y-64799275D01*
X48607548Y-65311397D01*
X48607548Y-65535904D01*
X48777649Y-65706005D01*
X49011038Y-65802677D01*
X49224478Y-65802678D01*
X49228956Y-65826477D01*
X49324472Y-65970502D01*
X49890158Y-66536188D01*
X50019630Y-66624652D01*
X49890000Y-66818657D01*
X49629041Y-66428105D01*
X49166089Y-66118770D01*
X48620000Y-66010146D01*
X48073911Y-66118770D01*
X47815000Y-66291769D01*
X47815000Y-66172998D01*
X47656252Y-66172998D01*
X47815000Y-66014250D01*
X47815000Y-65848690D01*
X47718327Y-65615301D01*
X47615365Y-65512340D01*
X47615365Y-65025000D01*
X47585591Y-64866763D01*
X47492073Y-64721433D01*
X47349381Y-64623936D01*
X47180000Y-64589635D01*
X47054493Y-64589635D01*
X47005816Y-64516784D01*
X46964715Y-64475683D01*
X47936662Y-64475683D01*
X47936663Y-64728302D01*
X48033335Y-64961691D01*
X48203436Y-65131792D01*
X48427943Y-65131792D01*
X48940065Y-64619670D01*
X48410265Y-64089870D01*
X48185759Y-64089870D01*
X48033335Y-64242294D01*
X47936662Y-64475683D01*
X46964715Y-64475683D01*
X46491189Y-64002157D01*
X46491189Y-62779376D01*
X46663440Y-62779527D01*
X46931622Y-62668716D01*
X47047340Y-62553200D01*
X47409328Y-62553200D01*
X48247908Y-63391780D01*
X48247908Y-63391780D01*
G37*
X48247908Y-63391780D02*
X48411158Y-63500860D01*
X48603724Y-63539164D01*
X48736465Y-63539164D01*
X48589870Y-63685759D01*
X48589870Y-63910265D01*
X49119670Y-64440065D01*
X49133813Y-64425923D01*
X49313418Y-64605528D01*
X49299275Y-64619670D01*
X49313418Y-64633813D01*
X49133813Y-64813418D01*
X49119670Y-64799275D01*
X48607548Y-65311397D01*
X48607548Y-65535904D01*
X48777649Y-65706005D01*
X49011038Y-65802677D01*
X49224478Y-65802678D01*
X49228956Y-65826477D01*
X49324472Y-65970502D01*
X49890158Y-66536188D01*
X50019630Y-66624652D01*
X49890000Y-66818657D01*
X49629041Y-66428105D01*
X49166089Y-66118770D01*
X48620000Y-66010146D01*
X48073911Y-66118770D01*
X47815000Y-66291769D01*
X47815000Y-66172998D01*
X47656252Y-66172998D01*
X47815000Y-66014250D01*
X47815000Y-65848690D01*
X47718327Y-65615301D01*
X47615365Y-65512340D01*
X47615365Y-65025000D01*
X47585591Y-64866763D01*
X47492073Y-64721433D01*
X47349381Y-64623936D01*
X47180000Y-64589635D01*
X47054493Y-64589635D01*
X47005816Y-64516784D01*
X46964715Y-64475683D01*
X47936662Y-64475683D01*
X47936663Y-64728302D01*
X48033335Y-64961691D01*
X48203436Y-65131792D01*
X48427943Y-65131792D01*
X48940065Y-64619670D01*
X48410265Y-64089870D01*
X48185759Y-64089870D01*
X48033335Y-64242294D01*
X47936662Y-64475683D01*
X46964715Y-64475683D01*
X46491189Y-64002157D01*
X46491189Y-62779376D01*
X46663440Y-62779527D01*
X46931622Y-62668716D01*
X47047340Y-62553200D01*
X47409328Y-62553200D01*
X48247908Y-63391780D01*
G36*
X46777000Y-66173000D02*
X46797000Y-66173000D01*
X46797000Y-66427000D01*
X46777000Y-66427000D01*
X46777000Y-66447000D01*
X46523000Y-66447000D01*
X46523000Y-66427000D01*
X46503000Y-66427000D01*
X46503000Y-66173000D01*
X46523000Y-66173000D01*
X46523000Y-66153000D01*
X46777000Y-66153000D01*
X46777000Y-66173000D01*
X46777000Y-66173000D01*
G37*
X46777000Y-66173000D02*
X46797000Y-66173000D01*
X46797000Y-66427000D01*
X46777000Y-66427000D01*
X46777000Y-66447000D01*
X46523000Y-66447000D01*
X46523000Y-66427000D01*
X46503000Y-66427000D01*
X46503000Y-66173000D01*
X46523000Y-66173000D01*
X46523000Y-66153000D01*
X46777000Y-66153000D01*
X46777000Y-66173000D01*
G36*
X47063901Y-56097495D02*
X47196845Y-56188331D01*
X47245019Y-56198781D01*
X47286368Y-56298607D01*
X47491825Y-56504064D01*
X47716331Y-56504064D01*
X48141479Y-56078916D01*
X48127337Y-56064774D01*
X48304114Y-55887997D01*
X48318256Y-55902139D01*
X48333813Y-55886583D01*
X48513418Y-56066188D01*
X48497861Y-56081744D01*
X48512004Y-56095887D01*
X48494129Y-56113761D01*
X48301818Y-56113761D01*
X48236368Y-56179210D01*
X48139696Y-56412599D01*
X48139696Y-56439909D01*
X47906923Y-56672682D01*
X47888077Y-56680469D01*
X47753057Y-56815254D01*
X47750000Y-56814635D01*
X47250000Y-56814635D01*
X47091763Y-56844409D01*
X46946433Y-56937927D01*
X46848936Y-57080619D01*
X46814635Y-57250000D01*
X46814635Y-58150000D01*
X46844409Y-58308237D01*
X46937927Y-58453567D01*
X47080619Y-58551064D01*
X47250000Y-58585365D01*
X47293275Y-58585365D01*
X47293164Y-58712004D01*
X45632173Y-60372995D01*
X45523093Y-60536245D01*
X45484789Y-60728811D01*
X45484789Y-64210589D01*
X45523093Y-64403155D01*
X45607312Y-64529198D01*
X42827179Y-61749065D01*
X42995922Y-61616317D01*
X43309144Y-61058355D01*
X43340124Y-60930434D01*
X43220777Y-60677000D01*
X41377000Y-60677000D01*
X41377000Y-60697000D01*
X41123000Y-60697000D01*
X41123000Y-60677000D01*
X41103000Y-60677000D01*
X41103000Y-60423000D01*
X41123000Y-60423000D01*
X41123000Y-60403000D01*
X41377000Y-60403000D01*
X41377000Y-60423000D01*
X43220777Y-60423000D01*
X43340124Y-60169566D01*
X43309144Y-60041645D01*
X42995922Y-59483683D01*
X42502294Y-59095354D01*
X42724934Y-58762150D01*
X42806916Y-58350000D01*
X42724934Y-57937850D01*
X42491470Y-57588446D01*
X42142066Y-57354982D01*
X42117020Y-57350000D01*
X42142066Y-57345018D01*
X42491470Y-57111554D01*
X42579064Y-56980461D01*
X42622794Y-57045908D01*
X42911303Y-57334417D01*
X43074552Y-57443497D01*
X43267119Y-57481801D01*
X45546399Y-57481801D01*
X45738965Y-57443497D01*
X45902215Y-57334417D01*
X46047937Y-57188695D01*
X46136185Y-57248991D01*
X46305077Y-57285628D01*
X46474916Y-57253671D01*
X46618941Y-57158155D01*
X46972495Y-56804601D01*
X47063331Y-56671657D01*
X47099968Y-56502765D01*
X47068011Y-56332926D01*
X46972495Y-56188901D01*
X46505262Y-55721668D01*
X46596668Y-55630262D01*
X47063901Y-56097495D01*
X47063901Y-56097495D01*
G37*
X47063901Y-56097495D02*
X47196845Y-56188331D01*
X47245019Y-56198781D01*
X47286368Y-56298607D01*
X47491825Y-56504064D01*
X47716331Y-56504064D01*
X48141479Y-56078916D01*
X48127337Y-56064774D01*
X48304114Y-55887997D01*
X48318256Y-55902139D01*
X48333813Y-55886583D01*
X48513418Y-56066188D01*
X48497861Y-56081744D01*
X48512004Y-56095887D01*
X48494129Y-56113761D01*
X48301818Y-56113761D01*
X48236368Y-56179210D01*
X48139696Y-56412599D01*
X48139696Y-56439909D01*
X47906923Y-56672682D01*
X47888077Y-56680469D01*
X47753057Y-56815254D01*
X47750000Y-56814635D01*
X47250000Y-56814635D01*
X47091763Y-56844409D01*
X46946433Y-56937927D01*
X46848936Y-57080619D01*
X46814635Y-57250000D01*
X46814635Y-58150000D01*
X46844409Y-58308237D01*
X46937927Y-58453567D01*
X47080619Y-58551064D01*
X47250000Y-58585365D01*
X47293275Y-58585365D01*
X47293164Y-58712004D01*
X45632173Y-60372995D01*
X45523093Y-60536245D01*
X45484789Y-60728811D01*
X45484789Y-64210589D01*
X45523093Y-64403155D01*
X45607312Y-64529198D01*
X42827179Y-61749065D01*
X42995922Y-61616317D01*
X43309144Y-61058355D01*
X43340124Y-60930434D01*
X43220777Y-60677000D01*
X41377000Y-60677000D01*
X41377000Y-60697000D01*
X41123000Y-60697000D01*
X41123000Y-60677000D01*
X41103000Y-60677000D01*
X41103000Y-60423000D01*
X41123000Y-60423000D01*
X41123000Y-60403000D01*
X41377000Y-60403000D01*
X41377000Y-60423000D01*
X43220777Y-60423000D01*
X43340124Y-60169566D01*
X43309144Y-60041645D01*
X42995922Y-59483683D01*
X42502294Y-59095354D01*
X42724934Y-58762150D01*
X42806916Y-58350000D01*
X42724934Y-57937850D01*
X42491470Y-57588446D01*
X42142066Y-57354982D01*
X42117020Y-57350000D01*
X42142066Y-57345018D01*
X42491470Y-57111554D01*
X42579064Y-56980461D01*
X42622794Y-57045908D01*
X42911303Y-57334417D01*
X43074552Y-57443497D01*
X43267119Y-57481801D01*
X45546399Y-57481801D01*
X45738965Y-57443497D01*
X45902215Y-57334417D01*
X46047937Y-57188695D01*
X46136185Y-57248991D01*
X46305077Y-57285628D01*
X46474916Y-57253671D01*
X46618941Y-57158155D01*
X46972495Y-56804601D01*
X47063331Y-56671657D01*
X47099968Y-56502765D01*
X47068011Y-56332926D01*
X46972495Y-56188901D01*
X46505262Y-55721668D01*
X46596668Y-55630262D01*
X47063901Y-56097495D01*
G36*
X55230959Y-53771895D02*
X55670013Y-54065262D01*
X55706922Y-54250808D01*
X55831999Y-54438001D01*
X56470200Y-55076202D01*
X56470200Y-55240595D01*
X57000000Y-55770395D01*
X57014143Y-55756253D01*
X57193748Y-55935858D01*
X57179605Y-55950000D01*
X57193748Y-55964143D01*
X57014143Y-56143748D01*
X57000000Y-56129605D01*
X56515931Y-56613674D01*
X56470668Y-56622191D01*
X56326643Y-56717707D01*
X55478115Y-57566235D01*
X55387279Y-57699179D01*
X55374511Y-57758038D01*
X55185455Y-57947094D01*
X55185455Y-58171601D01*
X55284846Y-58270992D01*
X55518235Y-58367664D01*
X55663844Y-58367664D01*
X55716651Y-58420471D01*
X55716651Y-58566080D01*
X55813323Y-58799469D01*
X55912714Y-58898860D01*
X56137221Y-58898860D01*
X56325167Y-58710914D01*
X56374054Y-58701715D01*
X56518079Y-58606199D01*
X57046288Y-58077990D01*
X57137695Y-58169397D01*
X56609486Y-58697606D01*
X56518650Y-58830550D01*
X56505882Y-58889409D01*
X56316826Y-59078465D01*
X56316826Y-59302972D01*
X56416217Y-59402363D01*
X56649606Y-59499035D01*
X56795215Y-59499035D01*
X57033750Y-59737570D01*
X57120849Y-59797082D01*
X57175171Y-59878992D01*
X57599435Y-60303256D01*
X57686537Y-60362770D01*
X57740857Y-60444677D01*
X58165121Y-60868941D01*
X58285525Y-60951209D01*
X58165121Y-61031059D01*
X58133188Y-61062992D01*
X57934790Y-60864246D01*
X57630942Y-60738078D01*
X57301941Y-60737791D01*
X56997874Y-60863429D01*
X56765032Y-61095864D01*
X56638864Y-61399712D01*
X56638710Y-61575942D01*
X54652056Y-63562596D01*
X53660404Y-63562596D01*
X53439596Y-63606518D01*
X53252403Y-63731595D01*
X53252401Y-63731598D01*
X53160989Y-63823009D01*
X52986221Y-63822857D01*
X52682154Y-63948495D01*
X52449312Y-64180930D01*
X52430369Y-64226549D01*
X52063306Y-63859486D01*
X51976206Y-63799974D01*
X51921885Y-63718065D01*
X51683349Y-63479529D01*
X51683349Y-63333920D01*
X51586677Y-63100531D01*
X51487286Y-63001140D01*
X51262779Y-63001140D01*
X51074833Y-63189086D01*
X51025946Y-63198285D01*
X50881921Y-63293801D01*
X50353712Y-63822010D01*
X50262305Y-63730603D01*
X50790514Y-63202394D01*
X50881350Y-63069450D01*
X50894118Y-63010591D01*
X51083174Y-62821535D01*
X51083174Y-62597028D01*
X50983783Y-62497637D01*
X50750394Y-62400965D01*
X50604785Y-62400965D01*
X50366250Y-62162430D01*
X50279151Y-62102918D01*
X50224829Y-62021008D01*
X49800565Y-61596744D01*
X49713463Y-61537230D01*
X49659143Y-61455323D01*
X49234879Y-61031059D01*
X49114475Y-60948791D01*
X49234879Y-60868941D01*
X49659143Y-60444677D01*
X49718655Y-60357578D01*
X49800565Y-60303256D01*
X50224829Y-59878992D01*
X50284343Y-59791890D01*
X50366250Y-59737570D01*
X50790514Y-59313306D01*
X50850026Y-59226206D01*
X50931935Y-59171885D01*
X51353937Y-58749883D01*
X52291494Y-59687440D01*
X52454743Y-59796520D01*
X52647310Y-59834824D01*
X52866325Y-59834824D01*
X52980920Y-59949619D01*
X53248908Y-60060897D01*
X53539081Y-60061151D01*
X53807263Y-59950340D01*
X54012626Y-59745335D01*
X54123904Y-59477347D01*
X54124158Y-59187174D01*
X54013347Y-58918992D01*
X53808342Y-58713629D01*
X53540354Y-58602351D01*
X53250181Y-58602097D01*
X52981999Y-58712908D01*
X52866281Y-58828424D01*
X52855742Y-58828424D01*
X52065569Y-58038251D01*
X52487570Y-57616250D01*
X52547082Y-57529151D01*
X52628992Y-57474829D01*
X53053256Y-57050565D01*
X53112770Y-56963463D01*
X53194677Y-56909143D01*
X53618941Y-56484879D01*
X53701209Y-56364475D01*
X53735747Y-56416555D01*
X53727131Y-56459871D01*
X53727131Y-57216654D01*
X53619657Y-57323941D01*
X53508379Y-57591929D01*
X53508125Y-57882102D01*
X53618936Y-58150284D01*
X53823941Y-58355647D01*
X54091929Y-58466925D01*
X54382102Y-58467179D01*
X54650284Y-58356368D01*
X54855647Y-58151363D01*
X54966925Y-57883375D01*
X54967026Y-57767489D01*
X55005850Y-57767489D01*
X55193795Y-57579544D01*
X55242683Y-57570345D01*
X55386708Y-57474829D01*
X56235236Y-56626301D01*
X56326072Y-56493357D01*
X56338840Y-56434499D01*
X56527897Y-56245442D01*
X56527897Y-56242498D01*
X56820395Y-55950000D01*
X56290595Y-55420200D01*
X56066089Y-55420200D01*
X55913665Y-55572624D01*
X55879570Y-55654935D01*
X55810972Y-55586337D01*
X55723873Y-55526825D01*
X55669551Y-55444915D01*
X55245287Y-55020651D01*
X55196019Y-54986988D01*
X55190201Y-54957739D01*
X55081121Y-54794489D01*
X55010365Y-54723733D01*
X55010365Y-54300000D01*
X54980591Y-54141763D01*
X54887073Y-53996433D01*
X54800619Y-53937362D01*
X55094393Y-53567510D01*
X55230959Y-53771895D01*
X55230959Y-53771895D01*
G37*
X55230959Y-53771895D02*
X55670013Y-54065262D01*
X55706922Y-54250808D01*
X55831999Y-54438001D01*
X56470200Y-55076202D01*
X56470200Y-55240595D01*
X57000000Y-55770395D01*
X57014143Y-55756253D01*
X57193748Y-55935858D01*
X57179605Y-55950000D01*
X57193748Y-55964143D01*
X57014143Y-56143748D01*
X57000000Y-56129605D01*
X56515931Y-56613674D01*
X56470668Y-56622191D01*
X56326643Y-56717707D01*
X55478115Y-57566235D01*
X55387279Y-57699179D01*
X55374511Y-57758038D01*
X55185455Y-57947094D01*
X55185455Y-58171601D01*
X55284846Y-58270992D01*
X55518235Y-58367664D01*
X55663844Y-58367664D01*
X55716651Y-58420471D01*
X55716651Y-58566080D01*
X55813323Y-58799469D01*
X55912714Y-58898860D01*
X56137221Y-58898860D01*
X56325167Y-58710914D01*
X56374054Y-58701715D01*
X56518079Y-58606199D01*
X57046288Y-58077990D01*
X57137695Y-58169397D01*
X56609486Y-58697606D01*
X56518650Y-58830550D01*
X56505882Y-58889409D01*
X56316826Y-59078465D01*
X56316826Y-59302972D01*
X56416217Y-59402363D01*
X56649606Y-59499035D01*
X56795215Y-59499035D01*
X57033750Y-59737570D01*
X57120849Y-59797082D01*
X57175171Y-59878992D01*
X57599435Y-60303256D01*
X57686537Y-60362770D01*
X57740857Y-60444677D01*
X58165121Y-60868941D01*
X58285525Y-60951209D01*
X58165121Y-61031059D01*
X58133188Y-61062992D01*
X57934790Y-60864246D01*
X57630942Y-60738078D01*
X57301941Y-60737791D01*
X56997874Y-60863429D01*
X56765032Y-61095864D01*
X56638864Y-61399712D01*
X56638710Y-61575942D01*
X54652056Y-63562596D01*
X53660404Y-63562596D01*
X53439596Y-63606518D01*
X53252403Y-63731595D01*
X53252401Y-63731598D01*
X53160989Y-63823009D01*
X52986221Y-63822857D01*
X52682154Y-63948495D01*
X52449312Y-64180930D01*
X52430369Y-64226549D01*
X52063306Y-63859486D01*
X51976206Y-63799974D01*
X51921885Y-63718065D01*
X51683349Y-63479529D01*
X51683349Y-63333920D01*
X51586677Y-63100531D01*
X51487286Y-63001140D01*
X51262779Y-63001140D01*
X51074833Y-63189086D01*
X51025946Y-63198285D01*
X50881921Y-63293801D01*
X50353712Y-63822010D01*
X50262305Y-63730603D01*
X50790514Y-63202394D01*
X50881350Y-63069450D01*
X50894118Y-63010591D01*
X51083174Y-62821535D01*
X51083174Y-62597028D01*
X50983783Y-62497637D01*
X50750394Y-62400965D01*
X50604785Y-62400965D01*
X50366250Y-62162430D01*
X50279151Y-62102918D01*
X50224829Y-62021008D01*
X49800565Y-61596744D01*
X49713463Y-61537230D01*
X49659143Y-61455323D01*
X49234879Y-61031059D01*
X49114475Y-60948791D01*
X49234879Y-60868941D01*
X49659143Y-60444677D01*
X49718655Y-60357578D01*
X49800565Y-60303256D01*
X50224829Y-59878992D01*
X50284343Y-59791890D01*
X50366250Y-59737570D01*
X50790514Y-59313306D01*
X50850026Y-59226206D01*
X50931935Y-59171885D01*
X51353937Y-58749883D01*
X52291494Y-59687440D01*
X52454743Y-59796520D01*
X52647310Y-59834824D01*
X52866325Y-59834824D01*
X52980920Y-59949619D01*
X53248908Y-60060897D01*
X53539081Y-60061151D01*
X53807263Y-59950340D01*
X54012626Y-59745335D01*
X54123904Y-59477347D01*
X54124158Y-59187174D01*
X54013347Y-58918992D01*
X53808342Y-58713629D01*
X53540354Y-58602351D01*
X53250181Y-58602097D01*
X52981999Y-58712908D01*
X52866281Y-58828424D01*
X52855742Y-58828424D01*
X52065569Y-58038251D01*
X52487570Y-57616250D01*
X52547082Y-57529151D01*
X52628992Y-57474829D01*
X53053256Y-57050565D01*
X53112770Y-56963463D01*
X53194677Y-56909143D01*
X53618941Y-56484879D01*
X53701209Y-56364475D01*
X53735747Y-56416555D01*
X53727131Y-56459871D01*
X53727131Y-57216654D01*
X53619657Y-57323941D01*
X53508379Y-57591929D01*
X53508125Y-57882102D01*
X53618936Y-58150284D01*
X53823941Y-58355647D01*
X54091929Y-58466925D01*
X54382102Y-58467179D01*
X54650284Y-58356368D01*
X54855647Y-58151363D01*
X54966925Y-57883375D01*
X54967026Y-57767489D01*
X55005850Y-57767489D01*
X55193795Y-57579544D01*
X55242683Y-57570345D01*
X55386708Y-57474829D01*
X56235236Y-56626301D01*
X56326072Y-56493357D01*
X56338840Y-56434499D01*
X56527897Y-56245442D01*
X56527897Y-56242498D01*
X56820395Y-55950000D01*
X56290595Y-55420200D01*
X56066089Y-55420200D01*
X55913665Y-55572624D01*
X55879570Y-55654935D01*
X55810972Y-55586337D01*
X55723873Y-55526825D01*
X55669551Y-55444915D01*
X55245287Y-55020651D01*
X55196019Y-54986988D01*
X55190201Y-54957739D01*
X55081121Y-54794489D01*
X55010365Y-54723733D01*
X55010365Y-54300000D01*
X54980591Y-54141763D01*
X54887073Y-53996433D01*
X54800619Y-53937362D01*
X55094393Y-53567510D01*
X55230959Y-53771895D01*
G36*
X37927000Y-58623000D02*
X37947000Y-58623000D01*
X37947000Y-58877000D01*
X37927000Y-58877000D01*
X37927000Y-58897000D01*
X37673000Y-58897000D01*
X37673000Y-58877000D01*
X37653000Y-58877000D01*
X37653000Y-58623000D01*
X37673000Y-58623000D01*
X37673000Y-58603000D01*
X37927000Y-58603000D01*
X37927000Y-58623000D01*
X37927000Y-58623000D01*
G37*
X37927000Y-58623000D02*
X37947000Y-58623000D01*
X37947000Y-58877000D01*
X37927000Y-58877000D01*
X37927000Y-58897000D01*
X37673000Y-58897000D01*
X37673000Y-58877000D01*
X37653000Y-58877000D01*
X37653000Y-58623000D01*
X37673000Y-58623000D01*
X37673000Y-58603000D01*
X37927000Y-58603000D01*
X37927000Y-58623000D01*
G36*
X49435629Y-56722261D02*
X49327550Y-56830340D01*
X49250000Y-56814635D01*
X49196085Y-56814635D01*
X49157936Y-56776486D01*
X49176685Y-56757737D01*
X49065847Y-56646899D01*
X49287522Y-56646899D01*
X49323895Y-56610527D01*
X49435629Y-56722261D01*
X49435629Y-56722261D01*
G37*
X49435629Y-56722261D02*
X49327550Y-56830340D01*
X49250000Y-56814635D01*
X49196085Y-56814635D01*
X49157936Y-56776486D01*
X49176685Y-56757737D01*
X49065847Y-56646899D01*
X49287522Y-56646899D01*
X49323895Y-56610527D01*
X49435629Y-56722261D01*
G36*
X45027000Y-52503000D02*
X45047000Y-52503000D01*
X45047000Y-52757000D01*
X45027000Y-52757000D01*
X45027000Y-52777000D01*
X44773000Y-52777000D01*
X44773000Y-52757000D01*
X44753000Y-52757000D01*
X44753000Y-52503000D01*
X44773000Y-52503000D01*
X44773000Y-52483000D01*
X45027000Y-52483000D01*
X45027000Y-52503000D01*
X45027000Y-52503000D01*
G37*
X45027000Y-52503000D02*
X45047000Y-52503000D01*
X45047000Y-52757000D01*
X45027000Y-52757000D01*
X45027000Y-52777000D01*
X44773000Y-52777000D01*
X44773000Y-52757000D01*
X44753000Y-52757000D01*
X44753000Y-52503000D01*
X44773000Y-52503000D01*
X44773000Y-52483000D01*
X45027000Y-52483000D01*
X45027000Y-52503000D01*
G36*
X50521000Y-46255365D02*
X50741507Y-46255365D01*
X50790184Y-46328216D01*
X51611611Y-47149643D01*
X51417550Y-47149473D01*
X51149368Y-47260284D01*
X50944005Y-47465289D01*
X50832727Y-47733277D01*
X50832473Y-48023450D01*
X50943284Y-48291632D01*
X51058800Y-48407350D01*
X51058800Y-48506795D01*
X50991763Y-48519409D01*
X50846433Y-48612927D01*
X50748936Y-48755619D01*
X50714635Y-48925000D01*
X50714635Y-49425000D01*
X50744409Y-49583237D01*
X50837927Y-49728567D01*
X50938804Y-49797493D01*
X50900000Y-49789635D01*
X50400000Y-49789635D01*
X50241763Y-49819409D01*
X50096433Y-49912927D01*
X49998936Y-50055619D01*
X49964635Y-50225000D01*
X49964635Y-51125000D01*
X49994409Y-51283237D01*
X50040026Y-51354128D01*
X49890000Y-51578657D01*
X49749994Y-51369124D01*
X49801064Y-51294381D01*
X49835365Y-51125000D01*
X49835365Y-50225000D01*
X49805591Y-50066763D01*
X49712073Y-49921433D01*
X49569381Y-49823936D01*
X49400000Y-49789635D01*
X48900000Y-49789635D01*
X48860265Y-49797112D01*
X48953567Y-49737073D01*
X49051064Y-49594381D01*
X49085365Y-49425000D01*
X49085365Y-48925000D01*
X49055591Y-48766763D01*
X48962073Y-48621433D01*
X48925641Y-48596540D01*
X48925773Y-48596223D01*
X48926027Y-48306050D01*
X48815216Y-48037868D01*
X48610211Y-47832505D01*
X48342223Y-47721227D01*
X48052050Y-47720973D01*
X47783868Y-47831784D01*
X47578505Y-48036789D01*
X47467227Y-48304777D01*
X47466973Y-48594950D01*
X47468527Y-48598710D01*
X47446433Y-48612927D01*
X47348936Y-48755619D01*
X47314635Y-48925000D01*
X47314635Y-49425000D01*
X47344409Y-49583237D01*
X47437927Y-49728567D01*
X47580619Y-49826064D01*
X47750000Y-49860365D01*
X48650000Y-49860365D01*
X48689735Y-49852888D01*
X48596433Y-49912927D01*
X48544021Y-49989635D01*
X47750000Y-49989635D01*
X47591763Y-50019409D01*
X47446433Y-50112927D01*
X47348936Y-50255619D01*
X47314635Y-50425000D01*
X47314635Y-50648733D01*
X47265265Y-50698103D01*
X47100000Y-50664635D01*
X46600000Y-50664635D01*
X46441763Y-50694409D01*
X46296433Y-50787927D01*
X46198936Y-50930619D01*
X46164635Y-51100000D01*
X46164635Y-51250603D01*
X46108216Y-51194184D01*
X46035365Y-51145507D01*
X46035365Y-51100000D01*
X46005591Y-50941763D01*
X45912073Y-50796433D01*
X45769381Y-50698936D01*
X45600000Y-50664635D01*
X45100000Y-50664635D01*
X44941763Y-50694409D01*
X44796433Y-50787927D01*
X44778995Y-50813448D01*
X44746788Y-50800075D01*
X44417787Y-50799788D01*
X44203200Y-50888454D01*
X44203200Y-50748500D01*
X44164896Y-50555934D01*
X44164896Y-50555933D01*
X44055816Y-50392684D01*
X42956829Y-49293697D01*
X42957027Y-49068050D01*
X42846216Y-48799868D01*
X42641211Y-48594505D01*
X42373223Y-48483227D01*
X42353098Y-48483209D01*
X42385273Y-48405723D01*
X42385527Y-48115550D01*
X42274716Y-47847368D01*
X42069711Y-47642005D01*
X42017199Y-47620200D01*
X48006000Y-47620200D01*
X48198566Y-47581896D01*
X48361816Y-47472816D01*
X48801716Y-47032916D01*
X48810979Y-47019053D01*
X49501816Y-46328216D01*
X49550493Y-46255365D01*
X49771000Y-46255365D01*
X49900591Y-46230981D01*
X50021000Y-46255365D01*
X50271000Y-46255365D01*
X50400591Y-46230981D01*
X50521000Y-46255365D01*
X50521000Y-46255365D01*
G37*
X50521000Y-46255365D02*
X50741507Y-46255365D01*
X50790184Y-46328216D01*
X51611611Y-47149643D01*
X51417550Y-47149473D01*
X51149368Y-47260284D01*
X50944005Y-47465289D01*
X50832727Y-47733277D01*
X50832473Y-48023450D01*
X50943284Y-48291632D01*
X51058800Y-48407350D01*
X51058800Y-48506795D01*
X50991763Y-48519409D01*
X50846433Y-48612927D01*
X50748936Y-48755619D01*
X50714635Y-48925000D01*
X50714635Y-49425000D01*
X50744409Y-49583237D01*
X50837927Y-49728567D01*
X50938804Y-49797493D01*
X50900000Y-49789635D01*
X50400000Y-49789635D01*
X50241763Y-49819409D01*
X50096433Y-49912927D01*
X49998936Y-50055619D01*
X49964635Y-50225000D01*
X49964635Y-51125000D01*
X49994409Y-51283237D01*
X50040026Y-51354128D01*
X49890000Y-51578657D01*
X49749994Y-51369124D01*
X49801064Y-51294381D01*
X49835365Y-51125000D01*
X49835365Y-50225000D01*
X49805591Y-50066763D01*
X49712073Y-49921433D01*
X49569381Y-49823936D01*
X49400000Y-49789635D01*
X48900000Y-49789635D01*
X48860265Y-49797112D01*
X48953567Y-49737073D01*
X49051064Y-49594381D01*
X49085365Y-49425000D01*
X49085365Y-48925000D01*
X49055591Y-48766763D01*
X48962073Y-48621433D01*
X48925641Y-48596540D01*
X48925773Y-48596223D01*
X48926027Y-48306050D01*
X48815216Y-48037868D01*
X48610211Y-47832505D01*
X48342223Y-47721227D01*
X48052050Y-47720973D01*
X47783868Y-47831784D01*
X47578505Y-48036789D01*
X47467227Y-48304777D01*
X47466973Y-48594950D01*
X47468527Y-48598710D01*
X47446433Y-48612927D01*
X47348936Y-48755619D01*
X47314635Y-48925000D01*
X47314635Y-49425000D01*
X47344409Y-49583237D01*
X47437927Y-49728567D01*
X47580619Y-49826064D01*
X47750000Y-49860365D01*
X48650000Y-49860365D01*
X48689735Y-49852888D01*
X48596433Y-49912927D01*
X48544021Y-49989635D01*
X47750000Y-49989635D01*
X47591763Y-50019409D01*
X47446433Y-50112927D01*
X47348936Y-50255619D01*
X47314635Y-50425000D01*
X47314635Y-50648733D01*
X47265265Y-50698103D01*
X47100000Y-50664635D01*
X46600000Y-50664635D01*
X46441763Y-50694409D01*
X46296433Y-50787927D01*
X46198936Y-50930619D01*
X46164635Y-51100000D01*
X46164635Y-51250603D01*
X46108216Y-51194184D01*
X46035365Y-51145507D01*
X46035365Y-51100000D01*
X46005591Y-50941763D01*
X45912073Y-50796433D01*
X45769381Y-50698936D01*
X45600000Y-50664635D01*
X45100000Y-50664635D01*
X44941763Y-50694409D01*
X44796433Y-50787927D01*
X44778995Y-50813448D01*
X44746788Y-50800075D01*
X44417787Y-50799788D01*
X44203200Y-50888454D01*
X44203200Y-50748500D01*
X44164896Y-50555934D01*
X44164896Y-50555933D01*
X44055816Y-50392684D01*
X42956829Y-49293697D01*
X42957027Y-49068050D01*
X42846216Y-48799868D01*
X42641211Y-48594505D01*
X42373223Y-48483227D01*
X42353098Y-48483209D01*
X42385273Y-48405723D01*
X42385527Y-48115550D01*
X42274716Y-47847368D01*
X42069711Y-47642005D01*
X42017199Y-47620200D01*
X48006000Y-47620200D01*
X48198566Y-47581896D01*
X48361816Y-47472816D01*
X48801716Y-47032916D01*
X48810979Y-47019053D01*
X49501816Y-46328216D01*
X49550493Y-46255365D01*
X49771000Y-46255365D01*
X49900591Y-46230981D01*
X50021000Y-46255365D01*
X50271000Y-46255365D01*
X50400591Y-46230981D01*
X50521000Y-46255365D01*
G36*
X52354789Y-36812995D02*
X52610521Y-36919184D01*
X52610473Y-36974450D01*
X52721284Y-37242632D01*
X52861813Y-37383406D01*
X52875104Y-37450224D01*
X52984184Y-37613474D01*
X54096526Y-38725816D01*
X54259776Y-38834896D01*
X54265862Y-38836106D01*
X53659682Y-39442286D01*
X53550602Y-39605536D01*
X53512298Y-39798102D01*
X53512298Y-42990382D01*
X53550602Y-43182948D01*
X53659682Y-43346198D01*
X53764974Y-43451490D01*
X52358910Y-43451490D01*
X52166344Y-43489794D01*
X52003094Y-43598874D01*
X51290184Y-44311784D01*
X51241507Y-44384635D01*
X51021000Y-44384635D01*
X50891409Y-44409019D01*
X50771000Y-44384635D01*
X50521000Y-44384635D01*
X50391409Y-44409019D01*
X50271000Y-44384635D01*
X50021000Y-44384635D01*
X49891409Y-44409019D01*
X49771000Y-44384635D01*
X49521000Y-44384635D01*
X49391409Y-44409019D01*
X49271000Y-44384635D01*
X49021000Y-44384635D01*
X48891409Y-44409019D01*
X48771000Y-44384635D01*
X48733660Y-44384635D01*
X48630699Y-44281673D01*
X48397310Y-44185000D01*
X48367250Y-44185000D01*
X48208500Y-44343750D01*
X48208500Y-44521001D01*
X48145420Y-44613322D01*
X48083500Y-44517097D01*
X48083500Y-44343750D01*
X47924750Y-44185000D01*
X47894690Y-44185000D01*
X47661301Y-44281673D01*
X47558340Y-44384635D01*
X47521000Y-44384635D01*
X47391409Y-44409019D01*
X47271000Y-44384635D01*
X47233660Y-44384635D01*
X47130699Y-44281673D01*
X46897310Y-44185000D01*
X46867250Y-44185000D01*
X46773002Y-44279248D01*
X46773002Y-44185000D01*
X46662398Y-44185000D01*
X51350839Y-39496559D01*
X51465079Y-39325589D01*
X51505194Y-39123914D01*
X51505194Y-37382488D01*
X52214860Y-36672822D01*
X52354789Y-36812995D01*
X52354789Y-36812995D01*
G37*
X52354789Y-36812995D02*
X52610521Y-36919184D01*
X52610473Y-36974450D01*
X52721284Y-37242632D01*
X52861813Y-37383406D01*
X52875104Y-37450224D01*
X52984184Y-37613474D01*
X54096526Y-38725816D01*
X54259776Y-38834896D01*
X54265862Y-38836106D01*
X53659682Y-39442286D01*
X53550602Y-39605536D01*
X53512298Y-39798102D01*
X53512298Y-42990382D01*
X53550602Y-43182948D01*
X53659682Y-43346198D01*
X53764974Y-43451490D01*
X52358910Y-43451490D01*
X52166344Y-43489794D01*
X52003094Y-43598874D01*
X51290184Y-44311784D01*
X51241507Y-44384635D01*
X51021000Y-44384635D01*
X50891409Y-44409019D01*
X50771000Y-44384635D01*
X50521000Y-44384635D01*
X50391409Y-44409019D01*
X50271000Y-44384635D01*
X50021000Y-44384635D01*
X49891409Y-44409019D01*
X49771000Y-44384635D01*
X49521000Y-44384635D01*
X49391409Y-44409019D01*
X49271000Y-44384635D01*
X49021000Y-44384635D01*
X48891409Y-44409019D01*
X48771000Y-44384635D01*
X48733660Y-44384635D01*
X48630699Y-44281673D01*
X48397310Y-44185000D01*
X48367250Y-44185000D01*
X48208500Y-44343750D01*
X48208500Y-44521001D01*
X48145420Y-44613322D01*
X48083500Y-44517097D01*
X48083500Y-44343750D01*
X47924750Y-44185000D01*
X47894690Y-44185000D01*
X47661301Y-44281673D01*
X47558340Y-44384635D01*
X47521000Y-44384635D01*
X47391409Y-44409019D01*
X47271000Y-44384635D01*
X47233660Y-44384635D01*
X47130699Y-44281673D01*
X46897310Y-44185000D01*
X46867250Y-44185000D01*
X46773002Y-44279248D01*
X46773002Y-44185000D01*
X46662398Y-44185000D01*
X51350839Y-39496559D01*
X51465079Y-39325589D01*
X51505194Y-39123914D01*
X51505194Y-37382488D01*
X52214860Y-36672822D01*
X52354789Y-36812995D01*
M02*
