M48
;DRILL file {KiCad 4.0.6} date 07/07/17 15:20:09
;FORMAT={-:-/ absolute / metric / decimal}
FMAT,2
METRIC,TZ
T1C0.300
T2C0.400
T3C0.650
T4C0.800
T5C1.000
T6C1.300
%
G90
G05
M71
T1
X31.178Y-33.528
X32.131Y-38.735
X33.055Y-38.735
X34.544Y-33.528
X35.56Y-35.56
X35.8Y-59.3
X36.449Y-41.021
X36.498Y-52.523
X37.465Y-47.434
X37.961Y-41.021
X38.417Y-46.355
X38.417Y-46.355
X38.417Y-47.117
X41.656Y-43.307
X41.656Y-48.26
X42.227Y-43.878
X42.227Y-49.212
X42.799Y-43.307
X43.371Y-43.813
X45.276Y-42.355
X45.339Y-41.275
X46.519Y-62.05
X47.343Y-53.428
X48.023Y-58.694
X48.197Y-48.45
X48.301Y-57.299
X48.895Y-40.386
X50.419Y-42.799
X51.562Y-47.879
X52.1Y-53.925
X52.768Y-36.195
X53.34Y-36.83
X53.395Y-59.332
X53.721Y-65.456
X54.Y-64.744
X54.238Y-57.738
X54.546Y-41.402
X54.673Y-42.862
X54.991Y-48.895
X55.245Y-33.718
X56.795Y-42.179
X57.403Y-40.49
X57.429Y-41.247
X57.5Y-66.468
X57.966Y-64.184
X58.42Y-37.465
X58.684Y-65.663
X69.85Y-38.1
T2
X37.3Y-69.
X44.582Y-51.627
X47.74Y-56.602
X51.805Y-63.436
X53.15Y-64.65
X57.466Y-61.565
X59.5Y-59.077
X60.33Y-62.316
T3
X44.9Y-52.63
X44.9Y-53.9
X44.9Y-55.17
X68.404Y-68.396
X69.302Y-67.498
X70.2Y-66.6
X70.612Y-33.528
X70.612Y-34.798
X70.612Y-36.068
X71.098Y-65.702
X71.882Y-33.528
X71.882Y-34.798
X71.882Y-36.068
X71.996Y-64.804
X72.894Y-63.906
T4
X35.496Y-49.276
X39.814Y-44.45
X41.25Y-54.35
X41.25Y-56.35
X41.25Y-58.35
X44.487Y-45.05
X55.816Y-46.99
X57.179Y-50.75
T5
X37.8Y-56.25
X37.8Y-58.75
X48.62Y-52.48
X48.62Y-67.72
X51.16Y-52.48
X51.16Y-67.72
X53.7Y-52.48
X53.7Y-67.72
X56.24Y-52.48
X56.24Y-67.72
X58.78Y-67.72
X62.06Y-55.02
X62.06Y-57.56
X62.06Y-60.1
X64.6Y-55.02
X64.6Y-57.56
X64.6Y-60.1
T6
X41.25Y-52.15
X41.25Y-60.55
T0
M30
